<mxfile host="app.diagrams.net" agent="Mozilla/5.0 (Macintosh; Intel Mac OS X 10_15_7) AppleWebKit/537.36 (KHTML, like Gecko) Chrome/130.0.0.0 Safari/537.36" version="24.8.3" pages="22">
  <diagram id="dGGgCRRzkfK_Dobj67br" name="App1-Clarifai-Register-page">
    <mxGraphModel dx="1733" dy="2076" grid="1" gridSize="10" guides="1" tooltips="1" connect="1" arrows="1" fold="1" page="1" pageScale="1" pageWidth="827" pageHeight="1169" math="0" shadow="0">
      <root>
        <mxCell id="0" />
        <mxCell id="1" parent="0" />
        <mxCell id="SmF8lWQ6iaVvIH9fP2kV-1" value="Register page&lt;div&gt;REST API&lt;/div&gt;&lt;div&gt;data-flow&lt;/div&gt;" style="text;strokeColor=none;fillColor=none;html=1;fontSize=24;fontStyle=1;verticalAlign=middle;align=center;" parent="1" vertex="1">
          <mxGeometry x="340" y="-691" width="100" height="40" as="geometry" />
        </mxCell>
        <mxCell id="sJqNIliAfBtjSxyefdmO-6" value="HTTP Response" style="text;html=1;align=center;verticalAlign=middle;whiteSpace=wrap;rounded=0;fontSize=16;" parent="1" vertex="1">
          <mxGeometry x="324" y="-260" width="132" height="30" as="geometry" />
        </mxCell>
        <mxCell id="sJqNIliAfBtjSxyefdmO-7" value="" style="edgeStyle=elbowEdgeStyle;elbow=vertical;strokeColor=#990000;strokeWidth=2;exitX=0;exitY=0.5;exitDx=0;exitDy=0;entryX=1;entryY=0.5;entryDx=0;entryDy=0;" parent="1" edge="1">
          <mxGeometry width="100" height="100" relative="1" as="geometry">
            <mxPoint x="568" y="-230.55999999999977" as="sourcePoint" />
            <mxPoint x="175" y="-230.56" as="targetPoint" />
            <Array as="points">
              <mxPoint x="400" y="-230.56" />
            </Array>
          </mxGeometry>
        </mxCell>
        <mxCell id="sJqNIliAfBtjSxyefdmO-9" value="Node.js Backend" style="whiteSpace=wrap;align=center;verticalAlign=middle;fontStyle=1;strokeWidth=3;fillColor=#3d3de0;fontColor=#ffffff;" parent="1" vertex="1">
          <mxGeometry x="568" y="-600" width="198" height="60" as="geometry" />
        </mxCell>
        <mxCell id="sJqNIliAfBtjSxyefdmO-10" value="React Frontend" style="whiteSpace=wrap;align=center;verticalAlign=middle;fontStyle=1;strokeWidth=3;fillColor=#FFA500" parent="1" vertex="1">
          <mxGeometry x="-23" y="-600" width="198" height="60" as="geometry" />
        </mxCell>
        <mxCell id="sJqNIliAfBtjSxyefdmO-11" value="" style="edgeStyle=elbowEdgeStyle;elbow=vertical;strokeColor=#990000;strokeWidth=2;exitX=1;exitY=0.5;exitDx=0;exitDy=0;entryX=0;entryY=0.5;entryDx=0;entryDy=0;" parent="1" edge="1" target="sJqNIliAfBtjSxyefdmO-9" source="sJqNIliAfBtjSxyefdmO-10">
          <mxGeometry width="100" height="100" relative="1" as="geometry">
            <mxPoint x="187" y="-570.56" as="sourcePoint" />
            <mxPoint x="555" y="-570" as="targetPoint" />
            <Array as="points">
              <mxPoint x="555" y="-570" />
            </Array>
          </mxGeometry>
        </mxCell>
        <mxCell id="sJqNIliAfBtjSxyefdmO-12" value="HTTP POST Request&lt;div&gt;&lt;span style=&quot;background-color: initial;&quot;&gt;JSON body {&lt;/span&gt;&lt;/div&gt;&lt;div&gt;name: string,&lt;/div&gt;&lt;div&gt;email: string,&lt;/div&gt;&lt;div&gt;password: string,&lt;/div&gt;&lt;div&gt;passwordConfirm: string&lt;/div&gt;&lt;div&gt;}&lt;/div&gt;" style="text;html=1;align=center;verticalAlign=middle;whiteSpace=wrap;rounded=0;fontSize=16;" parent="1" vertex="1">
          <mxGeometry x="299" y="-511" width="179" height="30" as="geometry" />
        </mxCell>
        <mxCell id="sJqNIliAfBtjSxyefdmO-13" value="Postgres DB" style="whiteSpace=wrap;align=center;verticalAlign=middle;fontStyle=1;strokeWidth=3;fillColor=#7575fa" parent="1" vertex="1">
          <mxGeometry x="568" y="-440" width="198" height="60" as="geometry" />
        </mxCell>
        <mxCell id="sJqNIliAfBtjSxyefdmO-16" value="Knex.js&lt;div&gt;connector&lt;/div&gt;" style="text;html=1;align=center;verticalAlign=middle;whiteSpace=wrap;rounded=0;fontSize=16;" parent="1" vertex="1">
          <mxGeometry x="554" y="-336" width="132" height="30" as="geometry" />
        </mxCell>
        <mxCell id="sJqNIliAfBtjSxyefdmO-20" value="&lt;br&gt;&lt;div style=&quot;forced-color-adjust: none; color: rgb(0, 0, 0); font-family: Helvetica; font-size: 16px; font-style: normal; font-variant-ligatures: normal; font-variant-caps: normal; font-weight: 400; letter-spacing: normal; orphans: 2; text-align: center; text-indent: 0px; text-transform: none; widows: 2; word-spacing: 0px; -webkit-text-stroke-width: 0px; white-space: normal; background-color: rgb(251, 251, 251); text-decoration-thickness: initial; text-decoration-style: initial; text-decoration-color: initial;&quot;&gt;http://localhost:3001/register&lt;/div&gt;" style="text;whiteSpace=wrap;html=1;" parent="1" vertex="1">
          <mxGeometry x="299" y="-630" width="230" height="60" as="geometry" />
        </mxCell>
        <mxCell id="sJqNIliAfBtjSxyefdmO-22" value="" style="edgeStyle=elbowEdgeStyle;elbow=vertical;strokeColor=#990000;strokeWidth=2;entryX=0.5;entryY=0;entryDx=0;entryDy=0;" parent="1" target="sJqNIliAfBtjSxyefdmO-13" edge="1">
          <mxGeometry width="100" height="100" relative="1" as="geometry">
            <mxPoint x="666.47" y="-537.5" as="sourcePoint" />
            <mxPoint x="666" y="-445" as="targetPoint" />
            <Array as="points">
              <mxPoint x="706.97" y="-514.5" />
            </Array>
          </mxGeometry>
        </mxCell>
        <mxCell id="sJqNIliAfBtjSxyefdmO-23" value="" style="edgeStyle=elbowEdgeStyle;elbow=vertical;strokeColor=#990000;strokeWidth=2;entryX=0.5;entryY=0;entryDx=0;entryDy=0;" parent="1" edge="1" target="HW43q72zFyjFRs5z7Jw6-3">
          <mxGeometry width="100" height="100" relative="1" as="geometry">
            <mxPoint x="666.47" y="-380" as="sourcePoint" />
            <mxPoint x="666" y="-300" as="targetPoint" />
            <Array as="points">
              <mxPoint x="706.97" y="-357" />
            </Array>
          </mxGeometry>
        </mxCell>
        <mxCell id="sJqNIliAfBtjSxyefdmO-24" value="" style="edgeStyle=elbowEdgeStyle;elbow=vertical;strokeColor=#990000;strokeWidth=2;entryX=0.5;entryY=0;entryDx=0;entryDy=0;" parent="1" target="HW43q72zFyjFRs5z7Jw6-1" edge="1">
          <mxGeometry width="100" height="100" relative="1" as="geometry">
            <mxPoint x="666.94" y="-240" as="sourcePoint" />
            <mxPoint x="667" y="-120" as="targetPoint" />
            <Array as="points">
              <mxPoint x="707.44" y="-217" />
            </Array>
          </mxGeometry>
        </mxCell>
        <mxCell id="sJqNIliAfBtjSxyefdmO-26" value="transaction based&lt;div&gt;Postgres DB ops&lt;/div&gt;" style="text;html=1;align=center;verticalAlign=middle;whiteSpace=wrap;rounded=0;fontSize=16;" parent="1" vertex="1">
          <mxGeometry x="529" y="-169" width="132" height="30" as="geometry" />
        </mxCell>
        <mxCell id="sJqNIliAfBtjSxyefdmO-28" value="{&amp;nbsp;&lt;div&gt;hash: bcryptHash,&lt;div&gt;email: email&lt;/div&gt;&lt;div&gt;}&lt;/div&gt;&lt;/div&gt;" style="text;html=1;align=center;verticalAlign=middle;whiteSpace=wrap;rounded=0;fontSize=16;" parent="1" vertex="1">
          <mxGeometry x="673" y="-169" width="132" height="30" as="geometry" />
        </mxCell>
        <mxCell id="sJqNIliAfBtjSxyefdmO-29" value="{&amp;nbsp;&lt;div&gt;&lt;div&gt;email: email,&lt;/div&gt;&lt;div&gt;name: name,&lt;/div&gt;&lt;div&gt;joined: new Date().toISOString()&lt;/div&gt;&lt;div&gt;}&lt;/div&gt;&lt;/div&gt;" style="text;html=1;align=center;verticalAlign=middle;whiteSpace=wrap;rounded=0;fontSize=16;" parent="1" vertex="1">
          <mxGeometry x="673" y="-336" width="132" height="30" as="geometry" />
        </mxCell>
        <mxCell id="sJqNIliAfBtjSxyefdmO-30" value="React Frontend" style="whiteSpace=wrap;align=center;verticalAlign=middle;fontStyle=1;strokeWidth=3;fillColor=#FFA500" parent="1" vertex="1">
          <mxGeometry x="-23" y="-260" width="198" height="60" as="geometry" />
        </mxCell>
        <mxCell id="HW43q72zFyjFRs5z7Jw6-1" value="table `login`" style="whiteSpace=wrap;align=center;verticalAlign=middle;fontStyle=1;strokeWidth=3;fillColor=#FFA500" vertex="1" parent="1">
          <mxGeometry x="568" y="-110" width="198" height="60" as="geometry" />
        </mxCell>
        <mxCell id="HW43q72zFyjFRs5z7Jw6-3" value="table `users`" style="whiteSpace=wrap;align=center;verticalAlign=middle;fontStyle=1;strokeWidth=3;fillColor=#FFA500" vertex="1" parent="1">
          <mxGeometry x="568" y="-260" width="198" height="60" as="geometry" />
        </mxCell>
      </root>
    </mxGraphModel>
  </diagram>
  <diagram id="LJyTZVPfp3FOcjIsd5y0" name="App1-Signin">
    <mxGraphModel dx="1239" dy="1828" grid="0" gridSize="10" guides="1" tooltips="1" connect="1" arrows="1" fold="1" page="0" pageScale="1" pageWidth="827" pageHeight="1169" math="0" shadow="0">
      <root>
        <mxCell id="0" />
        <mxCell id="1" parent="0" />
        <mxCell id="6R8d0WZN2qIfmz87X0iU-1" value="Signin page&lt;div&gt;REST API&lt;/div&gt;&lt;div&gt;data-flow&lt;/div&gt;" style="text;strokeColor=none;fillColor=none;html=1;fontSize=24;fontStyle=1;verticalAlign=middle;align=center;" vertex="1" parent="1">
          <mxGeometry x="340" y="-691" width="100" height="40" as="geometry" />
        </mxCell>
        <mxCell id="6R8d0WZN2qIfmz87X0iU-2" value="res.cookie(&#39;userData&#39;, JSON.stringify({&lt;div&gt;id: user[0].id,&lt;/div&gt;&lt;div&gt;email: user[0].email&lt;/div&gt;&lt;div&gt;}), {&lt;/div&gt;&lt;div&gt;maxAge: 900000,&amp;nbsp;&lt;/div&gt;&lt;div&gt;httpOnly: true,&lt;/div&gt;&lt;div&gt;secure: true,&lt;/div&gt;&lt;div&gt;sameSite: &#39;None&#39;&lt;/div&gt;&lt;div&gt;}).json(req.session.user)&lt;/div&gt;" style="text;html=1;align=center;verticalAlign=middle;whiteSpace=wrap;rounded=0;fontSize=16;" vertex="1" parent="1">
          <mxGeometry x="324" y="239" width="132" height="30" as="geometry" />
        </mxCell>
        <mxCell id="6R8d0WZN2qIfmz87X0iU-3" value="" style="edgeStyle=elbowEdgeStyle;elbow=vertical;strokeColor=#990000;strokeWidth=2;exitX=0;exitY=0.5;exitDx=0;exitDy=0;entryX=1;entryY=0.5;entryDx=0;entryDy=0;" edge="1" parent="1">
          <mxGeometry width="100" height="100" relative="1" as="geometry">
            <mxPoint x="566" y="147.44000000000023" as="sourcePoint" />
            <mxPoint x="173" y="147.44" as="targetPoint" />
            <Array as="points">
              <mxPoint x="398" y="147.44" />
            </Array>
          </mxGeometry>
        </mxCell>
        <mxCell id="6R8d0WZN2qIfmz87X0iU-4" value="Node.js Backend" style="whiteSpace=wrap;align=center;verticalAlign=middle;fontStyle=1;strokeWidth=3;fillColor=#3d3de0;fontColor=#ffffff;" vertex="1" parent="1">
          <mxGeometry x="568" y="-600" width="198" height="60" as="geometry" />
        </mxCell>
        <mxCell id="6R8d0WZN2qIfmz87X0iU-5" value="React Frontend&#xa;browser" style="whiteSpace=wrap;align=center;verticalAlign=middle;fontStyle=1;strokeWidth=3;fillColor=#FFA500" vertex="1" parent="1">
          <mxGeometry x="-23" y="-600" width="198" height="60" as="geometry" />
        </mxCell>
        <mxCell id="6R8d0WZN2qIfmz87X0iU-6" value="" style="edgeStyle=elbowEdgeStyle;elbow=vertical;strokeColor=#990000;strokeWidth=2;exitX=1;exitY=0.5;exitDx=0;exitDy=0;entryX=0;entryY=0.5;entryDx=0;entryDy=0;" edge="1" parent="1" source="6R8d0WZN2qIfmz87X0iU-5" target="6R8d0WZN2qIfmz87X0iU-4">
          <mxGeometry width="100" height="100" relative="1" as="geometry">
            <mxPoint x="187" y="-570.56" as="sourcePoint" />
            <mxPoint x="555" y="-570" as="targetPoint" />
            <Array as="points">
              <mxPoint x="555" y="-570" />
            </Array>
          </mxGeometry>
        </mxCell>
        <mxCell id="6R8d0WZN2qIfmz87X0iU-7" value="HTTP POST Request&lt;div&gt;&lt;span style=&quot;background-color: initial;&quot;&gt;JSON body {&lt;/span&gt;&lt;/div&gt;&lt;div&gt;email: string,&lt;/div&gt;&lt;div&gt;password: string&lt;/div&gt;&lt;div&gt;}&lt;/div&gt;" style="text;html=1;align=center;verticalAlign=middle;whiteSpace=wrap;rounded=0;fontSize=16;" vertex="1" parent="1">
          <mxGeometry x="299" y="-529" width="179" height="30" as="geometry" />
        </mxCell>
        <mxCell id="6R8d0WZN2qIfmz87X0iU-8" value="bcrypt" style="whiteSpace=wrap;align=center;verticalAlign=middle;fontStyle=1;strokeWidth=3;fillColor=#7575fa" vertex="1" parent="1">
          <mxGeometry x="568" y="-458" width="198" height="60" as="geometry" />
        </mxCell>
        <mxCell id="6R8d0WZN2qIfmz87X0iU-9" value="Compare hash" style="text;html=1;align=center;verticalAlign=middle;whiteSpace=wrap;rounded=0;fontSize=16;" vertex="1" parent="1">
          <mxGeometry x="541" y="-351" width="132" height="30" as="geometry" />
        </mxCell>
        <mxCell id="6R8d0WZN2qIfmz87X0iU-10" value="&lt;br&gt;&lt;div style=&quot;forced-color-adjust: none; color: rgb(0, 0, 0); font-family: Helvetica; font-size: 16px; font-style: normal; font-variant-ligatures: normal; font-variant-caps: normal; font-weight: 400; letter-spacing: normal; orphans: 2; text-align: center; text-indent: 0px; text-transform: none; widows: 2; word-spacing: 0px; -webkit-text-stroke-width: 0px; white-space: normal; background-color: rgb(251, 251, 251); text-decoration-thickness: initial; text-decoration-style: initial; text-decoration-color: initial;&quot;&gt;http://localhost:3001/signin&lt;/div&gt;" style="text;whiteSpace=wrap;html=1;" vertex="1" parent="1">
          <mxGeometry x="299" y="-630" width="230" height="60" as="geometry" />
        </mxCell>
        <mxCell id="6R8d0WZN2qIfmz87X0iU-11" value="" style="edgeStyle=elbowEdgeStyle;elbow=vertical;strokeColor=#990000;strokeWidth=2;entryX=0.5;entryY=0;entryDx=0;entryDy=0;" edge="1" parent="1" target="6R8d0WZN2qIfmz87X0iU-8">
          <mxGeometry width="100" height="100" relative="1" as="geometry">
            <mxPoint x="666.47" y="-537.5" as="sourcePoint" />
            <mxPoint x="666" y="-445" as="targetPoint" />
            <Array as="points">
              <mxPoint x="706.97" y="-514.5" />
            </Array>
          </mxGeometry>
        </mxCell>
        <mxCell id="6R8d0WZN2qIfmz87X0iU-12" value="" style="edgeStyle=elbowEdgeStyle;elbow=vertical;strokeColor=#990000;strokeWidth=2;entryX=0.5;entryY=0;entryDx=0;entryDy=0;" edge="1" parent="1">
          <mxGeometry width="100" height="100" relative="1" as="geometry">
            <mxPoint x="666.47" y="-395" as="sourcePoint" />
            <mxPoint x="667" y="-275" as="targetPoint" />
            <Array as="points">
              <mxPoint x="706.97" y="-372" />
            </Array>
          </mxGeometry>
        </mxCell>
        <mxCell id="6R8d0WZN2qIfmz87X0iU-13" value="" style="edgeStyle=elbowEdgeStyle;elbow=vertical;strokeColor=#990000;strokeWidth=2;entryX=0.5;entryY=0;entryDx=0;entryDy=0;" edge="1" parent="1">
          <mxGeometry width="100" height="100" relative="1" as="geometry">
            <mxPoint x="666.94" y="-240" as="sourcePoint" />
            <mxPoint x="667" y="-93.00000000000023" as="targetPoint" />
            <Array as="points">
              <mxPoint x="707.44" y="-217" />
            </Array>
          </mxGeometry>
        </mxCell>
        <mxCell id="6R8d0WZN2qIfmz87X0iU-14" value="select email, hash where email = req.body.email&lt;div&gt;from `login`&lt;/div&gt;" style="text;html=1;align=center;verticalAlign=middle;whiteSpace=wrap;rounded=0;fontSize=16;" vertex="1" parent="1">
          <mxGeometry x="532" y="-169" width="132" height="30" as="geometry" />
        </mxCell>
        <mxCell id="6R8d0WZN2qIfmz87X0iU-15" value="{&amp;nbsp;&lt;div&gt;id: integer,&lt;div&gt;hash: varchar(100),&lt;/div&gt;&lt;div&gt;email: text&lt;/div&gt;&lt;div&gt;}&lt;/div&gt;&lt;/div&gt;" style="text;html=1;align=center;verticalAlign=middle;whiteSpace=wrap;rounded=0;fontSize=16;" vertex="1" parent="1">
          <mxGeometry x="673" y="-169" width="132" height="30" as="geometry" />
        </mxCell>
        <mxCell id="6R8d0WZN2qIfmz87X0iU-16" value="bcrypt.hash(password, saltRound)" style="text;html=1;align=center;verticalAlign=middle;whiteSpace=wrap;rounded=0;fontSize=16;" vertex="1" parent="1">
          <mxGeometry x="689" y="-370" width="132" height="68" as="geometry" />
        </mxCell>
        <mxCell id="6R8d0WZN2qIfmz87X0iU-17" value="React Frontend browser" style="whiteSpace=wrap;align=center;verticalAlign=middle;fontStyle=1;strokeWidth=3;fillColor=#FFA500" vertex="1" parent="1">
          <mxGeometry x="-23" y="118" width="198" height="60" as="geometry" />
        </mxCell>
        <mxCell id="6R8d0WZN2qIfmz87X0iU-19" value="Postgres DB" style="whiteSpace=wrap;align=center;verticalAlign=middle;fontStyle=1;strokeWidth=3;fillColor=#FFA500" vertex="1" parent="1">
          <mxGeometry x="568" y="-274" width="198" height="60" as="geometry" />
        </mxCell>
        <mxCell id="6R8d0WZN2qIfmz87X0iU-23" value="" style="edgeStyle=elbowEdgeStyle;elbow=vertical;strokeColor=#990000;strokeWidth=2;entryX=0.5;entryY=0;entryDx=0;entryDy=0;" edge="1" parent="1">
          <mxGeometry width="100" height="100" relative="1" as="geometry">
            <mxPoint x="666.4100000000001" y="-30" as="sourcePoint" />
            <mxPoint x="666.47" y="116.99999999999977" as="targetPoint" />
            <Array as="points">
              <mxPoint x="706.9100000000001" y="-7" />
            </Array>
          </mxGeometry>
        </mxCell>
        <mxCell id="6R8d0WZN2qIfmz87X0iU-24" value="Express REST API" style="whiteSpace=wrap;align=center;verticalAlign=middle;fontStyle=1;strokeWidth=3;fillColor=#3d3de0;fontColor=#ffffff;" vertex="1" parent="1">
          <mxGeometry x="568" y="118" width="198" height="60" as="geometry" />
        </mxCell>
        <mxCell id="6R8d0WZN2qIfmz87X0iU-25" value="table `login`" style="whiteSpace=wrap;align=center;verticalAlign=middle;fontStyle=1;strokeWidth=3;fillColor=#FFA500" vertex="1" parent="1">
          <mxGeometry x="568" y="-91" width="198" height="60" as="geometry" />
        </mxCell>
        <mxCell id="6R8d0WZN2qIfmz87X0iU-26" value="MATCH!" style="text;html=1;align=center;verticalAlign=middle;whiteSpace=wrap;rounded=0;fontSize=16;" vertex="1" parent="1">
          <mxGeometry x="532" y="28" width="132" height="30" as="geometry" />
        </mxCell>
        <mxCell id="6R8d0WZN2qIfmz87X0iU-27" value="IF FOUND&lt;div&gt;user.length &amp;gt; 0&lt;/div&gt;&lt;div&gt;&lt;br&gt;&lt;/div&gt;&lt;div&gt;req.session.user = user[0];&lt;/div&gt;" style="text;html=1;align=center;verticalAlign=middle;whiteSpace=wrap;rounded=0;fontSize=16;" vertex="1" parent="1">
          <mxGeometry x="673" y="28" width="132" height="30" as="geometry" />
        </mxCell>
        <mxCell id="6R8d0WZN2qIfmz87X0iU-28" value="res.cookie() gives &#39;connect.sid&#39;" style="text;html=1;align=center;verticalAlign=middle;whiteSpace=wrap;rounded=0;fontSize=16;" vertex="1" parent="1">
          <mxGeometry x="322.5" y="102" width="132" height="30" as="geometry" />
        </mxCell>
        <mxCell id="6R8d0WZN2qIfmz87X0iU-29" value="Browser Storage:&lt;div&gt;connect.sid&lt;/div&gt;&lt;div&gt;userData&lt;/div&gt;" style="text;html=1;align=center;verticalAlign=middle;whiteSpace=wrap;rounded=0;fontSize=16;" vertex="1" parent="1">
          <mxGeometry x="10" y="72" width="132" height="30" as="geometry" />
        </mxCell>
      </root>
    </mxGraphModel>
  </diagram>
  <diagram id="cTiO0HOBbcLM-1p7krUA" name="App1-route-persists">
    <mxGraphModel dx="740" dy="1707" grid="0" gridSize="10" guides="1" tooltips="1" connect="1" arrows="1" fold="1" page="0" pageScale="1" pageWidth="827" pageHeight="1169" math="0" shadow="0">
      <root>
        <mxCell id="0" />
        <mxCell id="1" parent="0" />
        <mxCell id="1hvWaNo019BhzNBSGLNL-1" value="React Session persistence" style="text;strokeColor=none;fillColor=none;html=1;fontSize=24;fontStyle=1;verticalAlign=middle;align=center;" vertex="1" parent="1">
          <mxGeometry x="340" y="-680" width="100" height="40" as="geometry" />
        </mxCell>
        <mxCell id="1hvWaNo019BhzNBSGLNL-5" value="React Frontend&#xa;browser" style="whiteSpace=wrap;align=center;verticalAlign=middle;fontStyle=1;strokeWidth=3;fillColor=#FFA500" vertex="1" parent="1">
          <mxGeometry x="291" y="-549" width="198" height="60" as="geometry" />
        </mxCell>
        <mxCell id="1hvWaNo019BhzNBSGLNL-8" value="User Signed In?" style="whiteSpace=wrap;align=center;verticalAlign=middle;fontStyle=1;strokeWidth=3;fillColor=#7575fa" vertex="1" parent="1">
          <mxGeometry x="294.5" y="-18" width="198" height="60" as="geometry" />
        </mxCell>
        <mxCell id="1hvWaNo019BhzNBSGLNL-13" value="" style="edgeStyle=elbowEdgeStyle;elbow=vertical;strokeColor=#990000;strokeWidth=2;" edge="1" parent="1">
          <mxGeometry width="100" height="100" relative="1" as="geometry">
            <mxPoint x="174.50000000000006" y="74" as="sourcePoint" />
            <mxPoint x="174.5" y="136" as="targetPoint" />
            <Array as="points">
              <mxPoint x="215.00000000000006" y="97" />
            </Array>
          </mxGeometry>
        </mxCell>
        <mxCell id="1hvWaNo019BhzNBSGLNL-20" value="Express REST API" style="whiteSpace=wrap;align=center;verticalAlign=middle;fontStyle=1;strokeWidth=3;fillColor=#3d3de0;fontColor=#ffffff;" vertex="1" parent="1">
          <mxGeometry x="640" y="-549" width="198" height="60" as="geometry" />
        </mxCell>
        <mxCell id="1hvWaNo019BhzNBSGLNL-26" value="Browser Storage:&lt;div&gt;connect.sid&lt;/div&gt;&lt;div&gt;userData&lt;/div&gt;" style="text;html=1;align=center;verticalAlign=middle;whiteSpace=wrap;rounded=0;fontSize=16;" vertex="1" parent="1">
          <mxGeometry x="324" y="-598" width="132" height="30" as="geometry" />
        </mxCell>
        <mxCell id="9eaxR025YoAuCRvqqByu-1" value="" style="edgeStyle=elbowEdgeStyle;elbow=vertical;strokeColor=#990000;strokeWidth=2;exitX=0;exitY=0.5;exitDx=0;exitDy=0;" edge="1" parent="1" source="1hvWaNo019BhzNBSGLNL-20">
          <mxGeometry width="100" height="100" relative="1" as="geometry">
            <mxPoint x="565" y="-519.7099999999998" as="sourcePoint" />
            <mxPoint x="488" y="-520" as="targetPoint" />
            <Array as="points">
              <mxPoint x="397" y="-519.71" />
            </Array>
          </mxGeometry>
        </mxCell>
        <mxCell id="A8kofhwl7fdD0qQ23REN-1" value="res.cookie() &#39;connect.sid&#39;" style="text;html=1;align=center;verticalAlign=middle;whiteSpace=wrap;rounded=0;fontSize=16;" vertex="1" parent="1">
          <mxGeometry x="501" y="-554" width="132" height="30" as="geometry" />
        </mxCell>
        <mxCell id="gEsZ88lmFc7ogCLS7Q38-1" value="" style="line;strokeWidth=2;direction=south;html=1;" vertex="1" parent="1">
          <mxGeometry x="386.5" y="42" width="10" height="32" as="geometry" />
        </mxCell>
        <mxCell id="gEsZ88lmFc7ogCLS7Q38-2" value="" style="shape=partialRectangle;whiteSpace=wrap;html=1;bottom=1;right=1;left=1;top=0;fillColor=none;routingCenterX=-0.5;direction=west;" vertex="1" parent="1">
          <mxGeometry x="174.5" y="74" width="432" height="1" as="geometry" />
        </mxCell>
        <mxCell id="gEsZ88lmFc7ogCLS7Q38-4" value="YES" style="whiteSpace=wrap;align=center;verticalAlign=middle;fontStyle=1;strokeWidth=3;fillColor=#54d654" vertex="1" parent="1">
          <mxGeometry x="77.5" y="139" width="198" height="60" as="geometry" />
        </mxCell>
        <mxCell id="gEsZ88lmFc7ogCLS7Q38-7" value="" style="edgeStyle=elbowEdgeStyle;elbow=vertical;strokeColor=#990000;strokeWidth=2;" edge="1" parent="1">
          <mxGeometry width="100" height="100" relative="1" as="geometry">
            <mxPoint x="175.79000000000005" y="199" as="sourcePoint" />
            <mxPoint x="175.5" y="247" as="targetPoint" />
            <Array as="points">
              <mxPoint x="216.29000000000005" y="222" />
            </Array>
          </mxGeometry>
        </mxCell>
        <mxCell id="gEsZ88lmFc7ogCLS7Q38-8" value="document.cookie exists" style="whiteSpace=wrap;align=center;verticalAlign=middle;fontStyle=1;strokeWidth=3;fillColor=#54d654" vertex="1" parent="1">
          <mxGeometry x="77.5" y="250" width="198" height="60" as="geometry" />
        </mxCell>
        <mxCell id="gEsZ88lmFc7ogCLS7Q38-9" value="" style="edgeStyle=elbowEdgeStyle;elbow=vertical;strokeColor=#990000;strokeWidth=2;" edge="1" parent="1">
          <mxGeometry width="100" height="100" relative="1" as="geometry">
            <mxPoint x="607.5" y="74" as="sourcePoint" />
            <mxPoint x="607.5" y="136" as="targetPoint" />
            <Array as="points">
              <mxPoint x="648" y="97" />
            </Array>
          </mxGeometry>
        </mxCell>
        <mxCell id="gEsZ88lmFc7ogCLS7Q38-11" value="" style="edgeStyle=elbowEdgeStyle;elbow=vertical;strokeColor=#990000;strokeWidth=2;" edge="1" parent="1">
          <mxGeometry width="100" height="100" relative="1" as="geometry">
            <mxPoint x="606.7900000000001" y="199" as="sourcePoint" />
            <mxPoint x="606.5" y="247" as="targetPoint" />
            <Array as="points">
              <mxPoint x="647.2900000000001" y="222" />
            </Array>
          </mxGeometry>
        </mxCell>
        <mxCell id="pvAUf2AtcfIXl_vQZpps-2" value="NO" style="whiteSpace=wrap;align=center;verticalAlign=middle;fontStyle=1;strokeWidth=3;fillColor=#ed1a1a" vertex="1" parent="1">
          <mxGeometry x="504.5" y="139" width="198" height="60" as="geometry" />
        </mxCell>
        <mxCell id="pvAUf2AtcfIXl_vQZpps-3" value="" style="edgeStyle=elbowEdgeStyle;elbow=vertical;strokeColor=#990000;strokeWidth=2;" edge="1" parent="1">
          <mxGeometry width="100" height="100" relative="1" as="geometry">
            <mxPoint x="174.79000000000005" y="310" as="sourcePoint" />
            <mxPoint x="174.5" y="358" as="targetPoint" />
            <Array as="points">
              <mxPoint x="215.29000000000005" y="333" />
            </Array>
          </mxGeometry>
        </mxCell>
        <mxCell id="pvAUf2AtcfIXl_vQZpps-4" value="&#39;Signin&#39; page" style="whiteSpace=wrap;align=center;verticalAlign=middle;fontStyle=1;strokeWidth=3;fillColor=#54d654" vertex="1" parent="1">
          <mxGeometry x="504.5" y="248" width="198" height="60" as="geometry" />
        </mxCell>
        <mxCell id="pvAUf2AtcfIXl_vQZpps-5" value="&#39;Home&#39; page" style="whiteSpace=wrap;align=center;verticalAlign=middle;fontStyle=1;strokeWidth=3;fillColor=#54d654" vertex="1" parent="1">
          <mxGeometry x="77.5" y="358" width="198" height="60" as="geometry" />
        </mxCell>
        <mxCell id="pvAUf2AtcfIXl_vQZpps-6" value="" style="edgeStyle=elbowEdgeStyle;elbow=vertical;strokeColor=#990000;strokeWidth=2;" edge="1" parent="1">
          <mxGeometry width="100" height="100" relative="1" as="geometry">
            <mxPoint x="174.79000000000005" y="418" as="sourcePoint" />
            <mxPoint x="174.5" y="466" as="targetPoint" />
            <Array as="points">
              <mxPoint x="215.29000000000005" y="441" />
            </Array>
          </mxGeometry>
        </mxCell>
        <mxCell id="pvAUf2AtcfIXl_vQZpps-7" value="localStorage.setItem(&#39;lastRoute&#39;, JSON.stringify() )" style="whiteSpace=wrap;align=center;verticalAlign=middle;fontStyle=1;strokeWidth=3;fillColor=#54d654" vertex="1" parent="1">
          <mxGeometry x="77.5" y="580" width="198" height="164" as="geometry" />
        </mxCell>
        <mxCell id="pvAUf2AtcfIXl_vQZpps-8" value="state.isSignedIn = true" style="text;html=1;align=center;verticalAlign=middle;whiteSpace=wrap;rounded=0;fontSize=16;" vertex="1" parent="1">
          <mxGeometry x="178.5" y="427" width="186" height="30" as="geometry" />
        </mxCell>
        <mxCell id="pvAUf2AtcfIXl_vQZpps-9" value="User changes page" style="whiteSpace=wrap;align=center;verticalAlign=middle;fontStyle=1;strokeWidth=3;fillColor=#54d654" vertex="1" parent="1">
          <mxGeometry x="77.5" y="468" width="198" height="60" as="geometry" />
        </mxCell>
        <mxCell id="pvAUf2AtcfIXl_vQZpps-10" value="" style="edgeStyle=elbowEdgeStyle;elbow=vertical;strokeColor=#990000;strokeWidth=2;" edge="1" parent="1">
          <mxGeometry width="100" height="100" relative="1" as="geometry">
            <mxPoint x="175.79000000000005" y="529" as="sourcePoint" />
            <mxPoint x="175.5" y="577" as="targetPoint" />
            <Array as="points">
              <mxPoint x="216.29000000000005" y="552" />
            </Array>
          </mxGeometry>
        </mxCell>
        <mxCell id="pvAUf2AtcfIXl_vQZpps-12" value="" style="edgeStyle=elbowEdgeStyle;elbow=vertical;strokeColor=#990000;strokeWidth=2;" edge="1" parent="1">
          <mxGeometry width="100" height="100" relative="1" as="geometry">
            <mxPoint x="393.2900000000001" y="-489" as="sourcePoint" />
            <mxPoint x="393" y="-441" as="targetPoint" />
            <Array as="points">
              <mxPoint x="433.7900000000001" y="-466" />
            </Array>
          </mxGeometry>
        </mxCell>
        <mxCell id="pvAUf2AtcfIXl_vQZpps-13" value="src/App.js&#xa;&#xa;useEffect(() =&gt; {}, [] )" style="whiteSpace=wrap;align=center;verticalAlign=middle;fontStyle=1;strokeWidth=3;fillColor=#54d654" vertex="1" parent="1">
          <mxGeometry x="291" y="-441" width="198" height="54" as="geometry" />
        </mxCell>
        <mxCell id="pvAUf2AtcfIXl_vQZpps-14" value="" style="edgeStyle=elbowEdgeStyle;elbow=vertical;strokeColor=#990000;strokeWidth=2;" edge="1" parent="1">
          <mxGeometry width="100" height="100" relative="1" as="geometry">
            <mxPoint x="393.2900000000001" y="-387" as="sourcePoint" />
            <mxPoint x="393" y="-339" as="targetPoint" />
            <Array as="points">
              <mxPoint x="433.7900000000001" y="-364" />
            </Array>
          </mxGeometry>
        </mxCell>
        <mxCell id="pvAUf2AtcfIXl_vQZpps-15" value="mount on React app start" style="text;html=1;align=center;verticalAlign=middle;whiteSpace=wrap;rounded=0;fontSize=16;" vertex="1" parent="1">
          <mxGeometry x="399" y="-380" width="132" height="30" as="geometry" />
        </mxCell>
        <mxCell id="pvAUf2AtcfIXl_vQZpps-16" value="localStorage" style="whiteSpace=wrap;align=center;verticalAlign=middle;fontStyle=1;strokeWidth=3;fillColor=#54d654" vertex="1" parent="1">
          <mxGeometry x="291" y="-337" width="198" height="54" as="geometry" />
        </mxCell>
        <mxCell id="pvAUf2AtcfIXl_vQZpps-17" value="" style="edgeStyle=elbowEdgeStyle;elbow=vertical;strokeColor=#990000;strokeWidth=2;" edge="1" parent="1">
          <mxGeometry width="100" height="100" relative="1" as="geometry">
            <mxPoint x="393.2900000000001" y="-283" as="sourcePoint" />
            <mxPoint x="393" y="-235" as="targetPoint" />
            <Array as="points">
              <mxPoint x="433.7900000000001" y="-260" />
            </Array>
          </mxGeometry>
        </mxCell>
        <mxCell id="pvAUf2AtcfIXl_vQZpps-18" value="try to receive res.cookie() from Backend&amp;nbsp;&lt;div&gt;on React app start&lt;/div&gt;" style="text;html=1;align=center;verticalAlign=middle;whiteSpace=wrap;rounded=0;fontSize=16;" vertex="1" parent="1">
          <mxGeometry x="415" y="-169" width="191" height="30" as="geometry" />
        </mxCell>
        <mxCell id="pvAUf2AtcfIXl_vQZpps-19" value="src/App.js&#xa;&#xa;useEffect(() =&gt; {}, [] )" style="whiteSpace=wrap;align=center;verticalAlign=middle;fontStyle=1;strokeWidth=3;fillColor=#54d654" vertex="1" parent="1">
          <mxGeometry x="291" y="-234" width="198" height="54" as="geometry" />
        </mxCell>
        <mxCell id="pvAUf2AtcfIXl_vQZpps-20" value="" style="edgeStyle=elbowEdgeStyle;elbow=vertical;strokeColor=#990000;strokeWidth=2;" edge="1" parent="1">
          <mxGeometry width="100" height="100" relative="1" as="geometry">
            <mxPoint x="393.9200000000001" y="-180" as="sourcePoint" />
            <mxPoint x="394" y="-128" as="targetPoint" />
            <Array as="points">
              <mxPoint x="434.4200000000001" y="-157" />
            </Array>
          </mxGeometry>
        </mxCell>
        <mxCell id="pvAUf2AtcfIXl_vQZpps-21" value="fetchUserData()" style="whiteSpace=wrap;align=center;verticalAlign=middle;fontStyle=1;strokeWidth=3;fillColor=#54d654" vertex="1" parent="1">
          <mxGeometry x="291" y="-127" width="198" height="54" as="geometry" />
        </mxCell>
        <mxCell id="pvAUf2AtcfIXl_vQZpps-22" value="" style="edgeStyle=elbowEdgeStyle;elbow=vertical;strokeColor=#990000;strokeWidth=2;" edge="1" parent="1">
          <mxGeometry width="100" height="100" relative="1" as="geometry">
            <mxPoint x="393.7300000000001" y="-73" as="sourcePoint" />
            <mxPoint x="393.81" y="-21" as="targetPoint" />
            <Array as="points">
              <mxPoint x="434.2300000000001" y="-50" />
            </Array>
          </mxGeometry>
        </mxCell>
      </root>
    </mxGraphModel>
  </diagram>
  <diagram id="EY08mJ1dDSqNjK0UVvq3" name="React-Props-Drilling">
    <mxGraphModel dx="1848" dy="2085" grid="0" gridSize="10" guides="1" tooltips="1" connect="1" arrows="1" fold="1" page="0" pageScale="1" pageWidth="827" pageHeight="1169" math="0" shadow="0">
      <root>
        <mxCell id="0" />
        <mxCell id="1" parent="0" />
        <mxCell id="MCnZI3LAJU9WZ1sBTpkE-1" value="React Props Drilling&amp;nbsp;&lt;div&gt;(not so scalable...)&lt;/div&gt;" style="text;strokeColor=none;fillColor=none;html=1;fontSize=24;fontStyle=1;verticalAlign=middle;align=center;" vertex="1" parent="1">
          <mxGeometry x="141" y="-573" width="100" height="40" as="geometry" />
        </mxCell>
        <mxCell id="VMtGETKYwHYaoaxfFqjM-1" value="src/App.js&#xa;&#xa;passing state &amp; callbacks&#xa;as props to children&#xa;&#xa;state.user: {}&#xa;state.isSignedIn: false&#xa;saveUser(() =&gt; {})&#xa;onRouteChange(() =&gt; {})" style="whiteSpace=wrap;align=center;verticalAlign=middle;fontStyle=1;strokeWidth=3;fillColor=#FFA500" vertex="1" parent="1">
          <mxGeometry x="92" y="-470" width="198" height="132" as="geometry" />
        </mxCell>
        <mxCell id="y4QMML2kqAQ3tt9HAZyl-1" value="&lt;Home&#xa;user={state.user}&#xa;isSignedIn={isSignedIn}&#xa;saveUser={saveUser}&#xa;onRouteChange={onRouteChange}&#xa;/&gt;" style="whiteSpace=wrap;align=center;verticalAlign=middle;fontStyle=1;strokeWidth=3;fillColor=#FFA500" vertex="1" parent="1">
          <mxGeometry x="-457" y="-233" width="198" height="172" as="geometry" />
        </mxCell>
        <mxCell id="y4QMML2kqAQ3tt9HAZyl-3" value="&lt;CheckRecordsPanel&#xa;&#xa;user={user}&#xa;isSignedIn={isSignedIn}&#xa;saveUser={saveUser}&#xa;onRouteChange={onRouteChange}&#xa;&#xa;/&gt;" style="whiteSpace=wrap;align=center;verticalAlign=middle;fontStyle=1;strokeWidth=3;fillColor=#FFA500" vertex="1" parent="1">
          <mxGeometry x="-457" y="14" width="198" height="144" as="geometry" />
        </mxCell>
        <mxCell id="Cd1FvMZp3s-Q_91qcesT-1" value="" style="shape=partialRectangle;whiteSpace=wrap;html=1;bottom=1;right=1;left=1;top=0;fillColor=none;routingCenterX=-0.5;direction=west;" vertex="1" parent="1">
          <mxGeometry x="-358" y="-306" width="988" height="1" as="geometry" />
        </mxCell>
        <mxCell id="Cd1FvMZp3s-Q_91qcesT-2" value="" style="line;strokeWidth=2;direction=south;html=1;" vertex="1" parent="1">
          <mxGeometry x="186" y="-338" width="10" height="32" as="geometry" />
        </mxCell>
        <mxCell id="Cd1FvMZp3s-Q_91qcesT-4" value="" style="edgeStyle=elbowEdgeStyle;elbow=vertical;strokeColor=#990000;strokeWidth=2;exitX=1;exitY=0;exitDx=0;exitDy=0;" edge="1" parent="1">
          <mxGeometry width="100" height="100" relative="1" as="geometry">
            <mxPoint x="-358.9100000000011" y="-304.9999999999998" as="sourcePoint" />
            <mxPoint x="-357.85" y="-231" as="targetPoint" />
            <Array as="points">
              <mxPoint x="-317.40999999999997" y="-254" />
            </Array>
          </mxGeometry>
        </mxCell>
        <mxCell id="Cd1FvMZp3s-Q_91qcesT-5" value="" style="edgeStyle=elbowEdgeStyle;elbow=vertical;strokeColor=#990000;strokeWidth=2;entryX=0.5;entryY=0;entryDx=0;entryDy=0;" edge="1" parent="1">
          <mxGeometry width="100" height="100" relative="1" as="geometry">
            <mxPoint x="630" y="-306" as="sourcePoint" />
            <mxPoint x="630.5599999999997" y="-231" as="targetPoint" />
            <Array as="points">
              <mxPoint x="670.5" y="-283" />
            </Array>
          </mxGeometry>
        </mxCell>
        <mxCell id="Cd1FvMZp3s-Q_91qcesT-7" value="&lt;Signin&#xa;user={state.user}&#xa;isSignedIn={isSignedIn}&#xa;saveUser={saveUser}&#xa;onRouteChange={onRouteChange}&#xa;/&gt;" style="whiteSpace=wrap;align=center;verticalAlign=middle;fontStyle=1;strokeWidth=3;fillColor=#FFA500" vertex="1" parent="1">
          <mxGeometry x="92" y="-231" width="198" height="170" as="geometry" />
        </mxCell>
        <mxCell id="Cd1FvMZp3s-Q_91qcesT-8" value="&lt;Register&#xa;user={state.user}&#xa;isSignedIn={isSignedIn}&#xa;saveUser={saveUser}&#xa;&#xa;onRouteChange={onRouteChange}&#xa;&#xa;fetchUserData={fetchUserData}&#xa;/&gt;" style="whiteSpace=wrap;align=center;verticalAlign=middle;fontStyle=1;strokeWidth=3;fillColor=#FFA500" vertex="1" parent="1">
          <mxGeometry x="530" y="-229" width="198" height="170" as="geometry" />
        </mxCell>
        <mxCell id="Cd1FvMZp3s-Q_91qcesT-10" value="" style="line;strokeWidth=2;direction=south;html=1;" vertex="1" parent="1">
          <mxGeometry x="-364" y="158" width="10" height="32" as="geometry" />
        </mxCell>
        <mxCell id="Cd1FvMZp3s-Q_91qcesT-11" value="" style="shape=partialRectangle;whiteSpace=wrap;html=1;bottom=1;right=1;left=1;top=0;fillColor=none;routingCenterX=-0.5;direction=west;" vertex="1" parent="1">
          <mxGeometry x="-576" y="190" width="432" height="1" as="geometry" />
        </mxCell>
        <mxCell id="Cd1FvMZp3s-Q_91qcesT-12" value="" style="edgeStyle=elbowEdgeStyle;elbow=vertical;strokeColor=#990000;strokeWidth=2;exitX=1;exitY=0;exitDx=0;exitDy=0;" edge="1" parent="1">
          <mxGeometry width="100" height="100" relative="1" as="geometry">
            <mxPoint x="-359.00000000000114" y="-58.99999999999977" as="sourcePoint" />
            <mxPoint x="-359" y="12" as="targetPoint" />
            <Array as="points">
              <mxPoint x="-317.49999999999994" y="-8" />
            </Array>
          </mxGeometry>
        </mxCell>
        <mxCell id="Cd1FvMZp3s-Q_91qcesT-13" value="" style="edgeStyle=elbowEdgeStyle;elbow=vertical;strokeColor=#990000;strokeWidth=2;entryX=0.483;entryY=0.003;entryDx=0;entryDy=0;entryPerimeter=0;exitX=1;exitY=0.75;exitDx=0;exitDy=0;" edge="1" parent="1" source="Cd1FvMZp3s-Q_91qcesT-11" target="Cd1FvMZp3s-Q_91qcesT-16">
          <mxGeometry width="100" height="100" relative="1" as="geometry">
            <mxPoint x="-578" y="187" as="sourcePoint" />
            <mxPoint x="-573" y="260" as="targetPoint" />
            <Array as="points">
              <mxPoint x="-532.5" y="241" />
            </Array>
          </mxGeometry>
        </mxCell>
        <mxCell id="Cd1FvMZp3s-Q_91qcesT-15" value="" style="edgeStyle=elbowEdgeStyle;elbow=vertical;strokeColor=#990000;strokeWidth=2;exitX=1;exitY=0;exitDx=0;exitDy=0;entryX=0.5;entryY=0;entryDx=0;entryDy=0;" edge="1" parent="1" target="Cd1FvMZp3s-Q_91qcesT-18">
          <mxGeometry width="100" height="100" relative="1" as="geometry">
            <mxPoint x="-144.56000000000114" y="190.00000000000023" as="sourcePoint" />
            <mxPoint x="-145" y="261" as="targetPoint" />
            <Array as="points">
              <mxPoint x="-103.05999999999995" y="241" />
            </Array>
          </mxGeometry>
        </mxCell>
        <mxCell id="Cd1FvMZp3s-Q_91qcesT-16" value="&lt;FaceRecognition&#xa;&#xa;user={user}&#xa;onRouteChange={onRouteChange}&#xa;&#xa;/&gt;" style="whiteSpace=wrap;align=center;verticalAlign=middle;fontStyle=1;strokeWidth=3;fillColor=#FFA500" vertex="1" parent="1">
          <mxGeometry x="-671" y="265" width="198" height="131" as="geometry" />
        </mxCell>
        <mxCell id="Cd1FvMZp3s-Q_91qcesT-17" value="&lt;ColorRecognition&#xa;&#xa;user={user}&#xa;onRouteChange={onRouteChange}&#xa;&#xa;/&gt;" style="whiteSpace=wrap;align=center;verticalAlign=middle;fontStyle=1;strokeWidth=3;fillColor=#FFA500" vertex="1" parent="1">
          <mxGeometry x="-457" y="265" width="198" height="131" as="geometry" />
        </mxCell>
        <mxCell id="Cd1FvMZp3s-Q_91qcesT-18" value="&lt;AgeRecognition&#xa;&#xa;user={user}&#xa;onRouteChange={onRouteChange}&#xa;&#xa;/&gt;" style="whiteSpace=wrap;align=center;verticalAlign=middle;fontStyle=1;strokeWidth=3;fillColor=#FFA500" vertex="1" parent="1">
          <mxGeometry x="-243" y="265" width="198" height="131" as="geometry" />
        </mxCell>
        <mxCell id="Cd1FvMZp3s-Q_91qcesT-19" value="" style="edgeStyle=elbowEdgeStyle;elbow=vertical;strokeColor=#990000;strokeWidth=2;exitX=1;exitY=0.75;exitDx=0;exitDy=0;entryX=0.5;entryY=0;entryDx=0;entryDy=0;" edge="1" parent="1" target="Cd1FvMZp3s-Q_91qcesT-17">
          <mxGeometry width="100" height="100" relative="1" as="geometry">
            <mxPoint x="-358.5" y="191" as="sourcePoint" />
            <mxPoint x="-361" y="263" as="targetPoint" />
            <Array as="points">
              <mxPoint x="-315" y="242" />
            </Array>
          </mxGeometry>
        </mxCell>
        <mxCell id="Cd1FvMZp3s-Q_91qcesT-20" value="" style="edgeStyle=elbowEdgeStyle;elbow=vertical;strokeColor=#990000;strokeWidth=2;exitX=1;exitY=0;exitDx=0;exitDy=0;entryX=0.5;entryY=0;entryDx=0;entryDy=0;" edge="1" parent="1" target="Cd1FvMZp3s-Q_91qcesT-7">
          <mxGeometry width="100" height="100" relative="1" as="geometry">
            <mxPoint x="190.7799999999989" y="-305.9999999999998" as="sourcePoint" />
            <mxPoint x="190.78000000000003" y="-235" as="targetPoint" />
            <Array as="points">
              <mxPoint x="232.2800000000001" y="-255" />
            </Array>
          </mxGeometry>
        </mxCell>
        <mxCell id="Cd1FvMZp3s-Q_91qcesT-23" value="" style="edgeStyle=elbowEdgeStyle;elbow=vertical;strokeColor=#990000;strokeWidth=2;exitX=1;exitY=0;exitDx=0;exitDy=0;entryX=0.5;entryY=0;entryDx=0;entryDy=0;" edge="1" parent="1">
          <mxGeometry width="100" height="100" relative="1" as="geometry">
            <mxPoint x="190.28999999999888" y="-60.99999999999977" as="sourcePoint" />
            <mxPoint x="190.51" y="14" as="targetPoint" />
            <Array as="points">
              <mxPoint x="231.79000000000008" y="-10" />
            </Array>
          </mxGeometry>
        </mxCell>
        <mxCell id="Cd1FvMZp3s-Q_91qcesT-24" value="&lt;button&#xa;onClick={() =&gt;&#xa; onRouteChange(&#39;register&#39;);&#xa;}&#xa;&#xa;className={`${classes.signinBtn}`}&#xa;type=&quot;submit&quot;&#xa;value=&quot;Register&quot;&#xa;/&gt;" style="whiteSpace=wrap;align=center;verticalAlign=middle;fontStyle=1;strokeWidth=3;fillColor=#FFA500" vertex="1" parent="1">
          <mxGeometry x="92" y="17" width="198" height="160" as="geometry" />
        </mxCell>
        <mxCell id="Cd1FvMZp3s-Q_91qcesT-25" value="" style="edgeStyle=elbowEdgeStyle;elbow=vertical;strokeColor=#990000;strokeWidth=2;exitX=1;exitY=0;exitDx=0;exitDy=0;entryX=0.5;entryY=0;entryDx=0;entryDy=0;" edge="1" parent="1">
          <mxGeometry width="100" height="100" relative="1" as="geometry">
            <mxPoint x="629.9999999999989" y="-58.99999999999977" as="sourcePoint" />
            <mxPoint x="630.22" y="16" as="targetPoint" />
            <Array as="points">
              <mxPoint x="671.5" y="-8" />
            </Array>
          </mxGeometry>
        </mxCell>
        <mxCell id="Cd1FvMZp3s-Q_91qcesT-26" value="onSubmitRegister = (event) =&gt; {&#xa;&#xa;event.preventDefault();&#xa;&#xa;fetch(someUrl, {})&#xa;.then((response) =&gt; response.json())&#xa;.then((user) =&gt; {&#xa;if (user.id) {&#xa;this.props.saveUser(user);&#xa;this.props.fetchUserData();&#xa;this.props.onRouteChange(&#39;home&#39;);&#xa;} else {&#xa;this.props.onRouteChange(&#39;register&#39;);&#xa;...&#xa;}&#xa;)&#xa;.catch((err) =&gt; console.error(err));" style="whiteSpace=wrap;align=center;verticalAlign=middle;fontStyle=1;strokeWidth=3;fillColor=#FFA500" vertex="1" parent="1">
          <mxGeometry x="512" y="17" width="234" height="290" as="geometry" />
        </mxCell>
      </root>
    </mxGraphModel>
  </diagram>
  <diagram id="kAfnE2lA82NqTMhooN2a" name="React-Context-API">
    <mxGraphModel dx="1639" dy="1828" grid="0" gridSize="10" guides="1" tooltips="1" connect="1" arrows="1" fold="1" page="0" pageScale="1" pageWidth="827" pageHeight="1169" math="0" shadow="0">
      <root>
        <mxCell id="0" />
        <mxCell id="1" parent="0" />
        <mxCell id="dlgSHSZIbhUHeUyNe5U7-1" value="React Context API&amp;nbsp;&lt;div&gt;(Across entire app = Scalable)&lt;/div&gt;" style="text;strokeColor=none;fillColor=none;html=1;fontSize=24;fontStyle=1;verticalAlign=middle;align=center;" vertex="1" parent="1">
          <mxGeometry x="177" y="-536" width="100" height="40" as="geometry" />
        </mxCell>
        <mxCell id="s_pKm7QOCmyVHdwKzLUN-1" value="src/App.js&#xa;&#xa;import &lt;UserContext /&gt;&#xa;&#xa;&lt;Home &#xa;props1={props1}&#xa;prop2={props2}&#xa;...&#xa;/&gt;&#xa;&#xa;&lt;Signin &#xa;props1={props1}&#xa;props2={props2}&#xa;/&gt;&#xa;&#xa;&lt;CheckRecordPanel&#xa;props1={props1}&#xa;props2={props2}&#xa;/&gt;&#xa;&lt;AgeRecords&#xa;props1={props1}&#xa;props2={props2}&#xa;/&gt;&#xa;" style="whiteSpace=wrap;align=center;verticalAlign=middle;fontStyle=1;strokeWidth=3;fillColor=#FFA500" vertex="1" parent="1">
          <mxGeometry x="-155.5" y="-352" width="198" height="387" as="geometry" />
        </mxCell>
        <mxCell id="POxaCQAOhsF4Dz0Zg09l-1" value="" style="edgeStyle=elbowEdgeStyle;elbow=vertical;strokeColor=#990000;strokeWidth=2;exitX=1;exitY=0.5;exitDx=0;exitDy=0;entryX=0;entryY=0.5;entryDx=0;entryDy=0;" edge="1" parent="1">
          <mxGeometry width="100" height="100" relative="1" as="geometry">
            <mxPoint x="45" y="-202.17000000000002" as="sourcePoint" />
            <mxPoint x="438" y="-202.17000000000002" as="targetPoint" />
            <Array as="points">
              <mxPoint x="425" y="-202.17000000000002" />
            </Array>
          </mxGeometry>
        </mxCell>
        <mxCell id="POxaCQAOhsF4Dz0Zg09l-2" value="src/shared/context/&#xa;user-context.js&#xa;&#xa;&lt;UserContext /&gt;&#xa;&#xa;user: {}&#xa;isSignedIn: false&#xa;saveUser: () =&gt; {}&#xa;resetUser: () =&gt; {}&#xa;onRouteChange: () =&gt; {}&#xa;fetchUserData: () =&gt; {}&#xa;" style="whiteSpace=wrap;align=center;verticalAlign=middle;fontStyle=1;strokeWidth=3;fillColor=#FFA500" vertex="1" parent="1">
          <mxGeometry x="443" y="-317.5" width="198" height="232" as="geometry" />
        </mxCell>
        <mxCell id="bIz0t-GqbV_3YA8UQxsX-1" value="Now we can stop&lt;div&gt;Messy Props Drilling!&lt;/div&gt;" style="text;html=1;align=center;verticalAlign=middle;whiteSpace=wrap;rounded=0;fontSize=16;" vertex="1" parent="1">
          <mxGeometry x="-158" y="-426" width="203" height="74" as="geometry" />
        </mxCell>
        <mxCell id="bIz0t-GqbV_3YA8UQxsX-2" value="Wrapping &amp;lt;Home /&amp;gt;&lt;div&gt;&lt;br&gt;&lt;/div&gt;" style="text;html=1;align=center;verticalAlign=middle;whiteSpace=wrap;rounded=0;fontSize=16;" vertex="1" parent="1">
          <mxGeometry x="-709.5" y="163" width="203" height="40" as="geometry" />
        </mxCell>
        <mxCell id="z1IL9TBVZMmrIyuY0z6R-1" value="" style="shape=partialRectangle;whiteSpace=wrap;html=1;bottom=1;right=1;left=1;top=0;fillColor=none;routingCenterX=-0.5;direction=west;" vertex="1" parent="1">
          <mxGeometry x="-609.09" y="65" width="1235.09" height="1" as="geometry" />
        </mxCell>
        <mxCell id="z1IL9TBVZMmrIyuY0z6R-2" value="" style="line;strokeWidth=2;direction=south;html=1;" vertex="1" parent="1">
          <mxGeometry x="-65.09" y="36" width="10" height="28" as="geometry" />
        </mxCell>
        <mxCell id="z1IL9TBVZMmrIyuY0z6R-3" value="" style="edgeStyle=elbowEdgeStyle;elbow=vertical;strokeColor=#990000;strokeWidth=2;exitX=1;exitY=0;exitDx=0;exitDy=0;" edge="1" parent="1">
          <mxGeometry width="100" height="100" relative="1" as="geometry">
            <mxPoint x="-610.0000000000011" y="66.00000000000023" as="sourcePoint" />
            <mxPoint x="-608.94" y="140" as="targetPoint" />
            <Array as="points">
              <mxPoint x="-568.5" y="117" />
            </Array>
          </mxGeometry>
        </mxCell>
        <mxCell id="z1IL9TBVZMmrIyuY0z6R-4" value="" style="edgeStyle=elbowEdgeStyle;elbow=vertical;strokeColor=#990000;strokeWidth=2;entryX=0.5;entryY=0;entryDx=0;entryDy=0;" edge="1" parent="1">
          <mxGeometry width="100" height="100" relative="1" as="geometry">
            <mxPoint x="-118.68000000000004" y="67" as="sourcePoint" />
            <mxPoint x="-118.12000000000032" y="142" as="targetPoint" />
            <Array as="points">
              <mxPoint x="-78.18000000000004" y="90" />
            </Array>
          </mxGeometry>
        </mxCell>
        <mxCell id="z1IL9TBVZMmrIyuY0z6R-5" value="" style="edgeStyle=elbowEdgeStyle;elbow=vertical;strokeColor=#990000;strokeWidth=2;exitX=1;exitY=0;exitDx=0;exitDy=0;entryX=0.5;entryY=0;entryDx=0;entryDy=0;" edge="1" parent="1">
          <mxGeometry width="100" height="100" relative="1" as="geometry">
            <mxPoint x="-366.8100000000011" y="68.00000000000023" as="sourcePoint" />
            <mxPoint x="-366.59000000000003" y="143" as="targetPoint" />
            <Array as="points">
              <mxPoint x="-325.30999999999995" y="119" />
            </Array>
          </mxGeometry>
        </mxCell>
        <mxCell id="z1IL9TBVZMmrIyuY0z6R-6" value="Wrapping &amp;lt;Signin /&amp;gt;&amp;nbsp;&lt;div&gt;&lt;br&gt;&lt;/div&gt;" style="text;html=1;align=center;verticalAlign=middle;whiteSpace=wrap;rounded=0;fontSize=16;" vertex="1" parent="1">
          <mxGeometry x="-462" y="163" width="203" height="44" as="geometry" />
        </mxCell>
        <mxCell id="z1IL9TBVZMmrIyuY0z6R-8" value="Wrapping &amp;lt;Register /&amp;gt;&amp;nbsp;" style="text;html=1;align=center;verticalAlign=middle;whiteSpace=wrap;rounded=0;fontSize=16;" vertex="1" parent="1">
          <mxGeometry x="-216.00000000000006" y="138" width="203" height="74" as="geometry" />
        </mxCell>
        <mxCell id="EKG07mXLgepvu1CnnFCz-1" value="" style="edgeStyle=elbowEdgeStyle;elbow=vertical;strokeColor=#990000;strokeWidth=2;exitX=0;exitY=0.5;exitDx=0;exitDy=0;entryX=1;entryY=0.5;entryDx=0;entryDy=0;" edge="1" parent="1">
          <mxGeometry width="100" height="100" relative="1" as="geometry">
            <mxPoint x="435.5" y="-202.20999999999998" as="sourcePoint" />
            <mxPoint x="42.5" y="-202.20999999999998" as="targetPoint" />
            <Array as="points">
              <mxPoint x="267.5" y="-202.20999999999998" />
            </Array>
          </mxGeometry>
        </mxCell>
        <mxCell id="EKG07mXLgepvu1CnnFCz-2" value="" style="edgeStyle=elbowEdgeStyle;elbow=vertical;strokeColor=#990000;strokeWidth=2;entryX=0.5;entryY=0;entryDx=0;entryDy=0;" edge="1" parent="1">
          <mxGeometry width="100" height="100" relative="1" as="geometry">
            <mxPoint x="132" y="65" as="sourcePoint" />
            <mxPoint x="131.5" y="136" as="targetPoint" />
            <Array as="points">
              <mxPoint x="172.7800000000001" y="112" />
            </Array>
          </mxGeometry>
        </mxCell>
        <mxCell id="EKG07mXLgepvu1CnnFCz-3" value="Wrapping&amp;nbsp;&lt;div&gt;&amp;lt;CheckRecordsPanel /&amp;gt;&amp;lt;CelebrityRecords /&amp;gt;&amp;nbsp;&lt;/div&gt;" style="text;html=1;align=center;verticalAlign=middle;whiteSpace=wrap;rounded=0;fontSize=16;" vertex="1" parent="1">
          <mxGeometry x="29" y="139" width="203" height="74" as="geometry" />
        </mxCell>
        <mxCell id="EKG07mXLgepvu1CnnFCz-4" value="&lt;UserContext.Provider&#xa;value={{&#xa;props1={props1},&#xa;props2={props2},&#xa;...&#xa;}}&#xa;/&gt;&#xa;&#xa;&lt;CheckRecordsPanel /&gt;&#xa;&lt;CelebrityRecords /&gt;&#xa;&#xa;&lt;/UserContext.Provider /&gt;" style="whiteSpace=wrap;align=center;verticalAlign=middle;fontStyle=1;strokeWidth=3;fillColor=#FFA500" vertex="1" parent="1">
          <mxGeometry x="36.09000000000003" y="212" width="198" height="387" as="geometry" />
        </mxCell>
        <mxCell id="EKG07mXLgepvu1CnnFCz-5" value="" style="edgeStyle=elbowEdgeStyle;elbow=vertical;strokeColor=#990000;strokeWidth=2;entryX=0.5;entryY=0;entryDx=0;entryDy=0;" edge="1" parent="1">
          <mxGeometry width="100" height="100" relative="1" as="geometry">
            <mxPoint x="374.90999999999997" y="65" as="sourcePoint" />
            <mxPoint x="374.40999999999997" y="136" as="targetPoint" />
            <Array as="points">
              <mxPoint x="415.69000000000005" y="112" />
            </Array>
          </mxGeometry>
        </mxCell>
        <mxCell id="EKG07mXLgepvu1CnnFCz-6" value="Wrapping&amp;nbsp;&lt;div&gt;&amp;lt;CheckRecordsPanel /&amp;gt;&lt;/div&gt;&lt;div&gt;&amp;lt;ColorRecords /&amp;gt;&amp;nbsp;&lt;div&gt;&lt;br&gt;&lt;/div&gt;&lt;/div&gt;" style="text;html=1;align=center;verticalAlign=middle;whiteSpace=wrap;rounded=0;fontSize=16;" vertex="1" parent="1">
          <mxGeometry x="277" y="147" width="203" height="74" as="geometry" />
        </mxCell>
        <mxCell id="EKG07mXLgepvu1CnnFCz-8" value="" style="edgeStyle=elbowEdgeStyle;elbow=vertical;strokeColor=#990000;strokeWidth=2;entryX=0.5;entryY=0;entryDx=0;entryDy=0;" edge="1" parent="1">
          <mxGeometry width="100" height="100" relative="1" as="geometry">
            <mxPoint x="625.91" y="65" as="sourcePoint" />
            <mxPoint x="625.41" y="136" as="targetPoint" />
            <Array as="points">
              <mxPoint x="666.69" y="112" />
            </Array>
          </mxGeometry>
        </mxCell>
        <mxCell id="EKG07mXLgepvu1CnnFCz-9" value="Wrapping&amp;nbsp;&lt;div&gt;&amp;lt;CheckRecordsPanel /&amp;gt;&lt;/div&gt;&lt;div&gt;&amp;lt;AgeRecords /&amp;gt;&amp;nbsp;&lt;div&gt;&lt;br&gt;&lt;/div&gt;&lt;/div&gt;" style="text;html=1;align=center;verticalAlign=middle;whiteSpace=wrap;rounded=0;fontSize=16;" vertex="1" parent="1">
          <mxGeometry x="527" y="144" width="203" height="74" as="geometry" />
        </mxCell>
        <mxCell id="ynB3JlAaVvBzPWQdGelP-1" value="Central Store&lt;div&gt;&amp;lt;UserContext /&amp;gt;&lt;/div&gt;" style="text;html=1;align=center;verticalAlign=middle;whiteSpace=wrap;rounded=0;fontSize=16;" vertex="1" parent="1">
          <mxGeometry x="445" y="-394" width="203" height="74" as="geometry" />
        </mxCell>
        <mxCell id="Nojhkp8dd9Enci0DhgiO-3" value="&lt;UserContext.Provider&#xa;value={{&#xa;props1={props1},&#xa;props2={props2},&#xa;...&#xa;}}&#xa;/&gt;&#xa;&#xa;&lt;Register /&gt;&#xa;&#xa;&lt;/UserContext.Provider /&gt;" style="whiteSpace=wrap;align=center;verticalAlign=middle;fontStyle=1;strokeWidth=3;fillColor=#FFA500" vertex="1" parent="1">
          <mxGeometry x="-213.49999999999994" y="212" width="198" height="387" as="geometry" />
        </mxCell>
        <mxCell id="Nojhkp8dd9Enci0DhgiO-4" value="&lt;UserContext.Provider&#xa;value={{&#xa;props1={props1},&#xa;props2={props2},&#xa;...&#xa;}}&#xa;/&gt;&#xa;&#xa;&lt;Signin /&gt;&#xa;&#xa;&lt;/UserContext.Provider /&gt;" style="whiteSpace=wrap;align=center;verticalAlign=middle;fontStyle=1;strokeWidth=3;fillColor=#FFA500" vertex="1" parent="1">
          <mxGeometry x="-456.99999999999994" y="212" width="198" height="387" as="geometry" />
        </mxCell>
        <mxCell id="Nojhkp8dd9Enci0DhgiO-5" value="&lt;UserContext.Provider&#xa;value={{&#xa;props1={props1},&#xa;props2={props2},&#xa;...&#xa;}}&#xa;/&gt;&#xa;&#xa;&lt;CheckRecordsPanel /&gt;&#xa;&lt;ColorRecords /&gt;&#xa;&#xa;&lt;/UserContext.Provider /&gt;" style="whiteSpace=wrap;align=center;verticalAlign=middle;fontStyle=1;strokeWidth=3;fillColor=#FFA500" vertex="1" parent="1">
          <mxGeometry x="279.5" y="213" width="198" height="387" as="geometry" />
        </mxCell>
        <mxCell id="Nojhkp8dd9Enci0DhgiO-6" value="&lt;UserContext.Provider&#xa;value={{&#xa;props1={props1},&#xa;props2={props2},&#xa;...&#xa;}}&#xa;/&gt;&#xa;&#xa;&lt;CheckRecordsPanel /&gt;&#xa;&lt;AgeRecords /&gt;&#xa;&#xa;&lt;/UserContext.Provider /&gt;" style="whiteSpace=wrap;align=center;verticalAlign=middle;fontStyle=1;strokeWidth=3;fillColor=#FFA500" vertex="1" parent="1">
          <mxGeometry x="529.5" y="212" width="198" height="387" as="geometry" />
        </mxCell>
        <mxCell id="6BiUzeo7ORM38XNeDuyM-1" value="&lt;UserContext.Provider&#xa;value={{&#xa;props1={props1},&#xa;props2={props2},&#xa;...&#xa;}}&#xa;/&gt;&#xa;&#xa;&lt;Home /&gt;&#xa;&#xa;&lt;/UserContext.Provider /&gt;" style="whiteSpace=wrap;align=center;verticalAlign=middle;fontStyle=1;strokeWidth=3;fillColor=#FFA500" vertex="1" parent="1">
          <mxGeometry x="-707" y="212" width="198" height="387" as="geometry" />
        </mxCell>
      </root>
    </mxGraphModel>
  </diagram>
  <diagram name="App2-e-shop" id="c7558073-3199-34d8-9f00-42111426c3f3">
    <mxGraphModel dx="790" dy="721" grid="1" gridSize="10" guides="1" tooltips="1" connect="1" arrows="1" fold="1" page="1" pageScale="1" pageWidth="826" pageHeight="1169" background="none" math="0" shadow="0">
      <root>
        <mxCell id="0" />
        <mxCell id="1" parent="0" />
        <mxCell id="4" value="Product" style="whiteSpace=wrap;align=center;color=#ffffff;verticalAlign=middle;fontStyle=1;strokeWidth=3;color:#ffffff;fillColor=#52a814" parent="1" vertex="1">
          <mxGeometry x="125" y="130" width="150" height="60" as="geometry" />
        </mxCell>
        <mxCell id="3EyGi4chusO32zPadXUX-97" value="Associations" style="text;strokeColor=none;fillColor=none;html=1;fontSize=24;fontStyle=1;verticalAlign=middle;align=center;" parent="1" vertex="1">
          <mxGeometry x="351" y="40" width="100" height="40" as="geometry" />
        </mxCell>
        <mxCell id="3EyGi4chusO32zPadXUX-98" value="Cart" style="whiteSpace=wrap;align=center;color=#ffffff;verticalAlign=middle;fontStyle=1;strokeWidth=3;fillColor=#52a814" parent="1" vertex="1">
          <mxGeometry x="326" y="300" width="150" height="60" as="geometry" />
        </mxCell>
        <mxCell id="3EyGi4chusO32zPadXUX-99" value="Belongs to Many&lt;div&gt;(through&lt;/div&gt;&lt;div&gt;CartItem table)&lt;/div&gt;" style="text;html=1;align=center;verticalAlign=middle;whiteSpace=wrap;rounded=0;fontSize=16;" parent="1" vertex="1">
          <mxGeometry x="188" y="285" width="151" height="30" as="geometry" />
        </mxCell>
        <mxCell id="3EyGi4chusO32zPadXUX-100" value="Order" style="whiteSpace=wrap;align=center;color=#ffffff;verticalAlign=middle;fontStyle=1;strokeWidth=3;fillColor=#52a814" parent="1" vertex="1">
          <mxGeometry x="326" y="449" width="150" height="60" as="geometry" />
        </mxCell>
        <mxCell id="3EyGi4chusO32zPadXUX-101" value="User" style="whiteSpace=wrap;align=center;color=#ffffff;verticalAlign=middle;fontStyle=1;strokeWidth=3;fillColor=#52a814" parent="1" vertex="1">
          <mxGeometry x="510" y="130" width="150" height="60" as="geometry" />
        </mxCell>
        <mxCell id="3EyGi4chusO32zPadXUX-102" value="users" style="sketch=0;outlineConnect=0;gradientColor=none;fontColor=#545B64;strokeColor=none;fillColor=#FFA500;dashed=0;verticalLabelPosition=bottom;verticalAlign=top;align=center;html=1;fontSize=12;fontStyle=0;aspect=fixed;shape=mxgraph.aws4.illustration_users;pointerEvents=1" parent="1" vertex="1">
          <mxGeometry x="670" y="130" width="60" height="60" as="geometry" />
        </mxCell>
        <mxCell id="Kog3n9qUCnCSv2moTLmO-87" value="" style="sketch=0;pointerEvents=1;shadow=0;dashed=0;html=1;strokeColor=none;fillColor=#FFA500;labelPosition=center;verticalLabelPosition=bottom;verticalAlign=top;align=center;outlineConnect=0;shape=mxgraph.veeam2.transport;" parent="1" vertex="1">
          <mxGeometry x="370" y="380" width="60" height="61" as="geometry" />
        </mxCell>
        <mxCell id="l168HmzLk8C-btFZJXnc-87" value="" style="sketch=0;outlineConnect=0;fontColor=#232F3E;gradientColor=none;fillColor=#FFA500;strokeColor=none;dashed=0;verticalLabelPosition=bottom;verticalAlign=top;align=center;html=1;fontSize=12;fontStyle=0;aspect=fixed;pointerEvents=1;shape=mxgraph.aws4.marketplace;" parent="1" vertex="1">
          <mxGeometry x="372" y="230" width="58" height="58" as="geometry" />
        </mxCell>
        <mxCell id="VPUBKmxB5RTpH3kcg-Hp-87" value="" style="edgeStyle=elbowEdgeStyle;elbow=vertical;strokeColor=#990000;strokeWidth=2;exitX=0.597;exitY=0.984;exitDx=0;exitDy=0;exitPerimeter=0;entryX=0.139;entryY=1;entryDx=0;entryDy=0;entryPerimeter=0;" parent="1" target="VPUBKmxB5RTpH3kcg-Hp-88" edge="1">
          <mxGeometry width="100" height="100" relative="1" as="geometry">
            <mxPoint x="601.55" y="189.03999999999996" as="sourcePoint" />
            <mxPoint x="482" y="330" as="targetPoint" />
            <Array as="points">
              <mxPoint x="542" y="330" />
            </Array>
          </mxGeometry>
        </mxCell>
        <mxCell id="VPUBKmxB5RTpH3kcg-Hp-88" value="Has One" style="text;html=1;align=center;verticalAlign=middle;whiteSpace=wrap;rounded=0;fontSize=16;" parent="1" vertex="1">
          <mxGeometry x="455" y="300" width="151" height="30" as="geometry" />
        </mxCell>
        <mxCell id="VPUBKmxB5RTpH3kcg-Hp-89" value="" style="edgeStyle=elbowEdgeStyle;elbow=vertical;strokeColor=#990000;strokeWidth=2;entryX=1;entryY=0.5;entryDx=0;entryDy=0;" parent="1" edge="1">
          <mxGeometry width="100" height="100" relative="1" as="geometry">
            <mxPoint x="601" y="280" as="sourcePoint" />
            <mxPoint x="478.0000000000002" y="479" as="targetPoint" />
            <Array as="points">
              <mxPoint x="606" y="479" />
            </Array>
          </mxGeometry>
        </mxCell>
        <mxCell id="VPUBKmxB5RTpH3kcg-Hp-91" value="Belongs to Many&lt;div&gt;(through&lt;/div&gt;&lt;div&gt;OrderItem table)&lt;/div&gt;" style="text;html=1;align=center;verticalAlign=middle;whiteSpace=wrap;rounded=0;fontSize=16;" parent="1" vertex="1">
          <mxGeometry x="188" y="430" width="151" height="30" as="geometry" />
        </mxCell>
        <mxCell id="VPUBKmxB5RTpH3kcg-Hp-92" value="Has Many" style="text;html=1;align=center;verticalAlign=middle;whiteSpace=wrap;rounded=0;fontSize=16;" parent="1" vertex="1">
          <mxGeometry x="460" y="449" width="151" height="30" as="geometry" />
        </mxCell>
        <mxCell id="vxFXMxXUswnL_ZNOBUD4-87" value="" style="edgeStyle=elbowEdgeStyle;elbow=vertical;strokeColor=#990000;strokeWidth=2;exitX=0;exitY=0.5;exitDx=0;exitDy=0;entryX=1;entryY=0.5;entryDx=0;entryDy=0;" parent="1" source="3EyGi4chusO32zPadXUX-101" target="4" edge="1">
          <mxGeometry width="100" height="100" relative="1" as="geometry">
            <mxPoint x="610" y="210" as="sourcePoint" />
            <mxPoint x="280" y="160" as="targetPoint" />
            <Array as="points">
              <mxPoint x="380" y="160" />
            </Array>
          </mxGeometry>
        </mxCell>
        <mxCell id="vxFXMxXUswnL_ZNOBUD4-88" value="Has Many" style="text;html=1;align=center;verticalAlign=middle;whiteSpace=wrap;rounded=0;fontSize=16;" parent="1" vertex="1">
          <mxGeometry x="324.5" y="130" width="151" height="30" as="geometry" />
        </mxCell>
        <mxCell id="vxFXMxXUswnL_ZNOBUD4-89" value="" style="edgeStyle=elbowEdgeStyle;elbow=vertical;strokeColor=#990000;strokeWidth=2;exitX=0.893;exitY=1.039;exitDx=0;exitDy=0;exitPerimeter=0;" parent="1" edge="1">
          <mxGeometry width="100" height="100" relative="1" as="geometry">
            <mxPoint x="324.84299999999985" y="332.16999999999985" as="sourcePoint" />
            <mxPoint x="200" y="192" as="targetPoint" />
            <Array as="points">
              <mxPoint x="260" y="331" />
            </Array>
          </mxGeometry>
        </mxCell>
        <mxCell id="csdzZB9VgYiIf6stIMxh-88" value="" style="edgeStyle=elbowEdgeStyle;elbow=vertical;strokeColor=#990000;strokeWidth=2;exitX=0.25;exitY=1;exitDx=0;exitDy=0;" parent="1" source="4" edge="1">
          <mxGeometry width="100" height="100" relative="1" as="geometry">
            <mxPoint x="100" y="491" as="sourcePoint" />
            <mxPoint x="325" y="480" as="targetPoint" />
            <Array as="points">
              <mxPoint x="335" y="480" />
            </Array>
          </mxGeometry>
        </mxCell>
      </root>
    </mxGraphModel>
  </diagram>
  <diagram id="TUO4qkymJNsT0PWHgBqY" name="App3-mini-MERN">
    <mxGraphModel dx="658" dy="1612" grid="0" gridSize="10" guides="1" tooltips="1" connect="1" arrows="1" fold="1" page="0" pageScale="1" pageWidth="827" pageHeight="1169" math="0" shadow="0">
      <root>
        <mxCell id="0" />
        <mxCell id="1" parent="0" />
        <mxCell id="GVaHoaekdQgZHi8Sc-DK-1" value="API Endpoints" style="text;strokeColor=none;fillColor=none;html=1;fontSize=24;fontStyle=1;verticalAlign=middle;align=center;" vertex="1" parent="1">
          <mxGeometry x="394" y="-694" width="100" height="40" as="geometry" />
        </mxCell>
        <mxCell id="GVaHoaekdQgZHi8Sc-DK-4" value="/api/users/..." style="whiteSpace=wrap;align=center;verticalAlign=middle;fontStyle=1;strokeWidth=3;fillColor=#3d3de0;fontColor=#ffffff;" vertex="1" parent="1">
          <mxGeometry x="180.5" y="-621" width="159.5" height="60" as="geometry" />
        </mxCell>
        <mxCell id="GVaHoaekdQgZHi8Sc-DK-5" value="api/places/..." style="whiteSpace=wrap;align=center;verticalAlign=middle;fontStyle=1;strokeWidth=3;fillColor=#FFA500" vertex="1" parent="1">
          <mxGeometry x="445.5" y="-618" width="277" height="60" as="geometry" />
        </mxCell>
        <mxCell id="GVaHoaekdQgZHi8Sc-DK-21" value="GET .../&#xa;Retrieve list of users" style="whiteSpace=wrap;align=center;verticalAlign=middle;fontStyle=1;strokeWidth=3;fillColor=#3d3de0;fontColor=#ffffff;" vertex="1" parent="1">
          <mxGeometry x="180.5" y="-533" width="158.5" height="60" as="geometry" />
        </mxCell>
        <mxCell id="GVaHoaekdQgZHi8Sc-DK-22" value="GET .../user/:uid&#xa;Retrieve list of all places for a given uid" style="whiteSpace=wrap;align=center;verticalAlign=middle;fontStyle=1;strokeWidth=3;fillColor=#FFA500" vertex="1" parent="1">
          <mxGeometry x="445.5" y="-529" width="121" height="60" as="geometry" />
        </mxCell>
        <mxCell id="GVaHoaekdQgZHi8Sc-DK-24" value="PATH .../:pid&#xa;Update a place by pid" style="whiteSpace=wrap;align=center;verticalAlign=middle;fontStyle=1;strokeWidth=3;fillColor=#FFA500" vertex="1" parent="1">
          <mxGeometry x="600" y="-529" width="122" height="60" as="geometry" />
        </mxCell>
        <mxCell id="GVaHoaekdQgZHi8Sc-DK-27" value="GET .../:pid&#xa;Get a specific place by pid" style="whiteSpace=wrap;align=center;verticalAlign=middle;fontStyle=1;strokeWidth=3;fillColor=#FFA500" vertex="1" parent="1">
          <mxGeometry x="445.5" y="-449" width="121" height="60" as="geometry" />
        </mxCell>
        <mxCell id="GVaHoaekdQgZHi8Sc-DK-28" value="DELETE .../:pid&#xa;Delete a place by pid" style="whiteSpace=wrap;align=center;verticalAlign=middle;fontStyle=1;strokeWidth=3;fillColor=#FFA500" vertex="1" parent="1">
          <mxGeometry x="600.5" y="-449" width="122" height="60" as="geometry" />
        </mxCell>
        <mxCell id="GVaHoaekdQgZHi8Sc-DK-29" value="POST .../signup&#xa;Create new user + log user in" style="whiteSpace=wrap;align=center;verticalAlign=middle;fontStyle=1;strokeWidth=3;fillColor=#3d3de0;fontColor=#ffffff;" vertex="1" parent="1">
          <mxGeometry x="181.5" y="-449" width="158.5" height="60" as="geometry" />
        </mxCell>
        <mxCell id="GVaHoaekdQgZHi8Sc-DK-30" value="POST .../login&#xa;Log user in using uid" style="whiteSpace=wrap;align=center;verticalAlign=middle;fontStyle=1;strokeWidth=3;fillColor=#3d3de0;fontColor=#ffffff;" vertex="1" parent="1">
          <mxGeometry x="180.5" y="-365" width="158.5" height="60" as="geometry" />
        </mxCell>
      </root>
    </mxGraphModel>
  </diagram>
  <diagram id="VodKX0ubIVDdtnhblwm1" name="App3-Auth-component">
    <mxGraphModel dx="1662" dy="2342" grid="0" gridSize="10" guides="1" tooltips="1" connect="1" arrows="1" fold="1" page="0" pageScale="1" pageWidth="827" pageHeight="1169" math="0" shadow="0">
      <root>
        <mxCell id="0" />
        <mxCell id="1" parent="0" />
        <mxCell id="wBkn9oD-bSu8bfNYw-p3-1" value="React Auth.jsx" style="text;strokeColor=none;fillColor=none;html=1;fontSize=24;fontStyle=1;verticalAlign=middle;align=center;" vertex="1" parent="1">
          <mxGeometry x="146" y="-593" width="100" height="40" as="geometry" />
        </mxCell>
        <mxCell id="hpmEVFLevQP8Ob8LMqrI-1" value="User to Sign Up / Login ?" style="whiteSpace=wrap;align=center;verticalAlign=middle;fontStyle=1;strokeWidth=3;fillColor=#00FFFF" vertex="1" parent="1">
          <mxGeometry x="100.5" y="-416" width="198" height="60" as="geometry" />
        </mxCell>
        <mxCell id="hpmEVFLevQP8Ob8LMqrI-2" value="" style="edgeStyle=elbowEdgeStyle;elbow=vertical;strokeColor=#990000;strokeWidth=2;" edge="1" parent="1">
          <mxGeometry width="100" height="100" relative="1" as="geometry">
            <mxPoint x="-135.99999999999994" y="-324" as="sourcePoint" />
            <mxPoint x="-136" y="-262" as="targetPoint" />
            <Array as="points">
              <mxPoint x="-95.49999999999994" y="-301" />
            </Array>
          </mxGeometry>
        </mxCell>
        <mxCell id="hpmEVFLevQP8Ob8LMqrI-3" value="" style="line;strokeWidth=2;direction=south;html=1;" vertex="1" parent="1">
          <mxGeometry x="192.5" y="-356" width="10" height="32" as="geometry" />
        </mxCell>
        <mxCell id="hpmEVFLevQP8Ob8LMqrI-4" value="" style="shape=partialRectangle;whiteSpace=wrap;html=1;bottom=1;right=1;left=1;top=0;fillColor=none;routingCenterX=-0.5;direction=west;" vertex="1" parent="1">
          <mxGeometry x="-136" y="-324" width="668" height="1" as="geometry" />
        </mxCell>
        <mxCell id="hpmEVFLevQP8Ob8LMqrI-5" value="Login" style="whiteSpace=wrap;align=center;verticalAlign=middle;fontStyle=1;strokeWidth=3;fillColor=#54d654" vertex="1" parent="1">
          <mxGeometry x="-272" y="-259" width="278.5" height="60" as="geometry" />
        </mxCell>
        <mxCell id="hpmEVFLevQP8Ob8LMqrI-6" value="" style="edgeStyle=elbowEdgeStyle;elbow=vertical;strokeColor=#990000;strokeWidth=2;" edge="1" parent="1">
          <mxGeometry width="100" height="100" relative="1" as="geometry">
            <mxPoint x="532.19" y="-324" as="sourcePoint" />
            <mxPoint x="532.19" y="-262" as="targetPoint" />
            <Array as="points">
              <mxPoint x="572.69" y="-301" />
            </Array>
          </mxGeometry>
        </mxCell>
        <mxCell id="hpmEVFLevQP8Ob8LMqrI-7" value="Sign Up" style="whiteSpace=wrap;align=center;verticalAlign=middle;fontStyle=1;strokeWidth=3;fillColor=#FFA500" vertex="1" parent="1">
          <mxGeometry x="396" y="-259" width="278.5" height="60" as="geometry" />
        </mxCell>
        <mxCell id="hpmEVFLevQP8Ob8LMqrI-8" value="&lt;Auth /&gt;" style="whiteSpace=wrap;align=center;verticalAlign=middle;fontStyle=1;strokeWidth=3;fillColor=#54d654" vertex="1" parent="1">
          <mxGeometry x="97" y="-525" width="198" height="54" as="geometry" />
        </mxCell>
        <mxCell id="hpmEVFLevQP8Ob8LMqrI-9" value="" style="edgeStyle=elbowEdgeStyle;elbow=vertical;strokeColor=#990000;strokeWidth=2;" edge="1" parent="1">
          <mxGeometry width="100" height="100" relative="1" as="geometry">
            <mxPoint x="199.73000000000008" y="-471" as="sourcePoint" />
            <mxPoint x="199.81" y="-419" as="targetPoint" />
            <Array as="points">
              <mxPoint x="240.23000000000008" y="-448" />
            </Array>
          </mxGeometry>
        </mxCell>
        <mxCell id="hpmEVFLevQP8Ob8LMqrI-10" value="" style="edgeStyle=elbowEdgeStyle;elbow=vertical;strokeColor=#990000;strokeWidth=2;" edge="1" parent="1">
          <mxGeometry width="100" height="100" relative="1" as="geometry">
            <mxPoint x="-134.74999999999994" y="-68" as="sourcePoint" />
            <mxPoint x="-134.75" y="-6" as="targetPoint" />
            <Array as="points">
              <mxPoint x="-94.24999999999994" y="-45" />
            </Array>
          </mxGeometry>
        </mxCell>
        <mxCell id="hpmEVFLevQP8Ob8LMqrI-11" value="&lt;Input type=&quot;email&quot; id=&quot;email&quot; /&gt;&#xa;&lt;Input type=&quot;password&quot; id=&quot;password&quot; /&gt;&#xa;&lt;Button type=&quot;submit&quot;&gt;LOGIN&lt;/Button&gt;" style="whiteSpace=wrap;align=center;verticalAlign=middle;fontStyle=1;strokeWidth=3;fillColor=#54d654" vertex="1" parent="1">
          <mxGeometry x="-272" y="-4" width="278.75" height="127" as="geometry" />
        </mxCell>
        <mxCell id="hpmEVFLevQP8Ob8LMqrI-12" value="" style="edgeStyle=elbowEdgeStyle;elbow=vertical;strokeColor=#990000;strokeWidth=2;" edge="1" parent="1">
          <mxGeometry width="100" height="100" relative="1" as="geometry">
            <mxPoint x="534.69" y="-69" as="sourcePoint" />
            <mxPoint x="534.69" y="-7" as="targetPoint" />
            <Array as="points">
              <mxPoint x="575.19" y="-46" />
            </Array>
          </mxGeometry>
        </mxCell>
        <mxCell id="hpmEVFLevQP8Ob8LMqrI-13" value="&lt;Input type=&quot;text&quot; id=&quot;name&quot; /&gt;&#xa;&lt;Input type=&quot;email&quot; id=&quot;email&quot; /&gt;&#xa;&lt;Input type=&quot;password&quot; id=&quot;password&quot; /&gt;&#xa;&lt;Button type=&quot;submit&quot;&gt;SIGN UP&lt;/Button&gt;" style="whiteSpace=wrap;align=center;verticalAlign=middle;fontStyle=1;strokeWidth=3;fillColor=#FFA500" vertex="1" parent="1">
          <mxGeometry x="396" y="-6" width="278.5" height="127" as="geometry" />
        </mxCell>
        <mxCell id="WolOm79UMPw8HQxYvenL-1" value="&lt;Form onSubmit={authSubmitHandler}&gt;" style="whiteSpace=wrap;align=center;verticalAlign=middle;fontStyle=1;strokeWidth=3;fillColor=#54d654" vertex="1" parent="1">
          <mxGeometry x="-271.75" y="-129" width="278.5" height="60" as="geometry" />
        </mxCell>
        <mxCell id="WolOm79UMPw8HQxYvenL-2" value="" style="edgeStyle=elbowEdgeStyle;elbow=vertical;strokeColor=#990000;strokeWidth=2;" edge="1" parent="1">
          <mxGeometry width="100" height="100" relative="1" as="geometry">
            <mxPoint x="-135.24999999999994" y="-199" as="sourcePoint" />
            <mxPoint x="-135" y="-132" as="targetPoint" />
            <Array as="points">
              <mxPoint x="-94.74999999999994" y="-176" />
            </Array>
          </mxGeometry>
        </mxCell>
        <mxCell id="WolOm79UMPw8HQxYvenL-5" value="&lt;Form onSubmit={authSubmitHandler}&gt;" style="whiteSpace=wrap;align=center;verticalAlign=middle;fontStyle=1;strokeWidth=3;fillColor=#FFA500" vertex="1" parent="1">
          <mxGeometry x="396" y="-131" width="278.5" height="60" as="geometry" />
        </mxCell>
        <mxCell id="WolOm79UMPw8HQxYvenL-6" value="" style="edgeStyle=elbowEdgeStyle;elbow=vertical;strokeColor=#990000;strokeWidth=2;" edge="1" parent="1">
          <mxGeometry width="100" height="100" relative="1" as="geometry">
            <mxPoint x="532.75" y="-199" as="sourcePoint" />
            <mxPoint x="533" y="-132" as="targetPoint" />
            <Array as="points">
              <mxPoint x="573.25" y="-176" />
            </Array>
          </mxGeometry>
        </mxCell>
        <mxCell id="qUJc4XakF2E9tpLpVA8l-1" value="" style="edgeStyle=elbowEdgeStyle;elbow=vertical;strokeColor=#990000;strokeWidth=2;exitX=1;exitY=0.5;exitDx=0;exitDy=0;entryX=-0.014;entryY=0.354;entryDx=0;entryDy=0;entryPerimeter=0;" edge="1" parent="1">
          <mxGeometry width="100" height="100" relative="1" as="geometry">
            <mxPoint x="8.52" y="-98.47999999999999" as="sourcePoint" />
            <mxPoint x="99.49800000000006" y="-99.518" as="targetPoint" />
            <Array as="points" />
          </mxGeometry>
        </mxCell>
        <mxCell id="MjmKjOpZcXK9LtlH5-7P-1" value="" style="edgeStyle=elbowEdgeStyle;elbow=vertical;strokeColor=#990000;strokeWidth=2;exitX=0;exitY=0.5;exitDx=0;exitDy=0;" edge="1" parent="1">
          <mxGeometry width="100" height="100" relative="1" as="geometry">
            <mxPoint x="395.0000000000002" y="-101" as="sourcePoint" />
            <mxPoint x="300" y="-101" as="targetPoint" />
            <Array as="points">
              <mxPoint x="350" y="-101" />
            </Array>
          </mxGeometry>
        </mxCell>
        <mxCell id="MjmKjOpZcXK9LtlH5-7P-2" value="authSubmitHandler&#xa;&#xa;Login&#xa;&#39;POST&#39; request to&#xa;http://backend/api/users/login&#xa;&#xa;TEXT data&#xa;email, &#xa;password&#xa;&#xa;&#xa;Sign Up&#xa;&#39;POST&#39; request to&#xa;http://backend/api/users/signup&#xa;&#xa;FormData&#xa;name,&#xa;email,&#xa;password,&#xa;image (binary data)&#xa;" style="whiteSpace=wrap;align=center;verticalAlign=middle;fontStyle=1;strokeWidth=3;fillColor=#00FFFF" vertex="1" parent="1">
          <mxGeometry x="100.5" y="-262" width="198" height="384" as="geometry" />
        </mxCell>
        <mxCell id="_iCgE1YRjfj3ZFXn55KV-1" value="frontend/src/user/pages/Auth.jsx" style="text;html=1;align=center;verticalAlign=middle;whiteSpace=wrap;rounded=0;fontSize=16;" vertex="1" parent="1">
          <mxGeometry x="-123" y="-535" width="203" height="74" as="geometry" />
        </mxCell>
        <mxCell id="_iCgE1YRjfj3ZFXn55KV-2" value="" style="edgeStyle=elbowEdgeStyle;elbow=vertical;strokeColor=#990000;strokeWidth=2;" edge="1" parent="1">
          <mxGeometry width="100" height="100" relative="1" as="geometry">
            <mxPoint x="-133.08999999999995" y="123" as="sourcePoint" />
            <mxPoint x="-133.09" y="185" as="targetPoint" />
            <Array as="points">
              <mxPoint x="-92.58999999999995" y="146" />
            </Array>
          </mxGeometry>
        </mxCell>
        <mxCell id="_iCgE1YRjfj3ZFXn55KV-3" value="fetch()" style="whiteSpace=wrap;align=center;verticalAlign=middle;fontStyle=1;strokeWidth=3;fillColor=#54d654" vertex="1" parent="1">
          <mxGeometry x="-272" y="188" width="278.5" height="60" as="geometry" />
        </mxCell>
        <mxCell id="_iCgE1YRjfj3ZFXn55KV-4" value="" style="edgeStyle=elbowEdgeStyle;elbow=vertical;strokeColor=#990000;strokeWidth=2;" edge="1" parent="1">
          <mxGeometry width="100" height="100" relative="1" as="geometry">
            <mxPoint x="534.4200000000001" y="123" as="sourcePoint" />
            <mxPoint x="534.42" y="185" as="targetPoint" />
            <Array as="points">
              <mxPoint x="574.9200000000001" y="146" />
            </Array>
          </mxGeometry>
        </mxCell>
        <mxCell id="_iCgE1YRjfj3ZFXn55KV-5" value="fetch()" style="whiteSpace=wrap;align=center;verticalAlign=middle;fontStyle=1;strokeWidth=3;fillColor=#FFA500" vertex="1" parent="1">
          <mxGeometry x="396" y="186" width="278.5" height="60" as="geometry" />
        </mxCell>
        <mxCell id="_iCgE1YRjfj3ZFXn55KV-6" value="Express REST APIs" style="text;strokeColor=none;fillColor=none;html=1;fontSize=24;fontStyle=1;verticalAlign=middle;align=center;" vertex="1" parent="1">
          <mxGeometry x="146" y="320" width="100" height="40" as="geometry" />
        </mxCell>
        <mxCell id="_iCgE1YRjfj3ZFXn55KV-7" value="" style="edgeStyle=elbowEdgeStyle;elbow=vertical;strokeColor=#990000;strokeWidth=2;" edge="1" parent="1">
          <mxGeometry width="100" height="100" relative="1" as="geometry">
            <mxPoint x="-133.32999999999996" y="246" as="sourcePoint" />
            <mxPoint x="-133.33" y="308" as="targetPoint" />
            <Array as="points">
              <mxPoint x="-92.82999999999994" y="269" />
            </Array>
          </mxGeometry>
        </mxCell>
        <mxCell id="_iCgE1YRjfj3ZFXn55KV-8" value="" style="edgeStyle=elbowEdgeStyle;elbow=vertical;strokeColor=#990000;strokeWidth=2;" edge="1" parent="1">
          <mxGeometry width="100" height="100" relative="1" as="geometry">
            <mxPoint x="534.4200000000001" y="246" as="sourcePoint" />
            <mxPoint x="534.42" y="308" as="targetPoint" />
            <Array as="points">
              <mxPoint x="574.9200000000001" y="269" />
            </Array>
          </mxGeometry>
        </mxCell>
        <mxCell id="Dd9uYi32oVnXnJ9k7gK--1" value="Express REST API" style="whiteSpace=wrap;align=center;verticalAlign=middle;fontStyle=1;strokeWidth=3;fillColor=#3d3de0;fontColor=#ffffff;" vertex="1" parent="1">
          <mxGeometry x="-271.75" y="310" width="278.75" height="60" as="geometry" />
        </mxCell>
        <mxCell id="Dd9uYi32oVnXnJ9k7gK--2" value="Express REST API" style="whiteSpace=wrap;align=center;verticalAlign=middle;fontStyle=1;strokeWidth=3;fillColor=#3d3de0;fontColor=#ffffff;" vertex="1" parent="1">
          <mxGeometry x="396" y="310" width="278.75" height="60" as="geometry" />
        </mxCell>
        <mxCell id="Dd9uYi32oVnXnJ9k7gK--3" value="" style="edgeStyle=elbowEdgeStyle;elbow=vertical;strokeColor=#990000;strokeWidth=2;" edge="1" parent="1">
          <mxGeometry width="100" height="100" relative="1" as="geometry">
            <mxPoint x="-133.32999999999996" y="370" as="sourcePoint" />
            <mxPoint x="-133.33" y="432" as="targetPoint" />
            <Array as="points">
              <mxPoint x="-92.82999999999994" y="393" />
            </Array>
          </mxGeometry>
        </mxCell>
        <mxCell id="Dd9uYi32oVnXnJ9k7gK--4" value="exports.login = async (req, res, next) =&gt; {&#xa;&#xa;const { &#xa;email, &#xa;password &#xa;} = req.body&#xa;&#xa;let existingUser;&#xa;&#xa;try { &#xa;existingUser = await User.findOne({ &#xa;email: email &#xa;});&#xa;} catch (err) {}&#xa;&#xa;res.json({&#xa;message: &#39;Logged in!&#39;,&#xa;user: existingUser.toObject({&#xa;getters: true&#xa;})&#xa;});&#xa;};" style="whiteSpace=wrap;align=center;verticalAlign=middle;fontStyle=1;strokeWidth=3;fillColor=#00FFFF" vertex="1" parent="1">
          <mxGeometry x="-273" y="986" width="280" height="469" as="geometry" />
        </mxCell>
        <mxCell id="Dd9uYi32oVnXnJ9k7gK--5" value="Express Router" style="whiteSpace=wrap;align=center;verticalAlign=middle;fontStyle=1;strokeWidth=3;fillColor=#00FFFF" vertex="1" parent="1">
          <mxGeometry x="-273.5" y="432" width="280" height="75" as="geometry" />
        </mxCell>
        <mxCell id="Dd9uYi32oVnXnJ9k7gK--6" value="" style="edgeStyle=elbowEdgeStyle;elbow=vertical;strokeColor=#990000;strokeWidth=2;" edge="1" parent="1">
          <mxGeometry width="100" height="100" relative="1" as="geometry">
            <mxPoint x="-131.16999999999996" y="924" as="sourcePoint" />
            <mxPoint x="-131.17000000000002" y="986" as="targetPoint" />
            <Array as="points">
              <mxPoint x="-90.66999999999994" y="947" />
            </Array>
          </mxGeometry>
        </mxCell>
        <mxCell id="Dd9uYi32oVnXnJ9k7gK--7" value="" style="edgeStyle=elbowEdgeStyle;elbow=vertical;strokeColor=#990000;strokeWidth=2;" edge="1" parent="1">
          <mxGeometry width="100" height="100" relative="1" as="geometry">
            <mxPoint x="534.9200000000001" y="798.5" as="sourcePoint" />
            <mxPoint x="534.92" y="860.5" as="targetPoint" />
            <Array as="points">
              <mxPoint x="575.4200000000001" y="821.5" />
            </Array>
          </mxGeometry>
        </mxCell>
        <mxCell id="Dd9uYi32oVnXnJ9k7gK--8" value="exports.signup = async (req, res, next) =&gt; {&#xa;&#xa;const { &#xa;name, &#xa;email,&#xa; password,&#xa;image&#xa; } = req.body&#xa;&#xa;let existingUser;&#xa;&#xa;try { &#xa;existingUser = await User.findOne({ &#xa;email: email &#xa;});&#xa;} catch (err) {}&#xa;&#xa;res.json({&#xa;message: &#39;Logged in!&#39;,&#xa;user: existingUser.toObject({&#xa;getters: true&#xa;})&#xa;});&#xa;};" style="whiteSpace=wrap;align=center;verticalAlign=middle;fontStyle=1;strokeWidth=3;fillColor=#00FFFF" vertex="1" parent="1">
          <mxGeometry x="394.75" y="1414.5" width="280" height="469" as="geometry" />
        </mxCell>
        <mxCell id="Dd9uYi32oVnXnJ9k7gK--9" value="Express Router" style="whiteSpace=wrap;align=center;verticalAlign=middle;fontStyle=1;strokeWidth=3;fillColor=#00FFFF" vertex="1" parent="1">
          <mxGeometry x="394.75" y="860.5" width="280" height="75" as="geometry" />
        </mxCell>
        <mxCell id="Dd9uYi32oVnXnJ9k7gK--10" value="" style="edgeStyle=elbowEdgeStyle;elbow=vertical;strokeColor=#990000;strokeWidth=2;" edge="1" parent="1">
          <mxGeometry width="100" height="100" relative="1" as="geometry">
            <mxPoint x="536.58" y="1352.5" as="sourcePoint" />
            <mxPoint x="536.5799999999999" y="1414.5" as="targetPoint" />
            <Array as="points">
              <mxPoint x="577.08" y="1375.5" />
            </Array>
          </mxGeometry>
        </mxCell>
        <mxCell id="Dd9uYi32oVnXnJ9k7gK--11" value="backend/routes/&lt;div&gt;users-route.js&lt;/div&gt;" style="text;html=1;align=center;verticalAlign=middle;whiteSpace=wrap;rounded=0;fontSize=16;" vertex="1" parent="1">
          <mxGeometry x="-44" y="432.5" width="232" height="74" as="geometry" />
        </mxCell>
        <mxCell id="Dd9uYi32oVnXnJ9k7gK--12" value="backend/routes/&lt;div&gt;users-route.js&lt;/div&gt;" style="text;html=1;align=center;verticalAlign=middle;whiteSpace=wrap;rounded=0;fontSize=16;" vertex="1" parent="1">
          <mxGeometry x="213.75" y="861" width="232" height="74" as="geometry" />
        </mxCell>
        <mxCell id="Dd9uYi32oVnXnJ9k7gK--13" value="backend/controllers/&lt;div&gt;users-controllers.js&lt;/div&gt;&lt;div&gt;&lt;br&gt;&lt;/div&gt;&lt;div&gt;&#39;login&#39;&lt;/div&gt;" style="text;html=1;align=center;verticalAlign=middle;whiteSpace=wrap;rounded=0;fontSize=16;" vertex="1" parent="1">
          <mxGeometry x="-29.5" y="1183.5" width="232" height="74" as="geometry" />
        </mxCell>
        <mxCell id="Dd9uYi32oVnXnJ9k7gK--14" value="backend/controllers/&lt;div&gt;users-controllers.js&lt;/div&gt;&lt;div&gt;&lt;br&gt;&lt;/div&gt;&lt;div&gt;&#39;signup&#39;&lt;/div&gt;" style="text;html=1;align=center;verticalAlign=middle;whiteSpace=wrap;rounded=0;fontSize=16;" vertex="1" parent="1">
          <mxGeometry x="209.25" y="1612" width="232" height="74" as="geometry" />
        </mxCell>
        <mxCell id="Dd9uYi32oVnXnJ9k7gK--15" value="TEXT data" style="text;html=1;align=center;verticalAlign=middle;whiteSpace=wrap;rounded=0;fontSize=16;" vertex="1" parent="1">
          <mxGeometry x="-291" y="241" width="203" height="74" as="geometry" />
        </mxCell>
        <mxCell id="Dd9uYi32oVnXnJ9k7gK--16" value="FormData" style="text;html=1;align=center;verticalAlign=middle;whiteSpace=wrap;rounded=0;fontSize=16;" vertex="1" parent="1">
          <mxGeometry x="481" y="241" width="203" height="74" as="geometry" />
        </mxCell>
        <mxCell id="Dd9uYi32oVnXnJ9k7gK--17" value="" style="edgeStyle=elbowEdgeStyle;elbow=vertical;strokeColor=#990000;strokeWidth=2;" edge="1" parent="1">
          <mxGeometry width="100" height="100" relative="1" as="geometry">
            <mxPoint x="-133.11999999999995" y="506.5" as="sourcePoint" />
            <mxPoint x="-133.12" y="568.5" as="targetPoint" />
            <Array as="points">
              <mxPoint x="-92.61999999999995" y="529.5" />
            </Array>
          </mxGeometry>
        </mxCell>
        <mxCell id="Dd9uYi32oVnXnJ9k7gK--18" value="router.post(&#39;/login&#39;, usersController.login);" style="whiteSpace=wrap;align=center;verticalAlign=middle;fontStyle=1;strokeWidth=3;fillColor=#00FFFF" vertex="1" parent="1">
          <mxGeometry x="-273.5" y="569" width="280" height="214" as="geometry" />
        </mxCell>
        <mxCell id="Dd9uYi32oVnXnJ9k7gK--19" value="" style="edgeStyle=elbowEdgeStyle;elbow=vertical;strokeColor=#990000;strokeWidth=2;" edge="1" parent="1">
          <mxGeometry width="100" height="100" relative="1" as="geometry">
            <mxPoint x="-133.32999999999996" y="785" as="sourcePoint" />
            <mxPoint x="-133.33" y="847" as="targetPoint" />
            <Array as="points">
              <mxPoint x="-92.82999999999994" y="808" />
            </Array>
          </mxGeometry>
        </mxCell>
        <mxCell id="Dd9uYi32oVnXnJ9k7gK--20" value="Express Controller" style="whiteSpace=wrap;align=center;verticalAlign=middle;fontStyle=1;strokeWidth=3;fillColor=#00FFFF" vertex="1" parent="1">
          <mxGeometry x="-273.5" y="847" width="280" height="75" as="geometry" />
        </mxCell>
        <UserObject label="&lt;span style=&quot;color: rgb(0, 0, 0); font-family: Helvetica; font-size: 16px; font-style: normal; font-variant-ligatures: normal; font-variant-caps: normal; font-weight: 400; letter-spacing: normal; orphans: 2; text-align: center; text-indent: 0px; text-transform: none; widows: 2; word-spacing: 0px; -webkit-text-stroke-width: 0px; white-space: normal; background-color: rgb(255, 255, 255); text-decoration-thickness: initial; text-decoration-style: initial; text-decoration-color: initial; display: inline !important; float: none;&quot;&gt;backend/controllers/&lt;/span&gt;&lt;div style=&quot;forced-color-adjust: none; color: rgb(0, 0, 0); font-family: Helvetica; font-size: 16px; font-style: normal; font-variant-ligatures: normal; font-variant-caps: normal; font-weight: 400; letter-spacing: normal; orphans: 2; text-align: center; text-indent: 0px; text-transform: none; widows: 2; word-spacing: 0px; -webkit-text-stroke-width: 0px; white-space: normal; background-color: rgb(255, 255, 255); text-decoration-thickness: initial; text-decoration-style: initial; text-decoration-color: initial;&quot;&gt;users-controllers.js&lt;/div&gt;" link="&lt;span style=&quot;color: rgb(0, 0, 0); font-family: Helvetica; font-size: 16px; font-style: normal; font-variant-ligatures: normal; font-variant-caps: normal; font-weight: 400; letter-spacing: normal; orphans: 2; text-align: center; text-indent: 0px; text-transform: none; widows: 2; word-spacing: 0px; -webkit-text-stroke-width: 0px; white-space: normal; background-color: rgb(255, 255, 255); text-decoration-thickness: initial; text-decoration-style: initial; text-decoration-color: initial; display: inline !important; float: none;&quot;&gt;backend/controllers/&lt;/span&gt;&lt;div style=&quot;forced-color-adjust: none; color: rgb(0, 0, 0); font-family: Helvetica; font-size: 16px; font-style: normal; font-variant-ligatures: normal; font-variant-caps: normal; font-weight: 400; letter-spacing: normal; orphans: 2; text-align: center; text-indent: 0px; text-transform: none; widows: 2; word-spacing: 0px; -webkit-text-stroke-width: 0px; white-space: normal; background-color: rgb(255, 255, 255); text-decoration-thickness: initial; text-decoration-style: initial; text-decoration-color: initial;&quot;&gt;users-controllers.js&lt;/div&gt;" id="Dd9uYi32oVnXnJ9k7gK--21">
          <mxCell style="text;whiteSpace=wrap;html=1;" vertex="1" parent="1">
            <mxGeometry x="9" y="858.0033333333334" width="171" height="60" as="geometry" />
          </mxCell>
        </UserObject>
        <mxCell id="Dd9uYi32oVnXnJ9k7gK--22" value="Express Controller" style="whiteSpace=wrap;align=center;verticalAlign=middle;fontStyle=1;strokeWidth=3;fillColor=#00FFFF" vertex="1" parent="1">
          <mxGeometry x="394.75" y="1279" width="280" height="75" as="geometry" />
        </mxCell>
        <UserObject label="&lt;span style=&quot;color: rgb(0, 0, 0); font-family: Helvetica; font-size: 16px; font-style: normal; font-variant-ligatures: normal; font-variant-caps: normal; font-weight: 400; letter-spacing: normal; orphans: 2; text-align: center; text-indent: 0px; text-transform: none; widows: 2; word-spacing: 0px; -webkit-text-stroke-width: 0px; white-space: normal; background-color: rgb(255, 255, 255); text-decoration-thickness: initial; text-decoration-style: initial; text-decoration-color: initial; display: inline !important; float: none;&quot;&gt;backend/controllers/&lt;/span&gt;&lt;div style=&quot;forced-color-adjust: none; color: rgb(0, 0, 0); font-family: Helvetica; font-size: 16px; font-style: normal; font-variant-ligatures: normal; font-variant-caps: normal; font-weight: 400; letter-spacing: normal; orphans: 2; text-align: center; text-indent: 0px; text-transform: none; widows: 2; word-spacing: 0px; -webkit-text-stroke-width: 0px; white-space: normal; background-color: rgb(255, 255, 255); text-decoration-thickness: initial; text-decoration-style: initial; text-decoration-color: initial;&quot;&gt;users-controllers.js&lt;/div&gt;" link="&lt;span style=&quot;color: rgb(0, 0, 0); font-family: Helvetica; font-size: 16px; font-style: normal; font-variant-ligatures: normal; font-variant-caps: normal; font-weight: 400; letter-spacing: normal; orphans: 2; text-align: center; text-indent: 0px; text-transform: none; widows: 2; word-spacing: 0px; -webkit-text-stroke-width: 0px; white-space: normal; background-color: rgb(255, 255, 255); text-decoration-thickness: initial; text-decoration-style: initial; text-decoration-color: initial; display: inline !important; float: none;&quot;&gt;backend/controllers/&lt;/span&gt;&lt;div style=&quot;forced-color-adjust: none; color: rgb(0, 0, 0); font-family: Helvetica; font-size: 16px; font-style: normal; font-variant-ligatures: normal; font-variant-caps: normal; font-weight: 400; letter-spacing: normal; orphans: 2; text-align: center; text-indent: 0px; text-transform: none; widows: 2; word-spacing: 0px; -webkit-text-stroke-width: 0px; white-space: normal; background-color: rgb(255, 255, 255); text-decoration-thickness: initial; text-decoration-style: initial; text-decoration-color: initial;&quot;&gt;users-controllers.js&lt;/div&gt;" id="Dd9uYi32oVnXnJ9k7gK--23">
          <mxCell style="text;whiteSpace=wrap;html=1;" vertex="1" parent="1">
            <mxGeometry x="244.25" y="1283.0033333333336" width="171" height="60" as="geometry" />
          </mxCell>
        </UserObject>
        <mxCell id="Dd9uYi32oVnXnJ9k7gK--24" value="" style="edgeStyle=elbowEdgeStyle;elbow=vertical;strokeColor=#990000;strokeWidth=2;" edge="1" parent="1">
          <mxGeometry width="100" height="100" relative="1" as="geometry">
            <mxPoint x="533.6300000000001" y="935.5" as="sourcePoint" />
            <mxPoint x="533.63" y="997.5" as="targetPoint" />
            <Array as="points">
              <mxPoint x="574.1300000000001" y="958.5" />
            </Array>
          </mxGeometry>
        </mxCell>
        <mxCell id="Dd9uYi32oVnXnJ9k7gK--25" value="router.post(&#xa;&#39;/signup&#39;,&#xa;fileUpload.single(&#39;image&#39;),&#xa;// Express Validator&#xa;[&#xa;check(&#39;name&#39;).not().isEmpty(),&#xa;check(&#39;email&#39;).normalizeEmail().isEmail(),&#xa;check(&#39;password&#39;).isLength({ min: 6 }),&#xa;&#xa;]&#xa;usersController.signup&#xa;);" style="whiteSpace=wrap;align=center;verticalAlign=middle;fontStyle=1;strokeWidth=3;fillColor=#00FFFF" vertex="1" parent="1">
          <mxGeometry x="393.25" y="998" width="280" height="214" as="geometry" />
        </mxCell>
        <mxCell id="Dd9uYi32oVnXnJ9k7gK--26" value="" style="edgeStyle=elbowEdgeStyle;elbow=vertical;strokeColor=#990000;strokeWidth=2;" edge="1" parent="1">
          <mxGeometry width="100" height="100" relative="1" as="geometry">
            <mxPoint x="533.4200000000001" y="1214" as="sourcePoint" />
            <mxPoint x="533.42" y="1276" as="targetPoint" />
            <Array as="points">
              <mxPoint x="573.9200000000001" y="1237" />
            </Array>
          </mxGeometry>
        </mxCell>
        <mxCell id="Dd9uYi32oVnXnJ9k7gK--27" value="" style="edgeStyle=elbowEdgeStyle;elbow=vertical;strokeColor=#990000;strokeWidth=2;" edge="1" parent="1">
          <mxGeometry width="100" height="100" relative="1" as="geometry">
            <mxPoint x="534.9200000000001" y="370.5" as="sourcePoint" />
            <mxPoint x="534.92" y="432.5" as="targetPoint" />
            <Array as="points">
              <mxPoint x="575.4200000000001" y="393.5" />
            </Array>
          </mxGeometry>
        </mxCell>
        <mxCell id="Dd9uYi32oVnXnJ9k7gK--28" value="multer&#xa;&#xa;Express Middleware" style="whiteSpace=wrap;align=center;verticalAlign=middle;fontStyle=1;strokeWidth=3;fillColor=#00FFFF" vertex="1" parent="1">
          <mxGeometry x="393.25" y="432" width="280" height="75" as="geometry" />
        </mxCell>
        <mxCell id="Dd9uYi32oVnXnJ9k7gK--33" value="" style="edgeStyle=elbowEdgeStyle;elbow=vertical;strokeColor=#990000;strokeWidth=2;" edge="1" parent="1">
          <mxGeometry width="100" height="100" relative="1" as="geometry">
            <mxPoint x="533.6300000000001" y="505" as="sourcePoint" />
            <mxPoint x="533.63" y="567" as="targetPoint" />
            <Array as="points">
              <mxPoint x="574.1300000000001" y="528" />
            </Array>
          </mxGeometry>
        </mxCell>
        <mxCell id="Dd9uYi32oVnXnJ9k7gK--34" value="const multer = require(&#39;multer&#39;);&#xa;const uuid = require(&#39;uuid/v4&#39;);&#xa;&#xa;// Mapping for Image File MIME Types&#xa;const MIME_TYPE_MAP = {&#xa;&#39;image/png&#39;: &#39;png&#39;,&#xa;&#39;image/jpeg&#39;: &#39;jpeg&#39;,&#xa;&#39;image/jpg&#39;: &#39;jpg&#xa;};&#xa;&#xa;// multer = a group of middlewares&#xa;const fileUpload = multer){&#xa;&#xa;limits: 2048000, // 2MB File Size limit&#xa;storage: multer.diskStorage({&#xa;destination: (req, file, cb) =&gt; {&#xa;cb(null, &#39;uploads/images&#39;);&#xa;&#xa;filename: (req, file, cb) =&gt; {&#xa;const ext = MIME_TYPE_MAP(file.mimetype);&#xa;const generatedFileName = uuid() + &#39;.&#39; + ext;&#xa;cb(null, generatedFileName);&#xa;&#xa;console.log(`\nGenerated file name: ${generatedFileName}`);&#xa;console.log(`\nStorage location: backend/uploads/images/${generatedFileName}\n`);&#xa;&#xa;}&#xa;}),&#xa;&#xa;fileFilter: (req, file, cb) =&gt; {&#xa;// Filter outby mapping mime type for file.ext&#xa;const isValid = !!MIME_TYPE_MAP[file.mimetype]; // boolean&#xa;&#xa;let error = isValid ? null : new Error(`\nInvalid MIME_TYPE for file!\n`);&#xa;&#xa;if (!isValid) {&#xa;console.log(`\nInvalid file extension for: ${file.originalname}`);&#xa;console.log(`\nAttempted MIME type: ${file.mimetype}\n`);&#xa;}&#xa;&#xa;cb(error, isValid);&#xa;}&#xa;});&#xa;&#xa;module.exports = fileUpload;" style="whiteSpace=wrap;align=center;verticalAlign=middle;fontStyle=1;strokeWidth=3;fillColor=#00FFFF" vertex="1" parent="1">
          <mxGeometry x="743" y="591" width="328" height="814" as="geometry" />
        </mxCell>
      </root>
    </mxGraphModel>
  </diagram>
  <diagram id="sbCCrR1mbSkZ_nuezasE" name="common-icons">
    <mxGraphModel dx="694" dy="1171" grid="0" gridSize="10" guides="1" tooltips="1" connect="1" arrows="1" fold="1" page="0" pageScale="1" pageWidth="827" pageHeight="1169" math="0" shadow="0">
      <root>
        <mxCell id="0" />
        <mxCell id="1" parent="0" />
        <mxCell id="T8n1CCl1Znr1jrV4rL7T-2" value="users" style="sketch=0;outlineConnect=0;gradientColor=none;fontColor=#545B64;strokeColor=none;fillColor=#FFA500;dashed=0;verticalLabelPosition=bottom;verticalAlign=top;align=center;html=1;fontSize=12;fontStyle=0;aspect=fixed;shape=mxgraph.aws4.illustration_users;pointerEvents=1" parent="1" vertex="1">
          <mxGeometry x="119" y="-187" width="60" height="60" as="geometry" />
        </mxCell>
        <mxCell id="Tkc1i5gFv_bHgzMq51pG-1" value="" style="sketch=0;pointerEvents=1;shadow=0;dashed=0;html=1;strokeColor=none;fillColor=#FFA500;labelPosition=center;verticalLabelPosition=bottom;verticalAlign=top;align=center;outlineConnect=0;shape=mxgraph.veeam2.transport;" parent="1" vertex="1">
          <mxGeometry x="258" y="-185" width="74" height="61" as="geometry" />
        </mxCell>
        <mxCell id="1wDiTmR4SEPu9Raj3YBy-2" value="" style="edgeStyle=orthogonalEdgeStyle;html=1;endArrow=block;elbow=vertical;startArrow=none;endFill=1;strokeColor=#545B64;rounded=0;fontSize=12;startSize=8;endSize=8;curved=1;" parent="1" edge="1">
          <mxGeometry width="100" relative="1" as="geometry">
            <mxPoint x="104" y="-251" as="sourcePoint" />
            <mxPoint x="204" y="-251" as="targetPoint" />
          </mxGeometry>
        </mxCell>
        <mxCell id="1wDiTmR4SEPu9Raj3YBy-7" value="AWS CodeCommit" style="sketch=0;outlineConnect=0;fontColor=#232F3E;gradientColor=none;strokeColor=#ffffff;fillColor=#232F3E;dashed=0;verticalLabelPosition=middle;verticalAlign=bottom;align=center;html=1;whiteSpace=wrap;fontSize=10;fontStyle=1;spacing=3;shape=mxgraph.aws4.productIcon;prIcon=mxgraph.aws4.codecommit;" parent="1" vertex="1">
          <mxGeometry x="523" y="601" width="80" height="110" as="geometry" />
        </mxCell>
        <mxCell id="1wDiTmR4SEPu9Raj3YBy-8" value="AWS CodeDeploy" style="sketch=0;outlineConnect=0;fontColor=#232F3E;gradientColor=none;strokeColor=#ffffff;fillColor=#FFA500;dashed=0;verticalLabelPosition=middle;verticalAlign=bottom;align=center;html=1;whiteSpace=wrap;fontSize=10;fontStyle=1;spacing=3;shape=mxgraph.aws4.productIcon;prIcon=mxgraph.aws4.codedeploy;" parent="1" vertex="1">
          <mxGeometry x="258" y="168" width="80" height="110" as="geometry" />
        </mxCell>
        <mxCell id="1wDiTmR4SEPu9Raj3YBy-9" value="AWS CodePipeline" style="sketch=0;outlineConnect=0;fontColor=#232F3E;gradientColor=none;strokeColor=#ffffff;fillColor=#FFA500;dashed=0;verticalLabelPosition=middle;verticalAlign=bottom;align=center;html=1;whiteSpace=wrap;fontSize=10;fontStyle=1;spacing=3;shape=mxgraph.aws4.productIcon;prIcon=mxgraph.aws4.codepipeline;" parent="1" vertex="1">
          <mxGeometry x="393" y="168" width="80" height="110" as="geometry" />
        </mxCell>
        <mxCell id="1wDiTmR4SEPu9Raj3YBy-10" value="AWS&#xa;Command Line Interface" style="sketch=0;outlineConnect=0;fontColor=#232F3E;gradientColor=none;strokeColor=#ffffff;fillColor=#FFA500;dashed=0;verticalLabelPosition=middle;verticalAlign=bottom;align=center;html=1;whiteSpace=wrap;fontSize=10;fontStyle=1;spacing=3;shape=mxgraph.aws4.productIcon;prIcon=mxgraph.aws4.command_line_interface;" parent="1" vertex="1">
          <mxGeometry x="114" y="326" width="80" height="120" as="geometry" />
        </mxCell>
        <mxCell id="1wDiTmR4SEPu9Raj3YBy-13" value="Amazon S3" style="sketch=0;outlineConnect=0;fontColor=#232F3E;gradientColor=none;strokeColor=#ffffff;fillColor=#FFA500;dashed=0;verticalLabelPosition=middle;verticalAlign=bottom;align=center;html=1;whiteSpace=wrap;fontSize=10;fontStyle=1;spacing=3;shape=mxgraph.aws4.productIcon;prIcon=mxgraph.aws4.s3;" parent="1" vertex="1">
          <mxGeometry x="523" y="326" width="80" height="100" as="geometry" />
        </mxCell>
        <mxCell id="1wDiTmR4SEPu9Raj3YBy-14" value="AWS Identity and Access Management" style="sketch=0;outlineConnect=0;fontColor=#232F3E;gradientColor=none;strokeColor=#ffffff;fillColor=#FFA500;dashed=0;verticalLabelPosition=middle;verticalAlign=bottom;align=center;html=1;whiteSpace=wrap;fontSize=10;fontStyle=1;spacing=3;shape=mxgraph.aws4.productIcon;prIcon=mxgraph.aws4.identity_and_access_management;" parent="1" vertex="1">
          <mxGeometry x="258" y="326" width="80" height="120" as="geometry" />
        </mxCell>
        <mxCell id="1wDiTmR4SEPu9Raj3YBy-15" value="AWS WAF" style="sketch=0;outlineConnect=0;fontColor=#232F3E;gradientColor=none;strokeColor=#ffffff;fillColor=#FFA500;dashed=0;verticalLabelPosition=middle;verticalAlign=bottom;align=center;html=1;whiteSpace=wrap;fontSize=10;fontStyle=1;spacing=3;shape=mxgraph.aws4.productIcon;prIcon=mxgraph.aws4.waf;" parent="1" vertex="1">
          <mxGeometry x="523" y="474" width="80" height="100" as="geometry" />
        </mxCell>
        <mxCell id="1wDiTmR4SEPu9Raj3YBy-16" value="Amazon VPC" style="sketch=0;outlineConnect=0;fontColor=#232F3E;gradientColor=none;strokeColor=#ffffff;fillColor=#FFA500;dashed=0;verticalLabelPosition=middle;verticalAlign=bottom;align=center;html=1;whiteSpace=wrap;fontSize=10;fontStyle=1;spacing=3;shape=mxgraph.aws4.productIcon;prIcon=mxgraph.aws4.vpc;" parent="1" vertex="1">
          <mxGeometry x="393" y="326" width="80" height="100" as="geometry" />
        </mxCell>
        <mxCell id="1wDiTmR4SEPu9Raj3YBy-17" value="Amazon API Gateway" style="sketch=0;outlineConnect=0;fontColor=#232F3E;gradientColor=none;strokeColor=#ffffff;fillColor=#FFA500;dashed=0;verticalLabelPosition=middle;verticalAlign=bottom;align=center;html=1;whiteSpace=wrap;fontSize=10;fontStyle=1;spacing=3;shape=mxgraph.aws4.productIcon;prIcon=mxgraph.aws4.api_gateway;" parent="1" vertex="1">
          <mxGeometry x="520" y="31" width="80" height="110" as="geometry" />
        </mxCell>
        <mxCell id="1wDiTmR4SEPu9Raj3YBy-18" value="Amazon Route 53" style="sketch=0;outlineConnect=0;fontColor=#232F3E;gradientColor=none;strokeColor=#ffffff;fillColor=#FFA500;dashed=0;verticalLabelPosition=middle;verticalAlign=bottom;align=center;html=1;whiteSpace=wrap;fontSize=10;fontStyle=1;spacing=3;shape=mxgraph.aws4.productIcon;prIcon=mxgraph.aws4.route_53;" parent="1" vertex="1">
          <mxGeometry x="523" y="168" width="80" height="110" as="geometry" />
        </mxCell>
        <mxCell id="1wDiTmR4SEPu9Raj3YBy-19" value="AWS Auto Scaling" style="sketch=0;outlineConnect=0;fontColor=#232F3E;gradientColor=none;strokeColor=#ffffff;fillColor=#FFA500;dashed=0;verticalLabelPosition=middle;verticalAlign=bottom;align=center;html=1;whiteSpace=wrap;fontSize=10;fontStyle=1;spacing=3;shape=mxgraph.aws4.productIcon;prIcon=mxgraph.aws4.autoscaling;" parent="1" vertex="1">
          <mxGeometry x="393" y="474" width="80" height="110" as="geometry" />
        </mxCell>
        <mxCell id="1wDiTmR4SEPu9Raj3YBy-21" value="Kubernetes" style="sketch=0;html=1;verticalAlign=top;labelPosition=center;verticalLabelPosition=bottom;align=center;spacingTop=-6;fontSize=11;fontStyle=1;fontColor=#999999;shape=image;aspect=fixed;imageAspect=0;image=data:image/svg+xml,PHN2ZyB4bWxucz0iaHR0cDovL3d3dy53My5vcmcvMjAwMC9zdmciIHhtbG5zOnY9Imh0dHBzOi8vdmVjdGEuaW8vbmFubyIgd2lkdGg9IjcwMi44NDYzMTM0NzY1NjI1IiBoZWlnaHQ9IjY4MS45NjcxMDIwNTA3ODEyIiB2aWV3Qm94PSIxMC4wMDEwMjYxNTM1NjQ0NTMgMTAuMDAwOTMzNjQ3MTU1NzYyIDcwMi44NDYzMTM0NzY1NjI1IDY4MS45NjcxMDIwNTA3ODEyIj4mI3hhOwk8c3R5bGUgdHlwZT0idGV4dC9jc3MiPiYjeGE7CS5zdDB7ZmlsbDojMzI2Y2U1O30mI3hhOwkuc3Qxe2ZpbGw6I2ZmZjt9JiN4YTsJPC9zdHlsZT4mI3hhOwk8cGF0aCBjbGFzcz0ic3QwIiBkPSJNMzU4Ljk4NyAxMC4wNmMtNi4yMTMuMzEzLTEyLjMwMSAxLjg1NC0xNy45MDYgNC41MzFMOTYuNzM3IDEzMS4zNDJjLTEyLjgxMSA2LjExOC0yMi4xMTYgMTcuNjg5LTI1LjI4MSAzMS40MzhsLTYwLjI4MSAyNjIuMjVjLTIuODEyIDEyLjIwNy0uNTI0IDI1LjAyNCA2LjM0NCAzNS41MzFhNDYuMzUgNDYuMzUgMCAwIDAgMi42NTYgMy42ODhsMTY5LjEyNSAyMTAuMjgxYzguODY4IDExLjAyMiAyMi4zMTMgMTcuNDQgMzYuNTMxIDE3LjQzOGwyNzEuMjE5LS4wNjJjMTQuMjEyLjAxIDI3LjY1Ny02LjM5NiAzNi41MzEtMTcuNDA2bDE2OS4wNjMtMjEwLjMxM2M4Ljg3My0xMS4wMjggMTIuMTk3LTI1LjQ2NCA5LjAzMS0zOS4yMTlsLTYwLjM3NS0yNjIuMjVjLTMuMTY1LTEzLjc0OC0xMi40Ny0yNS4zMTktMjUuMjgxLTMxLjQzN0wzODEuNjQzIDE0LjU5MmMtNy4wNS0zLjM2OC0xNC44NDEtNC45MjYtMjIuNjU2LTQuNTMxeiIvPiYjeGE7CTxwYXRoIGNsYXNzPSJzdDEgc3QyIiBkPSJNMzYxLjQwOCA5OS4zMDhjLTguMDc3LjAwMS0xNC42MjYgNy4yNzYtMTQuNjI1IDE2LjI1IDAgLjEzOC4wMjguMjY5LjAzMS40MDYtLjAxMiAxLjIxOS0uMDcxIDIuNjg4LS4wMzEgMy43NS4xOTMgNS4xNzYgMS4zMjEgOS4xMzcgMiAxMy45MDYgMS4yMyAxMC4yMDcgMi4yNjEgMTguNjY3IDEuNjI1IDI2LjUzMS0uNjE5IDIuOTY1LTIuODAzIDUuNjc3LTQuNzUgNy41NjNsLS4zNDQgNi4xODhjLTguNzc3LjcyNy0xNy42MTIgMi4wNTktMjYuNDM3IDQuMDYzLTM3Ljk3NSA4LjYyMi03MC42NyAyOC4xODMtOTUuNTYyIDU0LjU5NC0xLjYxNS0xLjEwMi00LjQ0MS0zLjEyOS01LjI4MS0zLjc1LTIuNjExLjM1My01LjI1IDEuMTU4LTguNjg3LS44NDQtNi41NDUtNC40MDYtMTIuNTA2LTEwLjQ4Ny0xOS43MTktMTcuODEyLTMuMzA1LTMuNTA0LTUuNjk4LTYuODQxLTkuNjI1LTEwLjIxOS0uODkyLS43NjctMi4yNTMtMS44MDUtMy4yNS0yLjU5NC0zLjA3LTIuNDQ4LTYuNjkxLTMuNzI0LTEwLjE4Ny0zLjg0NC00LjQ5Ni0uMTU0LTguODI0IDEuNjA0LTExLjY1NiA1LjE1Ni01LjAzNSA2LjMxNS0zLjQyMyAxNS45NjggMy41OTQgMjEuNTYzLjA3MS4wNTcuMTQ3LjEwMS4yMTkuMTU2Ljk2NC43ODIgMi4xNDUgMS43ODMgMy4wMzEgMi40MzggNC4xNjcgMy4wNzcgNy45NzMgNC42NTEgMTIuMTI1IDcuMDk0IDguNzQ3IDUuNDAyIDE1Ljk5OCA5Ljg4MSAyMS43NSAxNS4yODEgMi4yNDYgMi4zOTQgMi42MzkgNi42MTMgMi45MzggOC40MzhsNC42ODggNC4xODhjLTI1LjA5MyAzNy43NjQtMzYuNzA3IDg0LjQwOS0yOS44NDQgMTMxLjkzOGwtNi4xMjUgMS43ODFjLTEuNjE0IDIuMDg1LTMuODk1IDUuMzY1LTYuMjgxIDYuMzQ0LTcuNTI1IDIuMzctMTUuOTk0IDMuMjQxLTI2LjIxOSA0LjMxMy00LjguMzk5LTguOTQyLjE2MS0xNC4wMzEgMS4xMjUtMS4xMi4yMTItMi42ODEuNjE5LTMuOTA2LjkwNi0uMDQzLjAwOS0uMDgyLjAyMi0uMTI1LjAzMS0uMDY3LjAxNS0uMTU1LjA0OC0uMjE5LjA2My04LjYyIDIuMDgzLTE0LjE1OCAxMC4wMDYtMTIuMzc1IDE3LjgxM3MxMC4yMDMgMTIuNTU3IDE4Ljg3NSAxMC42ODhjLjA2My0uMDE0LjE1NC0uMDE3LjIxOS0uMDMxLjA5OC0uMDIyLjE4NC0uMDcuMjgxLS4wOTQgMS4yMDktLjI2NSAyLjcyNC0uNTYxIDMuNzgxLS44NDQgNS4wMDMtMS4zNCA4LjYyNy0zLjMwOCAxMy4xMjUtNS4wMzEgOS42NzctMy40NzEgMTcuNjkyLTYuMzcgMjUuNS03LjUgMy4yNjEtLjI1NSA2LjY5NyAyLjAxMiA4LjQwNiAyLjk2OWw2LjM3NS0xLjA5NGMxNC42NyA0NS40ODMgNDUuNDE0IDgyLjI0NSA4NC4zNDQgMTA1LjMxMmwtMi42NTYgNi4zNzVjLjk1NyAyLjQ3NSAyLjAxMyA1LjgyNSAxLjMgOC4yNjktMi44MzkgNy4zNjEtNy43MDEgMTUuMTMxLTEzLjIzOCAyMy43OTMtMi42ODEgNC4wMDItNS40MjUgNy4xMDgtNy44NDQgMTEuNjg4LS41NzkgMS4wOTYtMS4zMTYgMi43NzktMS44NzUgMy45MzgtMy43NTkgOC4wNDItMS4wMDIgMTcuMzA1IDYuMjE5IDIwLjc4MSA3LjI2NiAzLjQ5OCAxNi4yODQtLjE5MSAyMC4xODctOC4yNS4wMDYtLjAxMS4wMjYtLjAyLjAzMS0uMDMxcy0uMDA0LS4wMjMgMC0uMDMxYy41NTYtMS4xNDMgMS4zNDQtMi42NDQgMS44MTMtMy43MTkgMi4wNzItNC43NDcgMi43NjItOC44MTUgNC4yMTktMTMuNDA2IDMuODctOS43MiA1Ljk5Ni0xOS45MTkgMTEuMzIzLTI2LjI3NCAxLjQ1OS0xLjc0IDMuODM3LTIuNDA5IDYuMzAyLTMuMDdsMy4zMTMtNmMzMy45MzggMTMuMDI3IDcxLjkyNyAxNi41MjIgMTA5Ljg3NSA3LjkwNmExODkuNzcgMTg5Ljc3IDAgMCAwIDI1LjA5NC03LjU2MmwzLjEyNSA1LjYyNWMyLjUwNi44MTUgNS4yNCAxLjIzNiA3LjQ2OSA0LjUzMSAzLjk4NSA2LjgwOSA2LjcxMSAxNC44NjQgMTAuMDMxIDI0LjU5NCAxLjQ1NyA0LjU5MSAyLjE3OCA4LjY1OSA0LjI1IDEzLjQwNi40NzIgMS4wODIgMS4yNTYgMi42MDUgMS44MTMgMy43NSAzLjg5NSA4LjA4NSAxMi45NDIgMTEuNzg3IDIwLjIxOSA4LjI4MSA3LjIxOS0zLjQ3OCA5Ljk4LTEyLjc0IDYuMjE5LTIwLjc4MWwtMS45MDYtMy45MzdjLTIuNDE5LTQuNTgtNS4xNjMtNy42NTQtNy44NDQtMTEuNjU2LTUuNTM3LTguNjYyLTEwLjEzLTE1Ljg1OC0xMi45NjktMjMuMjE5LTEuMTg3LTMuNzk3LjItNi4xNTggMS4xMjUtOC42MjUtLjU1NC0uNjM1LTEuNzM5LTQuMjItMi40MzctNS45MDYgNDAuNDU3LTIzLjg4OCA3MC4yOTktNjIuMDIxIDg0LjMxMy0xMDYuMDYyIDEuODkyLjI5NyA1LjE4Mi44NzkgNi4yNSAxLjA5NCAyLjItMS40NTEgNC4yMjItMy4zNDQgOC4xODgtMy4wMzEgNy44MDggMS4xMjkgMTUuODIzIDQuMDMgMjUuNSA3LjUgNC40OTggMS43MjMgOC4xMjIgMy43MjMgMTMuMTI1IDUuMDYzIDEuMDU3LjI4MyAyLjU3Mi41NDcgMy43ODEuODEzLjA5Ny4wMjQuMTgzLjA3MS4yODEuMDk0LjA2NS4wMTUuMTU2LjAxNy4yMTkuMDMxIDguNjcyIDEuODY3IDE3LjA5NC0yLjg3OSAxOC44NzUtMTAuNjg3cy0zLjc1NC0xNS43MzItMTIuMzc1LTE3LjgxMmMtMS4yNTQtLjI4NS0zLjAzMi0uNzY5LTQuMjUtMS01LjA4OS0uOTY0LTkuMjMxLS43MjYtMTQuMDMxLTEuMTI1LTEwLjIyNS0xLjA3MS0xOC42OTMtMS45NDMtMjYuMjE5LTQuMzEyLTMuMDY4LTEuMTktNS4yNTEtNC44NDEtNi4zMTMtNi4zNDRsLTUuOTA2LTEuNzE5YzMuMDYyLTIyLjE1NCAyLjIzNy00NS4yMTEtMy4wNjItNjguMjgxLTUuMzQ4LTIzLjI4NS0xNC44LTQ0LjU4MS0yNy40MDYtNjMuMzQ0bDUuMTg4LTQuNjU2Yy4yMzctMi42MjQuMDMzLTUuMzc2IDIuNzUtOC4yODEgNS43NTEtNS40MDEgMTMuMDAzLTkuODc5IDIxLjc1LTE1LjI4MSA0LjE1Mi0yLjQ0MyA3Ljk5LTQuMDE3IDEyLjE1Ni03LjA5NC45NDItLjY5NiAyLjIyOS0xLjc5OCAzLjIxOS0yLjU5NCA3LjAxNS01LjU5NiA4LjYzMS0xNS4yNDggMy41OTQtMjEuNTYycy0xNC43OTctNi45MDktMjEuODEyLTEuMzEyYy0uOTk5Ljc5MS0yLjM1NCAxLjgyMy0zLjI1IDIuNTk0LTMuOTI3IDMuMzc4LTYuMzUxIDYuNzE0LTkuNjU2IDEwLjIxOS03LjIxMiA3LjMyNi0xMy4xNzQgMTMuNDM4LTE5LjcxOSAxNy44NDQtMi44MzYgMS42NTEtNi45OSAxLjA4LTguODc1Ljk2OWwtNS41NjIgMy45NjljLTMxLjcxOS0zMy4yNjEtNzQuOTA1LTU0LjUyNS0xMjEuNDA2LTU4LjY1NmwtLjM0NC02LjUzMWMtMS45MDQtMS44MjItNC4yMDMtMy4zNzctNC43ODEtNy4zMTItLjYzNi03Ljg2NC40MjYtMTYuMzI1IDEuNjU2LTI2LjUzMS42NzktNC43NjkgMS44MDctOC43MyAyLTEzLjkwNi4wNDQtMS4xNzctLjAyNi0yLjg4NC0uMDMxLTQuMTU2LS4wMDEtOC45NzQtNi41NDgtMTYuMjUxLTE0LjYyNS0xNi4yNXptLTE4LjMxMiAxMTMuNDM4bC00LjM0NCA3Ni43MTktLjMxMi4xNTZjLS4yOTEgNi44NjMtNS45NCAxMi4zNDQtMTIuODc1IDEyLjM0NGExMi44MiAxMi44MiAwIDAgMS03LjU5NC0yLjQ2OWwtLjEyNS4wNjMtNjIuOTA2LTQ0LjU5NGMxOS4zMzQtMTkuMDExIDQ0LjA2My0zMy4wNiA3Mi41NjItMzkuNTMxIDUuMjA2LTEuMTgyIDEwLjQxLTIuMDU5IDE1LjU5NC0yLjY4N3ptMzYuNjU2IDBjMzMuMjczIDQuMDkyIDY0LjA0NSAxOS4xNTkgODcuNjI1IDQyLjI1bC02Mi41IDQ0LjMxMy0uMjE5LS4wOTRhMTIuOTEgMTIuOTEgMCAwIDEtMTcuNjg3LTIuMzc1Yy0xLjc3MS0yLjIyMS0yLjcwMS00LjgzMi0yLjgxMi03LjQ2OWwtLjA2Mi0uMDMxek0yMzIuMTI2IDI4My42Mmw1Ny40MzcgNTEuMzc1LS4wNjIuMzEzYTEyLjg4IDEyLjg4IDAgMCAxIDEuNjI1IDE3Ljc1IDEyLjg5IDEyLjg5IDAgMCAxLTYuNjg3IDQuNDA2bC0uMDYyLjI1LTczLjYyNSAyMS4yNWMtMy43NDctMzQuMjY1IDQuMzI5LTY3LjU3NCAyMS4zNzUtOTUuMzQ0em0yNTguMTU2LjAzMWM4LjUzNCAxMy44MzMgMTQuOTk3IDI5LjI4MiAxOC44NDQgNDYuMDMxIDMuODAxIDE2LjU0OCA0Ljc1NSAzMy4wNjcgMy4xODggNDkuMDMxbC03NC0yMS4zMTItLjA2Mi0uMzEyYy02LjYyNy0xLjgxMS0xMC42OTktOC41NTItOS4xNTYtMTUuMzEyLjYzMi0yLjc3IDIuMTAyLTUuMTEzIDQuMDk0LTYuODQ0bC0uMDMxLS4xNTYgNTcuMTI1LTUxLjEyNXptLTE0MC42NTYgNTUuMzEzaDIzLjUzMWwxNC42MjUgMTguMjgxLTUuMjUgMjIuODEzLTIxLjEyNSAxMC4xNTYtMjEuMTg3LTEwLjE4Ny01LjI1LTIyLjgxMnptNzUuNDM4IDYyLjU2M2ExMi44MyAxMi44MyAwIDAgMSAyLjk2OS4yMTlsLjEyNS0uMTU2IDc2LjE1NiAxMi44NzVjLTExLjE0NiAzMS4zMTMtMzIuNDczIDU4LjQ0LTYwLjk2OSA3Ni41OTRsLTI5LjU2Mi03MS40MDYuMDk0LS4xMjVjLTIuNzE2LTYuMzEuMDAyLTEzLjcxIDYuMjUtMTYuNzE5IDEuNi0uNzcgMy4yNzEtMS4xOTcgNC45MzgtMS4yODF6bS0xMjcuOTA2LjMxM2ExMi45IDEyLjkgMCAwIDEgMTIuMzc1IDEwLjAzMSAxMi43NyAxMi43NyAwIDAgMS0uNzE5IDcuOTM4bC4yMTkuMjgxLTI5LjI1IDcwLjY4OGMtMjcuMzQ3LTE3LjU0OS00OS4xMjktNDMuODI0LTYwLjc4MS03Ni4wNjJsNzUuNS0xMi44MTIuMTI1LjE1NmMuODQ1LS4xNTUgMS43MDEtLjIzIDIuNTMxLS4yMTl6bTYzLjc4MSAzMC45NjljMi4wMjQtLjA3NCA0LjA3OS4zNDEgNi4wMzEgMS4yODEgMi41NiAxLjIzMyA0LjUzNyAzLjE3MyA1Ljc4MSA1LjVoLjI4MWwzNy4yMTkgNjcuMjVjLTQuODMgMS42MTktOS43OTYgMy4wMDMtMTQuODc1IDQuMTU2LTI4LjQ2NSA2LjQ2My01Ni44MzkgNC41MDUtODIuNTMxLTQuMjVsMzcuMTI1LTY3LjEyNWguMDYzYTEyLjkxIDEyLjkxIDAgMCAxIDEwLjkwNi02LjgxMnoiIHN0cm9rZT0ibm9uZSIgc3Ryb2tlLXdpZHRoPSIuMjUiLz4mI3hhOzwvc3ZnPg==;" parent="1" vertex="1">
          <mxGeometry x="406" y="-62" width="42" height="40" as="geometry" />
        </mxCell>
        <mxCell id="1wDiTmR4SEPu9Raj3YBy-22" value="" style="sketch=0;outlineConnect=0;fontColor=#232F3E;gradientColor=none;fillColor=#FFA500;strokeColor=none;dashed=0;verticalLabelPosition=bottom;verticalAlign=top;align=center;html=1;fontSize=12;fontStyle=0;aspect=fixed;pointerEvents=1;shape=mxgraph.aws4.marketplace;" parent="1" vertex="1">
          <mxGeometry x="391" y="-187" width="78" height="78" as="geometry" />
        </mxCell>
        <mxCell id="isNOqpJSFmohrSO90Sxl-1" value="" style="sketch=0;outlineConnect=0;fontColor=#232F3E;gradientColor=none;fillColor=#C925D1;strokeColor=none;dashed=0;verticalLabelPosition=bottom;verticalAlign=top;align=center;html=1;fontSize=12;fontStyle=0;aspect=fixed;pointerEvents=1;shape=mxgraph.aws4.rds_mysql_instance_alt;" parent="1" vertex="1">
          <mxGeometry x="115" y="480" width="78" height="78" as="geometry" />
        </mxCell>
        <mxCell id="isNOqpJSFmohrSO90Sxl-2" value="" style="sketch=0;outlineConnect=0;fontColor=#232F3E;gradientColor=none;fillColor=#C925D1;strokeColor=none;dashed=0;verticalLabelPosition=bottom;verticalAlign=top;align=center;html=1;fontSize=12;fontStyle=0;aspect=fixed;pointerEvents=1;shape=mxgraph.aws4.rds_postgresql_instance_alt;" parent="1" vertex="1">
          <mxGeometry x="260" y="480" width="78" height="78" as="geometry" />
        </mxCell>
        <mxCell id="isNOqpJSFmohrSO90Sxl-3" value="" style="sketch=0;outlineConnect=0;fontColor=#232F3E;gradientColor=none;fillColor=#C925D1;strokeColor=none;dashed=0;verticalLabelPosition=bottom;verticalAlign=top;align=center;html=1;fontSize=12;fontStyle=0;aspect=fixed;pointerEvents=1;shape=mxgraph.aws4.documentdb_elastic_clusters;" parent="1" vertex="1">
          <mxGeometry x="114" y="599" width="78" height="78" as="geometry" />
        </mxCell>
        <mxCell id="isNOqpJSFmohrSO90Sxl-4" value="" style="sketch=0;outlineConnect=0;fontColor=#232F3E;gradientColor=none;fillColor=#C925D1;strokeColor=none;dashed=0;verticalLabelPosition=bottom;verticalAlign=top;align=center;html=1;fontSize=12;fontStyle=0;aspect=fixed;pointerEvents=1;shape=mxgraph.aws4.rds_sql_server_instance;" parent="1" vertex="1">
          <mxGeometry x="259" y="601" width="78" height="78" as="geometry" />
        </mxCell>
        <mxCell id="isNOqpJSFmohrSO90Sxl-5" value="" style="sketch=0;outlineConnect=0;fontColor=#232F3E;gradientColor=none;fillColor=#C925D1;strokeColor=none;dashed=0;verticalLabelPosition=bottom;verticalAlign=top;align=center;html=1;fontSize=12;fontStyle=0;aspect=fixed;pointerEvents=1;shape=mxgraph.aws4.elasticache_for_redis;" parent="1" vertex="1">
          <mxGeometry x="395" y="608" width="78" height="69" as="geometry" />
        </mxCell>
        <mxCell id="isNOqpJSFmohrSO90Sxl-6" value="" style="outlineConnect=0;dashed=0;verticalLabelPosition=bottom;verticalAlign=top;align=center;html=1;shape=mxgraph.aws3.cloud_2;fillColor=#F58534;gradientColor=none;" parent="1" vertex="1">
          <mxGeometry x="520" y="-192" width="75" height="75" as="geometry" />
        </mxCell>
        <mxCell id="isNOqpJSFmohrSO90Sxl-8" value="" style="outlineConnect=0;dashed=0;verticalLabelPosition=bottom;verticalAlign=top;align=center;html=1;shape=mxgraph.aws3.virtual_private_cloud;fillColor=#F58534;gradientColor=none;" parent="1" vertex="1">
          <mxGeometry x="112.5" y="-69" width="79.5" height="54" as="geometry" />
        </mxCell>
        <mxCell id="isNOqpJSFmohrSO90Sxl-9" value="" style="sketch=0;outlineConnect=0;fontColor=#232F3E;gradientColor=none;fillColor=#DD344C;strokeColor=none;dashed=0;verticalLabelPosition=bottom;verticalAlign=top;align=center;html=1;fontSize=12;fontStyle=0;aspect=fixed;pointerEvents=1;shape=mxgraph.aws4.mfa_token;" parent="1" vertex="1">
          <mxGeometry x="114" y="26" width="78" height="78" as="geometry" />
        </mxCell>
        <mxCell id="isNOqpJSFmohrSO90Sxl-10" value="" style="image;aspect=fixed;html=1;points=[];align=center;fontSize=12;image=img/lib/azure2/preview/Static_Apps.svg;" parent="1" vertex="1">
          <mxGeometry x="260" y="43" width="68" height="54" as="geometry" />
        </mxCell>
        <mxCell id="isNOqpJSFmohrSO90Sxl-11" value="" style="image;aspect=fixed;html=1;points=[];align=center;fontSize=12;image=img/lib/azure2/security/Multifactor_Authentication.svg;" parent="1" vertex="1">
          <mxGeometry x="399.3" y="43" width="55.400000000000006" height="68" as="geometry" />
        </mxCell>
        <mxCell id="isNOqpJSFmohrSO90Sxl-12" value="" style="image;aspect=fixed;html=1;points=[];align=center;fontSize=12;image=img/lib/azure2/general/Templates.svg;" parent="1" vertex="1">
          <mxGeometry x="121" y="177" width="56.00000000000001" height="68" as="geometry" />
        </mxCell>
        <mxCell id="UY3vxadLS2DmRqOzKB5V-1" value="" style="image;sketch=0;aspect=fixed;html=1;points=[];align=center;fontSize=12;image=img/lib/mscae/VM_Linux.svg;" parent="1" vertex="1">
          <mxGeometry x="259" y="-273" width="50" height="46" as="geometry" />
        </mxCell>
        <mxCell id="UY3vxadLS2DmRqOzKB5V-2" value="" style="image;sketch=0;aspect=fixed;html=1;points=[];align=center;fontSize=12;image=img/lib/mscae/Docker.svg;" parent="1" vertex="1">
          <mxGeometry x="267" y="-58" width="50" height="41" as="geometry" />
        </mxCell>
        <mxCell id="UY3vxadLS2DmRqOzKB5V-3" style="edgeStyle=none;curved=1;rounded=0;orthogonalLoop=1;jettySize=auto;html=1;exitX=0.5;exitY=1;exitDx=0;exitDy=0;fontSize=12;startSize=8;endSize=8;" parent="1" source="1wDiTmR4SEPu9Raj3YBy-21" target="1wDiTmR4SEPu9Raj3YBy-21" edge="1">
          <mxGeometry relative="1" as="geometry" />
        </mxCell>
        <mxCell id="UY3vxadLS2DmRqOzKB5V-4" value="" style="image;sketch=0;aspect=fixed;html=1;points=[];align=center;fontSize=12;image=img/lib/mscae/Cache_Redis_Product.svg;" parent="1" vertex="1">
          <mxGeometry x="398" y="-271" width="50" height="42" as="geometry" />
        </mxCell>
        <mxCell id="UY3vxadLS2DmRqOzKB5V-5" value="" style="image;sketch=0;aspect=fixed;html=1;points=[];align=center;fontSize=12;image=img/lib/mscae/Kubernetes_Services.svg;" parent="1" vertex="1">
          <mxGeometry x="532.5" y="-56" width="50" height="37" as="geometry" />
        </mxCell>
        <mxCell id="fbA3kK6lakNol4dJVF7n-1" value="" style="html=1;verticalLabelPosition=bottom;align=center;labelBackgroundColor=#ffffff;verticalAlign=top;strokeWidth=2;strokeColor=#0080F0;shadow=0;dashed=0;shape=mxgraph.ios7.icons.reload;" parent="1" vertex="1">
          <mxGeometry x="537" y="-275.5" width="46" height="48.5" as="geometry" />
        </mxCell>
        <mxCell id="0UI8pQB7LznyfCMMdBI5-1" value="" style="verticalLabelPosition=bottom;sketch=0;html=1;fillColor=#52c90e;strokeColor=none;verticalAlign=top;pointerEvents=1;align=center;shape=mxgraph.cisco_safe.iot_things_icons.icon7;" vertex="1" parent="1">
          <mxGeometry x="133.5" y="-342" width="41" height="50" as="geometry" />
        </mxCell>
      </root>
    </mxGraphModel>
  </diagram>
  <diagram id="mNuz065NFMRa5ex3-xQI" name="2.Nodejs-Processes">
    <mxGraphModel dx="1268" dy="1364" grid="0" gridSize="10" guides="1" tooltips="1" connect="1" arrows="1" fold="1" page="0" pageScale="1" pageWidth="827" pageHeight="1169" math="0" shadow="0">
      <root>
        <mxCell id="0" />
        <mxCell id="1" parent="0" />
        <mxCell id="glDobKeK0mtQLZATCXBL-4" value="" style="whiteSpace=wrap;html=1;aspect=fixed;fillColor=#f0eded;" parent="1" vertex="1">
          <mxGeometry x="-132" y="-168" width="1062" height="1062" as="geometry" />
        </mxCell>
        <mxCell id="uPEbHTzYR2lVz9q7ZKnN-1" value="" style="edgeStyle=none;curved=1;rounded=0;orthogonalLoop=1;jettySize=auto;html=1;fontSize=12;startSize=8;endSize=8;" parent="1" source="glDobKeK0mtQLZATCXBL-6" target="glDobKeK0mtQLZATCXBL-7" edge="1">
          <mxGeometry relative="1" as="geometry" />
        </mxCell>
        <mxCell id="glDobKeK0mtQLZATCXBL-6" value="Node.js Process (instance of a program)" style="text;strokeColor=none;fillColor=none;html=1;fontSize=24;fontStyle=1;verticalAlign=middle;align=center;" parent="1" vertex="1">
          <mxGeometry x="156.5" y="-164" width="100" height="40" as="geometry" />
        </mxCell>
        <mxCell id="glDobKeK0mtQLZATCXBL-7" value="" style="whiteSpace=wrap;html=1;aspect=fixed;fillColor=#d3d3d3;" parent="1" vertex="1">
          <mxGeometry x="-104" y="-124" width="619" height="619" as="geometry" />
        </mxCell>
        <mxCell id="glDobKeK0mtQLZATCXBL-8" value="Initialize program" style="whiteSpace=wrap;align=center;color=#ffffff;verticalAlign=middle;fontStyle=1;strokeWidth=3;color:#ffffff;fillColor=#52a814" parent="1" vertex="1">
          <mxGeometry x="63.25" y="-61" width="286.5" height="60" as="geometry" />
        </mxCell>
        <mxCell id="glDobKeK0mtQLZATCXBL-9" value="Single Thread (Sequence of instructions)" style="text;strokeColor=none;fillColor=none;html=1;fontSize=24;fontStyle=1;verticalAlign=middle;align=center;" parent="1" vertex="1">
          <mxGeometry x="156.5" y="-114" width="100" height="40" as="geometry" />
        </mxCell>
        <mxCell id="glDobKeK0mtQLZATCXBL-10" value="Execute &quot;top-level&quot; code (imports &amp; helpers)" style="whiteSpace=wrap;align=center;color=#ffffff;verticalAlign=middle;fontStyle=1;strokeWidth=3;color:#ffffff;fillColor=#52a814" parent="1" vertex="1">
          <mxGeometry x="63.25" y="44" width="286.5" height="60" as="geometry" />
        </mxCell>
        <mxCell id="glDobKeK0mtQLZATCXBL-11" value="Require modules" style="whiteSpace=wrap;align=center;color=#ffffff;verticalAlign=middle;fontStyle=1;strokeWidth=3;color:#ffffff;fillColor=#52a814" parent="1" vertex="1">
          <mxGeometry x="63.25" y="145.5" width="286.5" height="60" as="geometry" />
        </mxCell>
        <mxCell id="glDobKeK0mtQLZATCXBL-12" value="Register event callbacks" style="whiteSpace=wrap;align=center;color=#ffffff;verticalAlign=middle;fontStyle=1;strokeWidth=3;color:#ffffff;fillColor=#52a814" parent="1" vertex="1">
          <mxGeometry x="63.25" y="250" width="286.5" height="60" as="geometry" />
        </mxCell>
        <mxCell id="glDobKeK0mtQLZATCXBL-13" value="Start Event Loop&#xa;&#xa;&#xa;&#xa;" style="whiteSpace=wrap;align=center;verticalAlign=middle;fontStyle=1;strokeWidth=3;strokeColor:#ffffff;fillColor=#52a814;labelColor=#ffffff;" parent="1" vertex="1">
          <mxGeometry x="63.25" y="355" width="286.5" height="99" as="geometry" />
        </mxCell>
        <mxCell id="kX7boMIejoi8YIENvRct-2" value="" style="html=1;verticalLabelPosition=bottom;align=center;labelBackgroundColor=#ffffff;verticalAlign=top;strokeWidth=2;strokeColor=#ffffff;shadow=0;dashed=0;shape=mxgraph.ios7.icons.reload;" parent="1" vertex="1">
          <mxGeometry x="183.5" y="395" width="46" height="48.5" as="geometry" />
        </mxCell>
        <mxCell id="YNB7s0BmoV57fC7d3RbC-1" value="" style="edgeStyle=elbowEdgeStyle;elbow=vertical;strokeColor=#990000;strokeWidth=2;exitX=0.5;exitY=1;exitDx=0;exitDy=0;" parent="1" edge="1">
          <mxGeometry width="100" height="100" relative="1" as="geometry">
            <mxPoint x="206" y="-1" as="sourcePoint" />
            <mxPoint x="206.5" y="44" as="targetPoint" />
            <Array as="points">
              <mxPoint x="247.5" y="22" />
            </Array>
          </mxGeometry>
        </mxCell>
        <mxCell id="YNB7s0BmoV57fC7d3RbC-2" value="" style="edgeStyle=elbowEdgeStyle;elbow=vertical;strokeColor=#990000;strokeWidth=2;exitX=0.5;exitY=1;exitDx=0;exitDy=0;entryX=0.5;entryY=0;entryDx=0;entryDy=0;" parent="1" target="glDobKeK0mtQLZATCXBL-11" edge="1">
          <mxGeometry width="100" height="100" relative="1" as="geometry">
            <mxPoint x="206" y="104" as="sourcePoint" />
            <mxPoint x="207" y="142" as="targetPoint" />
            <Array as="points">
              <mxPoint x="247.5" y="127" />
            </Array>
          </mxGeometry>
        </mxCell>
        <mxCell id="YNB7s0BmoV57fC7d3RbC-5" value="" style="edgeStyle=elbowEdgeStyle;elbow=vertical;strokeColor=#990000;strokeWidth=2;exitX=0.5;exitY=1;exitDx=0;exitDy=0;entryX=0.5;entryY=0;entryDx=0;entryDy=0;" parent="1" source="glDobKeK0mtQLZATCXBL-12" edge="1">
          <mxGeometry width="100" height="100" relative="1" as="geometry">
            <mxPoint x="206" y="313" as="sourcePoint" />
            <mxPoint x="207" y="355" as="targetPoint" />
            <Array as="points">
              <mxPoint x="247.5" y="336" />
            </Array>
          </mxGeometry>
        </mxCell>
        <mxCell id="YNB7s0BmoV57fC7d3RbC-6" value="" style="edgeStyle=elbowEdgeStyle;elbow=vertical;strokeColor=#990000;strokeWidth=2;entryX=0.5;entryY=0;entryDx=0;entryDy=0;" parent="1" edge="1">
          <mxGeometry width="100" height="100" relative="1" as="geometry">
            <mxPoint x="206" y="208" as="sourcePoint" />
            <mxPoint x="206" y="250" as="targetPoint" />
            <Array as="points">
              <mxPoint x="246.5" y="231" />
            </Array>
          </mxGeometry>
        </mxCell>
        <mxCell id="IYwxciIzfDEhzeWNU6Ws-1" value="" style="whiteSpace=wrap;html=1;aspect=fixed;fillColor=#d3d3d3;" parent="1" vertex="1">
          <mxGeometry x="545" y="332" width="163" height="163" as="geometry" />
        </mxCell>
        <mxCell id="IYwxciIzfDEhzeWNU6Ws-2" value="" style="whiteSpace=wrap;html=1;aspect=fixed;fillColor=#d3d3d3;" parent="1" vertex="1">
          <mxGeometry x="747" y="332" width="163" height="163" as="geometry" />
        </mxCell>
        <mxCell id="IYwxciIzfDEhzeWNU6Ws-3" value="" style="whiteSpace=wrap;html=1;aspect=fixed;fillColor=#d3d3d3;" parent="1" vertex="1">
          <mxGeometry x="545" y="147" width="163" height="163" as="geometry" />
        </mxCell>
        <mxCell id="IYwxciIzfDEhzeWNU6Ws-4" value="" style="whiteSpace=wrap;html=1;aspect=fixed;fillColor=#d3d3d3;" parent="1" vertex="1">
          <mxGeometry x="747" y="147" width="163" height="163" as="geometry" />
        </mxCell>
        <mxCell id="IYwxciIzfDEhzeWNU6Ws-5" value="Thread #1" style="text;strokeColor=none;fillColor=none;html=1;fontSize=24;fontStyle=1;verticalAlign=middle;align=center;" parent="1" vertex="1">
          <mxGeometry x="576.5" y="208.5" width="100" height="40" as="geometry" />
        </mxCell>
        <mxCell id="IYwxciIzfDEhzeWNU6Ws-7" value="Thread #2" style="text;strokeColor=none;fillColor=none;html=1;fontSize=24;fontStyle=1;verticalAlign=middle;align=center;" parent="1" vertex="1">
          <mxGeometry x="778.5" y="208.5" width="100" height="40" as="geometry" />
        </mxCell>
        <mxCell id="IYwxciIzfDEhzeWNU6Ws-8" value="Thread #3" style="text;strokeColor=none;fillColor=none;html=1;fontSize=24;fontStyle=1;verticalAlign=middle;align=center;" parent="1" vertex="1">
          <mxGeometry x="576.5" y="393.5" width="100" height="40" as="geometry" />
        </mxCell>
        <mxCell id="IYwxciIzfDEhzeWNU6Ws-9" value="Thread #4" style="text;strokeColor=none;fillColor=none;html=1;fontSize=24;fontStyle=1;verticalAlign=middle;align=center;" parent="1" vertex="1">
          <mxGeometry x="778.5" y="393.5" width="100" height="40" as="geometry" />
        </mxCell>
        <mxCell id="IYwxciIzfDEhzeWNU6Ws-10" value="THREAD POOL" style="text;strokeColor=none;fillColor=none;html=1;fontSize=24;fontStyle=1;verticalAlign=middle;align=center;" parent="1" vertex="1">
          <mxGeometry x="687" y="64" width="100" height="40" as="geometry" />
        </mxCell>
        <mxCell id="glMYOgP-KomJl83xytz5-2" value="" style="endArrow=classic;html=1;rounded=0;fontSize=12;startSize=8;endSize=8;curved=1;exitX=1;exitY=0.5;exitDx=0;exitDy=0;entryX=0;entryY=0.75;entryDx=0;entryDy=0;" parent="1" edge="1">
          <mxGeometry width="50" height="50" relative="1" as="geometry">
            <mxPoint x="349.75" y="406.5" as="sourcePoint" />
            <mxPoint x="545" y="271.25" as="targetPoint" />
          </mxGeometry>
        </mxCell>
        <mxCell id="glMYOgP-KomJl83xytz5-3" value="OFFLOAD" style="text;strokeColor=none;fillColor=none;html=1;fontSize=24;fontStyle=1;verticalAlign=middle;align=center;rotation=-35;" parent="1" vertex="1">
          <mxGeometry x="396" y="305" width="100" height="40" as="geometry" />
        </mxCell>
        <mxCell id="glMYOgP-KomJl83xytz5-5" value="- Additional 4 threads (or more)&amp;nbsp; &amp;nbsp; &amp;nbsp; &amp;nbsp;" style="text;strokeColor=none;fillColor=none;html=1;fontSize=24;fontStyle=1;verticalAlign=middle;align=center;" parent="1" vertex="1">
          <mxGeometry x="676" y="509" width="100" height="40" as="geometry" />
        </mxCell>
        <mxCell id="glMYOgP-KomJl83xytz5-6" value="- Offload work from the Event Loop" style="text;strokeColor=none;fillColor=none;html=1;fontSize=24;fontStyle=1;verticalAlign=middle;align=center;" parent="1" vertex="1">
          <mxGeometry x="675" y="549" width="100" height="40" as="geometry" />
        </mxCell>
        <mxCell id="glMYOgP-KomJl83xytz5-7" value="- Handle heavy (&quot;expensive&quot; tasks.&amp;nbsp;" style="text;strokeColor=none;fillColor=none;html=1;fontSize=24;fontStyle=1;verticalAlign=middle;align=center;" parent="1" vertex="1">
          <mxGeometry x="676" y="589" width="100" height="40" as="geometry" />
        </mxCell>
        <mxCell id="glMYOgP-KomJl83xytz5-8" value="-&amp;gt; File system APIs&amp;nbsp; &amp;nbsp; &amp;nbsp; &amp;nbsp;" style="text;strokeColor=none;fillColor=none;html=1;fontSize=24;fontStyle=1;verticalAlign=middle;align=center;" parent="1" vertex="1">
          <mxGeometry x="675" y="636" width="100" height="40" as="geometry" />
        </mxCell>
        <mxCell id="glMYOgP-KomJl83xytz5-9" value="-&amp;gt; Cryptography&amp;nbsp; &amp;nbsp; &amp;nbsp; &amp;nbsp; &amp;nbsp; &amp;nbsp;&amp;nbsp;" style="text;strokeColor=none;fillColor=none;html=1;fontSize=24;fontStyle=1;verticalAlign=middle;align=center;" parent="1" vertex="1">
          <mxGeometry x="675" y="679" width="100" height="40" as="geometry" />
        </mxCell>
        <mxCell id="h2an0XZkswU4JGPgy02Q-1" value="-&amp;gt; File Compressions" style="text;strokeColor=none;fillColor=none;html=1;fontSize=24;fontStyle=1;verticalAlign=middle;align=center;" parent="1" vertex="1">
          <mxGeometry x="662" y="722" width="100" height="40" as="geometry" />
        </mxCell>
        <mxCell id="h2an0XZkswU4JGPgy02Q-2" value="-&amp;gt; DNS Lookups&amp;nbsp; &amp;nbsp; &amp;nbsp; &amp;nbsp;&amp;nbsp;" style="text;strokeColor=none;fillColor=none;html=1;fontSize=24;fontStyle=1;verticalAlign=middle;align=center;" parent="1" vertex="1">
          <mxGeometry x="662" y="762" width="100" height="40" as="geometry" />
        </mxCell>
      </root>
    </mxGraphModel>
  </diagram>
  <diagram id="PFPOouhcjxwzXpRsXLjS" name="3.Event-Loop-in-details">
    <mxGraphModel dx="1087" dy="1171" grid="0" gridSize="10" guides="1" tooltips="1" connect="1" arrows="1" fold="1" page="0" pageScale="1" pageWidth="827" pageHeight="1169" math="0" shadow="0">
      <root>
        <mxCell id="0" />
        <mxCell id="1" parent="0" />
        <mxCell id="-wboiHkFHjtuiwEDj9qi-1" value="" style="whiteSpace=wrap;html=1;aspect=fixed;fillColor=#f0eded;" parent="1" vertex="1">
          <mxGeometry x="-132" y="-168" width="697" height="697" as="geometry" />
        </mxCell>
        <mxCell id="-wboiHkFHjtuiwEDj9qi-2" value="" style="whiteSpace=wrap;html=1;aspect=fixed;fillColor=#d3d3d3;" parent="1" vertex="1">
          <mxGeometry x="-86" y="-129" width="619" height="619" as="geometry" />
        </mxCell>
        <mxCell id="-wboiHkFHjtuiwEDj9qi-3" value="Expired timer callbacks" style="whiteSpace=wrap;align=center;color=#ffffff;verticalAlign=middle;fontStyle=1;strokeWidth=3;color:#ffffff;fillColor=#52a814" parent="1" vertex="1">
          <mxGeometry x="63.25" y="-8" width="286.5" height="60" as="geometry" />
        </mxCell>
        <mxCell id="-wboiHkFHjtuiwEDj9qi-4" value="I/O polling &amp; callbacks" style="whiteSpace=wrap;align=center;color=#ffffff;verticalAlign=middle;fontStyle=1;strokeWidth=3;color:#ffffff;fillColor=#52a814" parent="1" vertex="1">
          <mxGeometry x="63.25" y="97" width="286.5" height="60" as="geometry" />
        </mxCell>
        <mxCell id="-wboiHkFHjtuiwEDj9qi-5" value="setImmediate callbacks" style="whiteSpace=wrap;align=center;color=#ffffff;verticalAlign=middle;fontStyle=1;strokeWidth=3;color:#ffffff;fillColor=#52a814" parent="1" vertex="1">
          <mxGeometry x="63.25" y="198.5" width="286.5" height="60" as="geometry" />
        </mxCell>
        <mxCell id="-wboiHkFHjtuiwEDj9qi-6" value="Close callbacks" style="whiteSpace=wrap;align=center;color=#ffffff;verticalAlign=middle;fontStyle=1;strokeWidth=3;color:#ffffff;fillColor=#52a814" parent="1" vertex="1">
          <mxGeometry x="63.25" y="303" width="286.5" height="60" as="geometry" />
        </mxCell>
        <mxCell id="erthYT799F97rovpJ0cW-1" value="Start" style="text;strokeColor=none;fillColor=none;html=1;fontSize=24;fontStyle=1;verticalAlign=middle;align=center;" parent="1" vertex="1">
          <mxGeometry x="155.5" y="-72" width="100" height="40" as="geometry" />
        </mxCell>
        <mxCell id="mwvS1Ap7cgPeLZsrM5CB-1" value="" style="edgeStyle=elbowEdgeStyle;elbow=vertical;strokeColor=#990000;strokeWidth=2;entryX=0.5;entryY=0;entryDx=0;entryDy=0;" parent="1" edge="1">
          <mxGeometry width="100" height="100" relative="1" as="geometry">
            <mxPoint x="206" y="260" as="sourcePoint" />
            <mxPoint x="206" y="302" as="targetPoint" />
            <Array as="points">
              <mxPoint x="246.5" y="283" />
            </Array>
          </mxGeometry>
        </mxCell>
        <mxCell id="mwvS1Ap7cgPeLZsrM5CB-2" value="" style="edgeStyle=elbowEdgeStyle;elbow=vertical;strokeColor=#990000;strokeWidth=2;entryX=0.5;entryY=0;entryDx=0;entryDy=0;" parent="1" edge="1">
          <mxGeometry width="100" height="100" relative="1" as="geometry">
            <mxPoint x="206" y="157" as="sourcePoint" />
            <mxPoint x="206" y="199" as="targetPoint" />
            <Array as="points">
              <mxPoint x="246.5" y="180" />
            </Array>
          </mxGeometry>
        </mxCell>
        <mxCell id="mwvS1Ap7cgPeLZsrM5CB-3" value="" style="edgeStyle=elbowEdgeStyle;elbow=vertical;strokeColor=#990000;strokeWidth=2;entryX=0.5;entryY=0;entryDx=0;entryDy=0;" parent="1" edge="1">
          <mxGeometry width="100" height="100" relative="1" as="geometry">
            <mxPoint x="206" y="53" as="sourcePoint" />
            <mxPoint x="206" y="95" as="targetPoint" />
            <Array as="points">
              <mxPoint x="246.5" y="76" />
            </Array>
          </mxGeometry>
        </mxCell>
        <mxCell id="mwvS1Ap7cgPeLZsrM5CB-4" value="" style="edgeStyle=elbowEdgeStyle;elbow=vertical;strokeColor=#990000;strokeWidth=2;entryX=0.5;entryY=0;entryDx=0;entryDy=0;" parent="1" edge="1">
          <mxGeometry width="100" height="100" relative="1" as="geometry">
            <mxPoint x="206" y="-41" as="sourcePoint" />
            <mxPoint x="206" y="-9" as="targetPoint" />
            <Array as="points">
              <mxPoint x="246.5" y="-28" />
            </Array>
          </mxGeometry>
        </mxCell>
        <mxCell id="mwvS1Ap7cgPeLZsrM5CB-5" value="Event Loop in detail" style="text;strokeColor=none;fillColor=none;html=1;fontSize=24;fontStyle=1;verticalAlign=middle;align=center;" parent="1" vertex="1">
          <mxGeometry x="-49" y="-168" width="100" height="40" as="geometry" />
        </mxCell>
        <mxCell id="mwvS1Ap7cgPeLZsrM5CB-6" value="Callback&lt;div&gt;queues&lt;/div&gt;" style="text;strokeColor=none;fillColor=none;html=1;fontSize=24;fontStyle=1;verticalAlign=middle;align=center;" parent="1" vertex="1">
          <mxGeometry x="392" y="-62" width="100" height="40" as="geometry" />
        </mxCell>
      </root>
    </mxGraphModel>
  </diagram>
  <diagram id="StD1OgRGnzuQqeiyS6bS" name="0-NoSQL-vs-SQL">
    <mxGraphModel dx="1087" dy="1171" grid="0" gridSize="10" guides="1" tooltips="1" connect="1" arrows="1" fold="1" page="0" pageScale="1" pageWidth="827" pageHeight="1169" math="0" shadow="0">
      <root>
        <mxCell id="0" />
        <mxCell id="1" parent="0" />
        <mxCell id="mgxl76x7QrMjUIGk2s-J-1" value="    - Alternative to RDBMS&#xa;&#xa;    - No strict schemas, fewer relations&#xa;&#xa;    - Schemas can be used &amp; &#xa;      Reference-based offers more flexibility&#xa;&#xa;    - Relations via Embedding documents&#xa;&#xa;    - All dbOps are Promise-based &#xa;    native to Node.js Promises chaining&#xa;" style="whiteSpace=wrap;align=center;verticalAlign=middle;fontStyle=1;strokeWidth=3;fillColor=#df8df0;align=left;" vertex="1" parent="1">
          <mxGeometry x="-127" y="27" width="307" height="601" as="geometry" />
        </mxCell>
        <mxCell id="mgxl76x7QrMjUIGk2s-J-2" value="- Node.js MongoDB official Driver&#xa;&#xa;- CRUD:&#xa;   READ&#xa;   .find() =&gt; returns a curson&#xa;    vs&#xa;    SELECT * FROM `table_name`;&#xa;&#xa;&#xa;    CREATE&#xa;&#xa;    .insertOne() &amp; .insertMany()&#xa;    vs&#xa;    INSERT INTO `table_name` (col1, col2,...)&#xa;    VALUES (value1, value2, ...);&#xa;&#xa;    UPDATE&#xa;    .updateOne() &amp; .updateMany()&#xa;    UPDATE `table_name`&#xa;    SET col1 = value1, &#xa;    col2 = value2, &#xa;    col3 = value3&#xa;    WHERE column1 = &#39;&#39; AND column2 = &#39;&#39;;&#xa;&#xa;    DELETE&#xa;    .deleteOne()&#xa;    vs&#xa;    DELETE FROM `table_name`&#xa;    WHERE condition;&#xa;&#xa;    .deleteMany( {} );&#xa;&#xa;    vs&#xa;    BEGIN;&#xa;    DELETE FROM `table_name`;&#xa;    COMMIT;       -- Check if dbOp succeeds&#xa;&#xa;    ROLLBACK; -- rollback if sth fails&#xa;&#xa;" style="whiteSpace=wrap;align=center;verticalAlign=middle;fontStyle=1;strokeWidth=3;fillColor=#df8df0;align=left;" vertex="1" parent="1">
          <mxGeometry x="228" y="27" width="307" height="601" as="geometry" />
        </mxCell>
        <mxCell id="yHXje0-E4ibfZrqsx-hF-1" value="NoSQL / MongoDB" style="whiteSpace=wrap;align=center;verticalAlign=middle;fontStyle=1;strokeWidth=3;fillColor=#b744cf" vertex="1" parent="1">
          <mxGeometry x="-127" y="-61" width="306" height="64" as="geometry" />
        </mxCell>
        <mxCell id="yHXje0-E4ibfZrqsx-hF-2" value="Working with MongoDB" style="whiteSpace=wrap;align=center;verticalAlign=middle;fontStyle=1;strokeWidth=3;fillColor=#b744cf" vertex="1" parent="1">
          <mxGeometry x="228" y="-61" width="306" height="64" as="geometry" />
        </mxCell>
      </root>
    </mxGraphModel>
  </diagram>
  <diagram id="cqrkBHCTPUpssB_ukd5Q" name="1.Working-with-MongoDB">
    <mxGraphModel dx="1094" dy="1171" grid="0" gridSize="10" guides="1" tooltips="1" connect="1" arrows="1" fold="1" page="0" pageScale="1" pageWidth="827" pageHeight="1169" math="0" shadow="0">
      <root>
        <mxCell id="0" />
        <mxCell id="1" parent="0" />
        <mxCell id="Cx0xww4FiyB3H3jO2PEg-1" value="Application" style="whiteSpace=wrap;align=center;verticalAlign=middle;fontStyle=1;strokeWidth=3;fillColor=#FFFF00" vertex="1" parent="1">
          <mxGeometry x="-105" y="-134" width="286.5" height="60" as="geometry" />
        </mxCell>
        <mxCell id="Cx0xww4FiyB3H3jO2PEg-2" value="Frontend&#xa;(UI)" style="whiteSpace=wrap;align=center;verticalAlign=middle;fontStyle=1;strokeWidth=3;fillColor=#FFFF00" vertex="1" parent="1">
          <mxGeometry x="-105" y="-51" width="84" height="60" as="geometry" />
        </mxCell>
        <mxCell id="Cx0xww4FiyB3H3jO2PEg-3" value="Backend&#xa;(Server)" style="whiteSpace=wrap;align=center;verticalAlign=middle;fontStyle=1;strokeWidth=3;fillColor=#02D8E9" vertex="1" parent="1">
          <mxGeometry x="22" y="-51" width="82" height="60" as="geometry" />
        </mxCell>
        <mxCell id="Cx0xww4FiyB3H3jO2PEg-4" value="Drivers" style="whiteSpace=wrap;align=center;verticalAlign=middle;fontStyle=1;strokeWidth=3;fillColor=#FFA500" vertex="1" parent="1">
          <mxGeometry x="110" y="-51" width="71.5" height="60" as="geometry" />
        </mxCell>
        <mxCell id="Cx0xww4FiyB3H3jO2PEg-5" value="Node.js" style="whiteSpace=wrap;align=center;verticalAlign=middle;fontStyle=1;strokeWidth=3;fillColor=#FFC0CB" vertex="1" parent="1">
          <mxGeometry x="110" y="16" width="71.5" height="39" as="geometry" />
        </mxCell>
        <mxCell id="Cx0xww4FiyB3H3jO2PEg-6" value="Java" style="whiteSpace=wrap;align=center;verticalAlign=middle;fontStyle=1;strokeWidth=3;fillColor=#FFC0CB" vertex="1" parent="1">
          <mxGeometry x="110" y="60" width="71.5" height="39" as="geometry" />
        </mxCell>
        <mxCell id="Cx0xww4FiyB3H3jO2PEg-7" value="Python" style="whiteSpace=wrap;align=center;verticalAlign=middle;fontStyle=1;strokeWidth=3;fillColor=#FFC0CB" vertex="1" parent="1">
          <mxGeometry x="110" y="104" width="71.5" height="39" as="geometry" />
        </mxCell>
        <mxCell id="Cx0xww4FiyB3H3jO2PEg-8" value="MongoDB Shell" style="whiteSpace=wrap;align=center;verticalAlign=middle;fontStyle=1;strokeWidth=3;fillColor=#FFA500" vertex="1" parent="1">
          <mxGeometry x="40" y="170" width="141.5" height="60" as="geometry" />
        </mxCell>
        <mxCell id="Cx0xww4FiyB3H3jO2PEg-9" value="Data" style="whiteSpace=wrap;align=center;verticalAlign=middle;fontStyle=1;strokeWidth=3;fillColor=#52c90e" vertex="1" parent="1">
          <mxGeometry x="273" y="-134" width="286.5" height="60" as="geometry" />
        </mxCell>
        <mxCell id="ZgiWSBbuqVNcPponKptq-9" value="" style="edgeStyle=none;curved=1;rounded=0;orthogonalLoop=1;jettySize=auto;html=1;fontSize=12;startSize=8;endSize=8;" edge="1" parent="1" source="Cx0xww4FiyB3H3jO2PEg-10" target="qaCohKuWHSmaJPtPpErs-1">
          <mxGeometry relative="1" as="geometry" />
        </mxCell>
        <mxCell id="Cx0xww4FiyB3H3jO2PEg-10" value="MongoDB&#xa;Server" style="whiteSpace=wrap;align=center;verticalAlign=middle;fontStyle=1;strokeWidth=3;fillColor=#52c90e" vertex="1" parent="1">
          <mxGeometry x="273" y="-53" width="85" height="158" as="geometry" />
        </mxCell>
        <mxCell id="Cx0xww4FiyB3H3jO2PEg-11" value="Storage Engine" style="whiteSpace=wrap;align=center;verticalAlign=middle;fontStyle=1;strokeWidth=3;fillColor=#52c90e" vertex="1" parent="1">
          <mxGeometry x="394" y="-53" width="84" height="158" as="geometry" />
        </mxCell>
        <mxCell id="qaCohKuWHSmaJPtPpErs-1" value="" style="verticalLabelPosition=bottom;sketch=0;html=1;fillColor=#52c90e;strokeColor=none;verticalAlign=top;pointerEvents=1;align=center;shape=mxgraph.cisco_safe.iot_things_icons.icon7;" vertex="1" parent="1">
          <mxGeometry x="514" y="-13.75" width="45.5" height="79.5" as="geometry" />
        </mxCell>
        <mxCell id="kE7F53Z1uQKF8Zc8OwXO-1" value="" style="edgeStyle=elbowEdgeStyle;elbow=vertical;strokeColor=#990000;strokeWidth=2;entryX=1;entryY=0.5;entryDx=0;entryDy=0;exitX=0;exitY=0.5;exitDx=0;exitDy=0;" edge="1" parent="1">
          <mxGeometry width="100" height="100" relative="1" as="geometry">
            <mxPoint x="394" y="26" as="sourcePoint" />
            <mxPoint x="358" y="26" as="targetPoint" />
            <Array as="points">
              <mxPoint x="371" y="26" />
            </Array>
          </mxGeometry>
        </mxCell>
        <mxCell id="ZgiWSBbuqVNcPponKptq-4" value="" style="edgeStyle=elbowEdgeStyle;elbow=vertical;strokeColor=#990000;strokeWidth=2;" edge="1" parent="1">
          <mxGeometry width="100" height="100" relative="1" as="geometry">
            <mxPoint x="495" y="26" as="sourcePoint" />
            <mxPoint x="515" y="26.47" as="targetPoint" />
            <Array as="points" />
          </mxGeometry>
        </mxCell>
        <mxCell id="ZgiWSBbuqVNcPponKptq-6" value="" style="edgeStyle=elbowEdgeStyle;elbow=vertical;strokeColor=#990000;strokeWidth=2;entryX=1;entryY=0.5;entryDx=0;entryDy=0;exitX=0;exitY=0.5;exitDx=0;exitDy=0;" edge="1" parent="1">
          <mxGeometry width="100" height="100" relative="1" as="geometry">
            <mxPoint x="515" y="26" as="sourcePoint" />
            <mxPoint x="479" y="26" as="targetPoint" />
            <Array as="points">
              <mxPoint x="492" y="26" />
            </Array>
          </mxGeometry>
        </mxCell>
        <mxCell id="ZgiWSBbuqVNcPponKptq-8" value="" style="edgeStyle=elbowEdgeStyle;elbow=vertical;strokeColor=#990000;strokeWidth=2;" edge="1" parent="1">
          <mxGeometry width="100" height="100" relative="1" as="geometry">
            <mxPoint x="374" y="26" as="sourcePoint" />
            <mxPoint x="394" y="26.47" as="targetPoint" />
            <Array as="points" />
          </mxGeometry>
        </mxCell>
        <mxCell id="xZsCSj7VnlqxwccGkamI-2" value="" style="endArrow=classic;startArrow=classic;html=1;rounded=0;fontSize=12;startSize=8;endSize=8;curved=1;exitX=1;exitY=0.5;exitDx=0;exitDy=0;" edge="1" parent="1" source="Cx0xww4FiyB3H3jO2PEg-8">
          <mxGeometry width="50" height="50" relative="1" as="geometry">
            <mxPoint x="220" y="77" as="sourcePoint" />
            <mxPoint x="271" y="26" as="targetPoint" />
          </mxGeometry>
        </mxCell>
        <mxCell id="xZsCSj7VnlqxwccGkamI-3" value="" style="endArrow=classic;startArrow=classic;html=1;rounded=0;fontSize=12;startSize=8;endSize=8;curved=1;entryX=0;entryY=0.5;entryDx=0;entryDy=0;exitX=1;exitY=0.5;exitDx=0;exitDy=0;" edge="1" parent="1" source="Cx0xww4FiyB3H3jO2PEg-4" target="Cx0xww4FiyB3H3jO2PEg-10">
          <mxGeometry width="50" height="50" relative="1" as="geometry">
            <mxPoint x="192" y="210" as="sourcePoint" />
            <mxPoint x="283" y="36" as="targetPoint" />
          </mxGeometry>
        </mxCell>
        <mxCell id="TkjWFMztf9PXUph-fYsY-1" value="Working with MongoDB" style="text;strokeColor=none;fillColor=none;html=1;fontSize=24;fontStyle=1;verticalAlign=middle;align=center;" vertex="1" parent="1">
          <mxGeometry x="181.5" y="-207" width="100" height="40" as="geometry" />
        </mxCell>
        <mxCell id="TkjWFMztf9PXUph-fYsY-2" value="Playground, Administration" style="text;html=1;align=center;verticalAlign=middle;whiteSpace=wrap;rounded=0;fontSize=16;color=#fcbe4c;" vertex="1" parent="1">
          <mxGeometry x="39" y="237" width="143" height="42" as="geometry" />
        </mxCell>
        <mxCell id="TkjWFMztf9PXUph-fYsY-3" value="Queries" style="text;html=1;align=center;verticalAlign=middle;whiteSpace=wrap;rounded=0;fontSize=16;color=#fcbe4c;" vertex="1" parent="1">
          <mxGeometry x="190" y="3" width="76" height="42" as="geometry" />
        </mxCell>
        <mxCell id="TkjWFMztf9PXUph-fYsY-4" value="Communicate" style="text;html=1;align=center;verticalAlign=middle;whiteSpace=wrap;rounded=0;fontSize=16;color=#fcbe4c;" vertex="1" parent="1">
          <mxGeometry x="321" y="101" width="114" height="42" as="geometry" />
        </mxCell>
        <mxCell id="TkjWFMztf9PXUph-fYsY-5" value="File/ Data&lt;div&gt;Access&lt;/div&gt;" style="text;html=1;align=center;verticalAlign=middle;whiteSpace=wrap;rounded=0;fontSize=16;color=#fcbe4c;" vertex="1" parent="1">
          <mxGeometry x="457" y="109" width="82.5" height="42" as="geometry" />
        </mxCell>
      </root>
    </mxGraphModel>
  </diagram>
  <diagram id="MGd3iq6_WHF5ZXtwIJGA" name="2. how-MongoDB-works">
    <mxGraphModel dx="1087" dy="1171" grid="0" gridSize="10" guides="1" tooltips="1" connect="1" arrows="1" fold="1" page="0" pageScale="1" pageWidth="827" pageHeight="1169" math="0" shadow="0">
      <root>
        <mxCell id="0" />
        <mxCell id="1" parent="0" />
        <mxCell id="EKwjbM-xbzl1qzEZGNUH-1" value="How MongoDB works" style="text;strokeColor=none;fillColor=none;html=1;fontSize=24;fontStyle=1;verticalAlign=middle;align=center;" parent="1" vertex="1">
          <mxGeometry x="161" y="-122" width="100" height="40" as="geometry" />
        </mxCell>
        <mxCell id="ynQHvo2JOqZ9XNMwMWxJ-1" value="Database" style="whiteSpace=wrap;align=center;verticalAlign=middle;fontStyle=1;strokeWidth=3;fillColor=#9655a3" parent="1" vertex="1">
          <mxGeometry x="-95" y="-61" width="144" height="64" as="geometry" />
        </mxCell>
        <mxCell id="ynQHvo2JOqZ9XNMwMWxJ-2" value="Shop" style="whiteSpace=wrap;align=center;verticalAlign=middle;fontStyle=1;strokeWidth=3;fillColor=#df8df0" parent="1" vertex="1">
          <mxGeometry x="54" y="-61" width="440" height="64" as="geometry" />
        </mxCell>
        <mxCell id="T2dneAinut5jyl3SVtw0-1" value="Collections" style="whiteSpace=wrap;align=center;verticalAlign=middle;fontStyle=1;strokeWidth=3;fillColor=#FFA500" parent="1" vertex="1">
          <mxGeometry x="-95" y="33" width="143" height="71" as="geometry" />
        </mxCell>
        <mxCell id="T2dneAinut5jyl3SVtw0-2" value="Users" style="whiteSpace=wrap;align=center;verticalAlign=middle;fontStyle=1;strokeWidth=3;fillColor=#FFA500" parent="1" vertex="1">
          <mxGeometry x="73" y="33" width="180" height="71" as="geometry" />
        </mxCell>
        <mxCell id="T2dneAinut5jyl3SVtw0-3" value="Orders" style="whiteSpace=wrap;align=center;verticalAlign=middle;fontStyle=1;strokeWidth=3;fillColor=#FFA500" parent="1" vertex="1">
          <mxGeometry x="289" y="33" width="204" height="71" as="geometry" />
        </mxCell>
        <mxCell id="T2dneAinut5jyl3SVtw0-9" value="" style="shape=partialRectangle;whiteSpace=wrap;html=1;bottom=1;right=1;left=1;top=0;fillColor=none;routingCenterX=-0.5;direction=west;" parent="1" vertex="1">
          <mxGeometry x="163" y="18" width="228" height="15" as="geometry" />
        </mxCell>
        <mxCell id="T2dneAinut5jyl3SVtw0-10" value="" style="line;strokeWidth=2;direction=south;html=1;" parent="1" vertex="1">
          <mxGeometry x="269" y="5" width="10" height="13" as="geometry" />
        </mxCell>
        <mxCell id="T2dneAinut5jyl3SVtw0-12" value="Documents" style="whiteSpace=wrap;align=center;verticalAlign=middle;fontStyle=1;strokeWidth=3;fillColor=#fcc397" parent="1" vertex="1">
          <mxGeometry x="-95" y="134" width="143" height="71" as="geometry" />
        </mxCell>
        <mxCell id="T2dneAinut5jyl3SVtw0-13" value="{ name: &#39;user1&#39;, age: 100 }" style="whiteSpace=wrap;align=center;verticalAlign=middle;fontStyle=1;strokeWidth=3;fillColor=#fcc397" parent="1" vertex="1">
          <mxGeometry x="73" y="134" width="179" height="32" as="geometry" />
        </mxCell>
        <mxCell id="T2dneAinut5jyl3SVtw0-14" value="{ name: &#39;user2&#39; }" style="whiteSpace=wrap;align=center;verticalAlign=middle;fontStyle=1;strokeWidth=3;fillColor=#fcc397" parent="1" vertex="1">
          <mxGeometry x="73" y="170" width="179" height="35" as="geometry" />
        </mxCell>
        <mxCell id="T2dneAinut5jyl3SVtw0-15" value="{ ... }" style="whiteSpace=wrap;align=center;verticalAlign=middle;fontStyle=1;strokeWidth=3;fillColor=#fcc397" parent="1" vertex="1">
          <mxGeometry x="289" y="134" width="204" height="32" as="geometry" />
        </mxCell>
        <mxCell id="T2dneAinut5jyl3SVtw0-16" value="{ ... }" style="whiteSpace=wrap;align=center;verticalAlign=middle;fontStyle=1;strokeWidth=3;fillColor=#fcc397" parent="1" vertex="1">
          <mxGeometry x="289" y="171" width="204" height="32" as="geometry" />
        </mxCell>
        <mxCell id="mzxAO2Za-9VD8A6owMZj-4" value="MongoDB is Schemaless!" style="text;html=1;align=center;verticalAlign=middle;whiteSpace=wrap;rounded=0;fontSize=16;color=#FFA500;" parent="1" vertex="1">
          <mxGeometry x="98.5" y="214" width="129" height="30" as="geometry" />
        </mxCell>
      </root>
    </mxGraphModel>
  </diagram>
  <diagram id="MQrSWuvNCCzyoFaIdmBq" name="3.MongoDB-writeConcern">
    <mxGraphModel dx="1163" dy="1257" grid="0" gridSize="10" guides="1" tooltips="1" connect="1" arrows="1" fold="1" page="0" pageScale="1" pageWidth="827" pageHeight="1169" math="0" shadow="0">
      <root>
        <mxCell id="0" />
        <mxCell id="1" parent="0" />
        <mxCell id="dNigb-Tp1lpoMohZQNvg-1" value="MongoDB writeConcern" style="text;strokeColor=none;fillColor=none;html=1;fontSize=24;fontStyle=1;verticalAlign=middle;align=center;" vertex="1" parent="1">
          <mxGeometry x="177.62" y="-95" width="100" height="40" as="geometry" />
        </mxCell>
        <mxCell id="XYfVONf5cr0-sxBTFais-1" value="Client (mongosh)" style="whiteSpace=wrap;align=center;verticalAlign=middle;fontStyle=1;strokeWidth=3;fillColor=#52c90e" vertex="1" parent="1">
          <mxGeometry x="-96" y="-25" width="175" height="60" as="geometry" />
        </mxCell>
        <mxCell id="4kOEC1jMKKc-K0xOuUSO-1" value="" style="edgeStyle=elbowEdgeStyle;elbow=vertical;strokeColor=#990000;strokeWidth=2;" edge="1" parent="1">
          <mxGeometry width="100" height="100" relative="1" as="geometry">
            <mxPoint x="79" y="4.5" as="sourcePoint" />
            <mxPoint x="139" y="5" as="targetPoint" />
            <Array as="points">
              <mxPoint x="203" y="4.5" />
            </Array>
          </mxGeometry>
        </mxCell>
        <mxCell id="4kOEC1jMKKc-K0xOuUSO-2" value="MongoDB Server (mongod)" style="whiteSpace=wrap;align=center;verticalAlign=middle;fontStyle=1;strokeWidth=3;fillColor=#52c90e" vertex="1" parent="1">
          <mxGeometry x="138" y="-25" width="175" height="60" as="geometry" />
        </mxCell>
        <mxCell id="4kOEC1jMKKc-K0xOuUSO-3" value="" style="edgeStyle=elbowEdgeStyle;elbow=vertical;strokeColor=#990000;strokeWidth=2;" edge="1" parent="1">
          <mxGeometry width="100" height="100" relative="1" as="geometry">
            <mxPoint x="315" y="4.5" as="sourcePoint" />
            <mxPoint x="375" y="5" as="targetPoint" />
            <Array as="points">
              <mxPoint x="439" y="4.5" />
            </Array>
          </mxGeometry>
        </mxCell>
        <mxCell id="4kOEC1jMKKc-K0xOuUSO-4" value="Storage Engine" style="whiteSpace=wrap;align=center;verticalAlign=middle;fontStyle=1;strokeWidth=3;fillColor=#52c90e" vertex="1" parent="1">
          <mxGeometry x="375" y="-25" width="175" height="60" as="geometry" />
        </mxCell>
        <mxCell id="Ceo3AvdBiMRk8uM6p9wR-1" value="Memory" style="whiteSpace=wrap;align=center;verticalAlign=middle;fontStyle=1;strokeWidth=3;fillColor=#52c90e" vertex="1" parent="1">
          <mxGeometry x="375" y="66" width="73" height="60" as="geometry" />
        </mxCell>
        <mxCell id="Ceo3AvdBiMRk8uM6p9wR-2" value="Data on Disk" style="whiteSpace=wrap;align=center;verticalAlign=middle;fontStyle=1;strokeWidth=3;fillColor=#52c90e" vertex="1" parent="1">
          <mxGeometry x="482" y="66" width="68" height="60" as="geometry" />
        </mxCell>
        <mxCell id="Ceo3AvdBiMRk8uM6p9wR-3" value="" style="endArrow=classic;html=1;rounded=0;fontSize=12;startSize=8;endSize=8;curved=1;exitX=0.5;exitY=1;exitDx=0;exitDy=0;entryX=0.5;entryY=0;entryDx=0;entryDy=0;" edge="1" parent="1" source="4kOEC1jMKKc-K0xOuUSO-4" target="Ceo3AvdBiMRk8uM6p9wR-1">
          <mxGeometry width="50" height="50" relative="1" as="geometry">
            <mxPoint x="181" y="214" as="sourcePoint" />
            <mxPoint x="231" y="164" as="targetPoint" />
          </mxGeometry>
        </mxCell>
        <mxCell id="Ceo3AvdBiMRk8uM6p9wR-4" value="" style="endArrow=classic;html=1;rounded=0;fontSize=12;startSize=8;endSize=8;curved=1;entryX=0.5;entryY=0;entryDx=0;entryDy=0;exitX=0.553;exitY=0.983;exitDx=0;exitDy=0;exitPerimeter=0;" edge="1" parent="1" source="4kOEC1jMKKc-K0xOuUSO-4" target="Ceo3AvdBiMRk8uM6p9wR-2">
          <mxGeometry width="50" height="50" relative="1" as="geometry">
            <mxPoint x="471" y="39" as="sourcePoint" />
            <mxPoint x="422" y="76" as="targetPoint" />
          </mxGeometry>
        </mxCell>
        <mxCell id="Ceo3AvdBiMRk8uM6p9wR-5" value="e.g. insertOne()" style="text;html=1;align=center;verticalAlign=middle;whiteSpace=wrap;rounded=0;fontSize=16;" vertex="1" parent="1">
          <mxGeometry x="-24" y="36" width="132" height="30" as="geometry" />
        </mxCell>
        <mxCell id="Eom1mALQL57BaeT5rP-a-1" value="" style="edgeStyle=elbowEdgeStyle;elbow=vertical;strokeColor=#990000;strokeWidth=2;exitX=0.5;exitY=1;exitDx=0;exitDy=0;" edge="1" parent="1" source="Ceo3AvdBiMRk8uM6p9wR-5">
          <mxGeometry width="100" height="100" relative="1" as="geometry">
            <mxPoint x="163" y="190" as="sourcePoint" />
            <mxPoint x="120" y="225" as="targetPoint" />
            <Array as="points">
              <mxPoint x="103" y="225" />
            </Array>
          </mxGeometry>
        </mxCell>
        <mxCell id="_vLupN_qm5JOYlyBdf1X-1" value="{ w: 1, j: undefined }&#xa;&#xa;{ w: numInstanceAck, j: journal }" style="whiteSpace=wrap;align=center;verticalAlign=middle;fontStyle=1;strokeWidth=3;fillColor=#FFA500" vertex="1" parent="1">
          <mxGeometry x="121" y="203" width="213.25" height="50" as="geometry" />
        </mxCell>
        <mxCell id="_vLupN_qm5JOYlyBdf1X-2" value="" style="edgeStyle=elbowEdgeStyle;elbow=vertical;strokeColor=#990000;strokeWidth=2;exitX=0.5;exitY=1;exitDx=0;exitDy=0;" edge="1" parent="1">
          <mxGeometry width="100" height="100" relative="1" as="geometry">
            <mxPoint x="468" y="36" as="sourcePoint" />
            <mxPoint x="489" y="195" as="targetPoint" />
            <Array as="points">
              <mxPoint x="529" y="195" />
            </Array>
          </mxGeometry>
        </mxCell>
        <mxCell id="_vLupN_qm5JOYlyBdf1X-3" value="Journal (&quot;Todos&quot;) in Storage&#xa;&#xa;We call it &quot;compass&quot; in SQL" style="whiteSpace=wrap;align=center;verticalAlign=middle;fontStyle=1;strokeWidth=3;fillColor=#FFA500" vertex="1" parent="1">
          <mxGeometry x="491" y="171" width="187" height="50" as="geometry" />
        </mxCell>
        <mxCell id="_vLupN_qm5JOYlyBdf1X-4" value="" style="edgeStyle=elbowEdgeStyle;elbow=vertical;strokeColor=#990000;strokeWidth=2;exitX=0.5;exitY=1;exitDx=0;exitDy=0;" edge="1" parent="1">
          <mxGeometry width="100" height="100" relative="1" as="geometry">
            <mxPoint x="41" y="145" as="sourcePoint" />
            <mxPoint x="119" y="304" as="targetPoint" />
            <Array as="points">
              <mxPoint x="102" y="304" />
            </Array>
          </mxGeometry>
        </mxCell>
        <mxCell id="_vLupN_qm5JOYlyBdf1X-5" value="Only report OK operations{ w: 1, j: 1 }" style="whiteSpace=wrap;align=center;verticalAlign=middle;fontStyle=1;strokeWidth=3;fillColor=#FFA500" vertex="1" parent="1">
          <mxGeometry x="121" y="279" width="213.25" height="50" as="geometry" />
        </mxCell>
        <mxCell id="_vLupN_qm5JOYlyBdf1X-6" value="" style="endArrow=none;dashed=1;html=1;dashPattern=1 3;strokeWidth=2;rounded=0;fontSize=12;startSize=8;endSize=8;curved=1;entryX=0.5;entryY=1;entryDx=0;entryDy=0;" edge="1" parent="1" target="_vLupN_qm5JOYlyBdf1X-3">
          <mxGeometry width="50" height="50" relative="1" as="geometry">
            <mxPoint x="339" y="305" as="sourcePoint" />
            <mxPoint x="389" y="255" as="targetPoint" />
          </mxGeometry>
        </mxCell>
        <mxCell id="_vLupN_qm5JOYlyBdf1X-7" value="" style="edgeStyle=elbowEdgeStyle;elbow=vertical;strokeColor=#990000;strokeWidth=2;exitX=0.5;exitY=1;exitDx=0;exitDy=0;" edge="1" parent="1">
          <mxGeometry width="100" height="100" relative="1" as="geometry">
            <mxPoint x="41" y="221" as="sourcePoint" />
            <mxPoint x="119" y="380" as="targetPoint" />
            <Array as="points">
              <mxPoint x="102" y="380" />
            </Array>
          </mxGeometry>
        </mxCell>
        <mxCell id="_vLupN_qm5JOYlyBdf1X-8" value="Specify write timeout&#xa;{ w: 1, wtimeout: 200, j: true }" style="whiteSpace=wrap;align=center;verticalAlign=middle;fontStyle=1;strokeWidth=3;fillColor=#FFA500" vertex="1" parent="1">
          <mxGeometry x="121" y="355" width="213.25" height="50" as="geometry" />
        </mxCell>
      </root>
    </mxGraphModel>
  </diagram>
  <diagram id="OuF2e9O5FLfrAfBDIFQj" name="4.MongoDB-Atomicity">
    <mxGraphModel dx="1087" dy="1171" grid="0" gridSize="10" guides="1" tooltips="1" connect="1" arrows="1" fold="1" page="0" pageScale="1" pageWidth="827" pageHeight="1169" math="0" shadow="0">
      <root>
        <mxCell id="0" />
        <mxCell id="1" parent="0" />
        <mxCell id="gLuGT_JJOOwzHPFZCEzL-1" value="Atomicity" style="text;strokeColor=none;fillColor=none;html=1;fontSize=24;fontStyle=1;verticalAlign=middle;align=center;" vertex="1" parent="1">
          <mxGeometry x="177.62" y="-95" width="100" height="40" as="geometry" />
        </mxCell>
        <mxCell id="VNdccfUVJvab1vEWCmfD-1" value="Operation (e.g. insertOne() )" style="whiteSpace=wrap;align=center;verticalAlign=middle;fontStyle=1;strokeWidth=3;fillColor=#02D8E9" vertex="1" parent="1">
          <mxGeometry x="140.12" y="-40" width="175" height="60" as="geometry" />
        </mxCell>
        <mxCell id="fUrB009fZw3A-2a0p6I8-1" value="" style="edgeStyle=elbowEdgeStyle;elbow=vertical;strokeColor=#990000;strokeWidth=2;exitX=0.5;exitY=1;exitDx=0;exitDy=0;" edge="1" parent="1">
          <mxGeometry width="100" height="100" relative="1" as="geometry">
            <mxPoint x="227" y="20" as="sourcePoint" />
            <mxPoint x="269" y="86" as="targetPoint" />
            <Array as="points">
              <mxPoint x="230" y="86" />
            </Array>
          </mxGeometry>
        </mxCell>
        <mxCell id="p032zaG-Vcj7nt-5Lsnq-1" value="Success" style="whiteSpace=wrap;align=center;verticalAlign=middle;fontStyle=1;strokeWidth=3;fillColor=#52c90e" vertex="1" parent="1">
          <mxGeometry x="269" y="56" width="96" height="60" as="geometry" />
        </mxCell>
        <mxCell id="ssqJUXc7E-bvN2t2EH4x-1" value="Error" style="whiteSpace=wrap;align=center;verticalAlign=middle;fontStyle=1;strokeWidth=3;fillColor=#FFA500" vertex="1" parent="1">
          <mxGeometry x="84" y="56" width="101" height="60" as="geometry" />
        </mxCell>
        <mxCell id="ssqJUXc7E-bvN2t2EH4x-3" value="" style="edgeStyle=elbowEdgeStyle;elbow=vertical;strokeColor=#990000;strokeWidth=2;exitX=0.5;exitY=1;exitDx=0;exitDy=0;" edge="1" parent="1">
          <mxGeometry width="100" height="100" relative="1" as="geometry">
            <mxPoint x="227" y="20" as="sourcePoint" />
            <mxPoint x="187" y="86" as="targetPoint" />
            <Array as="points">
              <mxPoint x="230" y="86" />
            </Array>
          </mxGeometry>
        </mxCell>
        <mxCell id="B1vOna4JC1Mh7XlTmY-L-1" value="" style="edgeStyle=elbowEdgeStyle;elbow=vertical;strokeColor=#990000;strokeWidth=2;exitX=0;exitY=0.5;exitDx=0;exitDy=0;" edge="1" parent="1" source="ssqJUXc7E-bvN2t2EH4x-1">
          <mxGeometry width="100" height="100" relative="1" as="geometry">
            <mxPoint x="83" y="82" as="sourcePoint" />
            <mxPoint x="26" y="151" as="targetPoint" />
            <Array as="points">
              <mxPoint x="-25" y="85" />
            </Array>
          </mxGeometry>
        </mxCell>
        <mxCell id="B1vOna4JC1Mh7XlTmY-L-2" value="Rolled Back&#xa;(i.e. NOTHING is saved)" style="whiteSpace=wrap;align=center;verticalAlign=middle;fontStyle=1;strokeWidth=3;fillColor=#FFA500" vertex="1" parent="1">
          <mxGeometry x="-46" y="153" width="147" height="60" as="geometry" />
        </mxCell>
        <mxCell id="B1vOna4JC1Mh7XlTmY-L-3" value="" style="edgeStyle=elbowEdgeStyle;elbow=vertical;strokeColor=#990000;strokeWidth=2;" edge="1" parent="1">
          <mxGeometry width="100" height="100" relative="1" as="geometry">
            <mxPoint x="367" y="85" as="sourcePoint" />
            <mxPoint x="432" y="149" as="targetPoint" />
            <Array as="points">
              <mxPoint x="349" y="87" />
            </Array>
          </mxGeometry>
        </mxCell>
        <mxCell id="B1vOna4JC1Mh7XlTmY-L-4" value="Saved as a Whole" style="whiteSpace=wrap;align=center;verticalAlign=middle;fontStyle=1;strokeWidth=3;fillColor=#FFA500" vertex="1" parent="1">
          <mxGeometry x="358" y="152" width="147" height="60" as="geometry" />
        </mxCell>
        <mxCell id="B1vOna4JC1Mh7XlTmY-L-5" value="MongoDB CRUD Operations are Atomic on Document Level&#xa;(including Embedded Documents)" style="whiteSpace=wrap;align=center;verticalAlign=middle;fontStyle=1;strokeWidth=3;fillColor=#02D8E9" vertex="1" parent="1">
          <mxGeometry x="-46" y="238" width="551" height="60" as="geometry" />
        </mxCell>
      </root>
    </mxGraphModel>
  </diagram>
  <diagram id="0zkm-bvEwgM7pZrjXl8c" name="5.MongoDB-Query-Selectors">
    <mxGraphModel dx="687" dy="1171" grid="0" gridSize="10" guides="1" tooltips="1" connect="1" arrows="1" fold="1" page="0" pageScale="1" pageWidth="827" pageHeight="1169" math="0" shadow="0">
      <root>
        <mxCell id="0" />
        <mxCell id="1" parent="0" />
        <mxCell id="KAnQLwHNiX_Q_T7KkzA5-1" value="Query Selectors" style="text;strokeColor=none;fillColor=none;html=1;fontSize=24;fontStyle=1;verticalAlign=middle;align=center;" vertex="1" parent="1">
          <mxGeometry x="177.62" y="-95" width="100" height="40" as="geometry" />
        </mxCell>
        <mxCell id="ppCjui4roWM1yVgbKK_f-1" value="Query Selectors" style="whiteSpace=wrap;align=center;verticalAlign=middle;fontStyle=1;strokeWidth=3;fillColor=#7575fa" vertex="1" parent="1">
          <mxGeometry x="72" y="-40" width="315" height="60" as="geometry" />
        </mxCell>
        <mxCell id="ppCjui4roWM1yVgbKK_f-2" value="Comparison" style="whiteSpace=wrap;align=center;verticalAlign=middle;fontStyle=1;strokeWidth=3;fillColor=#02D8E9" vertex="1" parent="1">
          <mxGeometry x="72" y="38" width="133" height="60" as="geometry" />
        </mxCell>
        <mxCell id="ppCjui4roWM1yVgbKK_f-3" value="Evaluation" style="whiteSpace=wrap;align=center;verticalAlign=middle;fontStyle=1;strokeWidth=3;fillColor=#02D8E9" vertex="1" parent="1">
          <mxGeometry x="254" y="38" width="133" height="60" as="geometry" />
        </mxCell>
        <mxCell id="ppCjui4roWM1yVgbKK_f-4" value="Logical" style="whiteSpace=wrap;align=center;verticalAlign=middle;fontStyle=1;strokeWidth=3;fillColor=#02D8E9" vertex="1" parent="1">
          <mxGeometry x="72" y="116" width="133" height="60" as="geometry" />
        </mxCell>
        <mxCell id="ppCjui4roWM1yVgbKK_f-5" value="Array" style="whiteSpace=wrap;align=center;verticalAlign=middle;fontStyle=1;strokeWidth=3;fillColor=#02D8E9" vertex="1" parent="1">
          <mxGeometry x="256" y="116" width="133" height="60" as="geometry" />
        </mxCell>
        <mxCell id="ppCjui4roWM1yVgbKK_f-6" value="Element" style="whiteSpace=wrap;align=center;verticalAlign=middle;fontStyle=1;strokeWidth=3;fillColor=#02D8E9" vertex="1" parent="1">
          <mxGeometry x="72" y="194" width="133" height="60" as="geometry" />
        </mxCell>
        <mxCell id="ppCjui4roWM1yVgbKK_f-7" value="Comments" style="whiteSpace=wrap;align=center;verticalAlign=middle;fontStyle=1;strokeWidth=3;fillColor=#02D8E9" vertex="1" parent="1">
          <mxGeometry x="256" y="194" width="133" height="60" as="geometry" />
        </mxCell>
        <mxCell id="ppCjui4roWM1yVgbKK_f-8" value="Geospatial&#xa;(location data)" style="whiteSpace=wrap;align=center;verticalAlign=middle;fontStyle=1;strokeWidth=3;fillColor=#02D8E9" vertex="1" parent="1">
          <mxGeometry x="163" y="272" width="133" height="60" as="geometry" />
        </mxCell>
      </root>
    </mxGraphModel>
  </diagram>
  <diagram id="mRYtSST3ioYBUu0RB-_t" name="6.MongoDB-Projection-Operators">
    <mxGraphModel dx="687" dy="1171" grid="0" gridSize="10" guides="1" tooltips="1" connect="1" arrows="1" fold="1" page="0" pageScale="1" pageWidth="827" pageHeight="1169" math="0" shadow="0">
      <root>
        <mxCell id="0" />
        <mxCell id="1" parent="0" />
        <mxCell id="iss2VyCUlOFVopkFfRpp-1" value="Projection Operators" style="text;strokeColor=none;fillColor=none;html=1;fontSize=24;fontStyle=1;verticalAlign=middle;align=center;" vertex="1" parent="1">
          <mxGeometry x="177.62" y="-87" width="100" height="40" as="geometry" />
        </mxCell>
        <mxCell id="IHnH7OqhqAOx7ZdDFb4x-1" value="Projection Operators" style="whiteSpace=wrap;align=center;verticalAlign=middle;fontStyle=1;strokeWidth=3;fillColor=#FFA500" vertex="1" parent="1">
          <mxGeometry x="111" y="-43" width="235" height="60" as="geometry" />
        </mxCell>
        <mxCell id="u9dqQ0xBYXrMHizL2AvR-1" value="$" style="whiteSpace=wrap;align=center;verticalAlign=middle;fontStyle=1;strokeWidth=3;fillColor=#fcda9a" vertex="1" parent="1">
          <mxGeometry x="110.12" y="36" width="235" height="60" as="geometry" />
        </mxCell>
        <mxCell id="u9dqQ0xBYXrMHizL2AvR-2" value="$elemMatch" style="whiteSpace=wrap;align=center;verticalAlign=middle;fontStyle=1;strokeWidth=3;fillColor=#fcda9a" vertex="1" parent="1">
          <mxGeometry x="111" y="115" width="235" height="60" as="geometry" />
        </mxCell>
        <mxCell id="u9dqQ0xBYXrMHizL2AvR-3" value="$meta" style="whiteSpace=wrap;align=center;verticalAlign=middle;fontStyle=1;strokeWidth=3;fillColor=#fcda9a" vertex="1" parent="1">
          <mxGeometry x="111" y="194" width="235" height="60" as="geometry" />
        </mxCell>
        <mxCell id="u9dqQ0xBYXrMHizL2AvR-4" value="$slice" style="whiteSpace=wrap;align=center;verticalAlign=middle;fontStyle=1;strokeWidth=3;fillColor=#fcda9a" vertex="1" parent="1">
          <mxGeometry x="111" y="273" width="235" height="60" as="geometry" />
        </mxCell>
      </root>
    </mxGraphModel>
  </diagram>
  <diagram id="OrAQigQ0T3T9m2sp6SH3" name="41-MongoDB-Data-Schemas-and-Data-Modelling">
    <mxGraphModel dx="687" dy="1171" grid="0" gridSize="10" guides="1" tooltips="1" connect="1" arrows="1" fold="1" page="0" pageScale="1" pageWidth="827" pageHeight="1169" math="0" shadow="0">
      <root>
        <mxCell id="0" />
        <mxCell id="1" parent="0" />
        <mxCell id="Uthy201Epc8mqD9lOQB1-1" value="Data Schemas &amp;amp; Data Modelling" style="text;strokeColor=none;fillColor=none;html=1;fontSize=24;fontStyle=1;verticalAlign=middle;align=center;" vertex="1" parent="1">
          <mxGeometry x="375" y="-85" width="100" height="40" as="geometry" />
        </mxCell>
        <mxCell id="xbdTeVRgSo0sXojZ_cVC-1" value="App need or generate?" style="whiteSpace=wrap;align=center;verticalAlign=middle;fontStyle=1;strokeWidth=3;fillColor=#7575fa" vertex="1" parent="1">
          <mxGeometry x="126" y="-22" width="167" height="60" as="geometry" />
        </mxCell>
        <mxCell id="xbdTeVRgSo0sXojZ_cVC-2" value="User info,&#xa;Product info,&#xa;Orders,&#xa;..." style="whiteSpace=wrap;align=center;verticalAlign=middle;fontStyle=1;strokeWidth=3;fillColor=#02D8E9" vertex="1" parent="1">
          <mxGeometry x="336" y="-22" width="167" height="60" as="geometry" />
        </mxCell>
        <mxCell id="mehCQ1QZZGqJ1zTB0HX5-1" value="Defines Fields needed" style="whiteSpace=wrap;align=center;verticalAlign=middle;fontStyle=1;strokeWidth=3;fillColor=#FFA500" vertex="1" parent="1">
          <mxGeometry x="546" y="-22" width="166" height="60" as="geometry" />
        </mxCell>
        <mxCell id="mehCQ1QZZGqJ1zTB0HX5-2" value="Welcome page,&#xa;Products List page,&#xa;Orders page" style="whiteSpace=wrap;align=center;verticalAlign=middle;fontStyle=1;strokeWidth=3;fillColor=#02D8E9" vertex="1" parent="1">
          <mxGeometry x="336" y="61" width="167" height="60" as="geometry" />
        </mxCell>
        <mxCell id="mehCQ1QZZGqJ1zTB0HX5-3" value="Where we need our Data?" style="whiteSpace=wrap;align=center;verticalAlign=middle;fontStyle=1;strokeWidth=3;fillColor=#7575fa" vertex="1" parent="1">
          <mxGeometry x="126" y="61" width="167" height="60" as="geometry" />
        </mxCell>
        <mxCell id="mehCQ1QZZGqJ1zTB0HX5-4" value="Defines &#xa;Collections,&#xa;Field groupings" style="whiteSpace=wrap;align=center;verticalAlign=middle;fontStyle=1;strokeWidth=3;fillColor=#FFA500" vertex="1" parent="1">
          <mxGeometry x="546" y="61" width="166" height="60" as="geometry" />
        </mxCell>
        <mxCell id="mehCQ1QZZGqJ1zTB0HX5-5" value="Which kind of Data/Info&#xa;want to display?" style="whiteSpace=wrap;align=center;verticalAlign=middle;fontStyle=1;strokeWidth=3;fillColor=#7575fa" vertex="1" parent="1">
          <mxGeometry x="126" y="144" width="167" height="60" as="geometry" />
        </mxCell>
        <mxCell id="mehCQ1QZZGqJ1zTB0HX5-6" value="Welcome page,&#xa;Product names,&#xa;Products page" style="whiteSpace=wrap;align=center;verticalAlign=middle;fontStyle=1;strokeWidth=3;fillColor=#02D8E9" vertex="1" parent="1">
          <mxGeometry x="336" y="144" width="167" height="60" as="geometry" />
        </mxCell>
        <mxCell id="NxMw8UDKUB_XgYg_ET5t-1" value="Defines &#xa;Queries" style="whiteSpace=wrap;align=center;verticalAlign=middle;fontStyle=1;strokeWidth=3;fillColor=#FFA500" vertex="1" parent="1">
          <mxGeometry x="546" y="144" width="166" height="60" as="geometry" />
        </mxCell>
        <mxCell id="HrDg2ldPsYnNkcz7_RY6-1" value="" style="edgeStyle=elbowEdgeStyle;elbow=vertical;strokeColor=#FFA500;strokeWidth=2;" edge="1" parent="1">
          <mxGeometry width="100" height="100" relative="1" as="geometry">
            <mxPoint x="758" y="174" as="sourcePoint" />
            <mxPoint x="714" y="90" as="targetPoint" />
            <Array as="points">
              <mxPoint x="739" y="90" />
            </Array>
          </mxGeometry>
        </mxCell>
        <mxCell id="HrDg2ldPsYnNkcz7_RY6-3" value="" style="endArrow=none;html=1;rounded=0;fontSize=12;startSize=8;strokeColor=#FFA500;endSize=8;curved=1;entryX=1;entryY=0.5;entryDx=0;entryDy=0;" edge="1" parent="1" target="NxMw8UDKUB_XgYg_ET5t-1">
          <mxGeometry width="50" height="50" relative="1" as="geometry">
            <mxPoint x="757" y="174" as="sourcePoint" />
            <mxPoint x="727" y="174" as="targetPoint" />
          </mxGeometry>
        </mxCell>
        <mxCell id="HrDg2ldPsYnNkcz7_RY6-4" value="" style="edgeStyle=elbowEdgeStyle;elbow=vertical;strokeColor=#FFA500;strokeWidth=2;" edge="1" parent="1">
          <mxGeometry width="100" height="100" relative="1" as="geometry">
            <mxPoint x="756" y="91" as="sourcePoint" />
            <mxPoint x="712" y="7" as="targetPoint" />
            <Array as="points">
              <mxPoint x="737" y="7" />
            </Array>
          </mxGeometry>
        </mxCell>
        <mxCell id="HrDg2ldPsYnNkcz7_RY6-5" value="Defines whether you should optimize for easy fetching" style="whiteSpace=wrap;align=center;verticalAlign=middle;fontStyle=1;strokeWidth=3;fillColor=#FFA500" vertex="1" parent="1">
          <mxGeometry x="546" y="227" width="166" height="60" as="geometry" />
        </mxCell>
        <mxCell id="HrDg2ldPsYnNkcz7_RY6-6" value="For every page reload" style="whiteSpace=wrap;align=center;verticalAlign=middle;fontStyle=1;strokeWidth=3;fillColor=#02D8E9" vertex="1" parent="1">
          <mxGeometry x="336" y="227" width="167" height="60" as="geometry" />
        </mxCell>
        <mxCell id="HrDg2ldPsYnNkcz7_RY6-7" value="How often do I FETCH my data?" style="whiteSpace=wrap;align=center;verticalAlign=middle;fontStyle=1;strokeWidth=3;fillColor=#7575fa" vertex="1" parent="1">
          <mxGeometry x="126" y="227" width="167" height="60" as="geometry" />
        </mxCell>
        <mxCell id="HrDg2ldPsYnNkcz7_RY6-8" value="How often do I write/change &#xa;my data?" style="whiteSpace=wrap;align=center;verticalAlign=middle;fontStyle=1;strokeWidth=3;fillColor=#7575fa" vertex="1" parent="1">
          <mxGeometry x="126" y="310" width="167" height="60" as="geometry" />
        </mxCell>
        <mxCell id="HrDg2ldPsYnNkcz7_RY6-9" value="Orders =&gt; Often&#xa;Product Data =&gt; Rarely" style="whiteSpace=wrap;align=center;verticalAlign=middle;fontStyle=1;strokeWidth=3;fillColor=#02D8E9" vertex="1" parent="1">
          <mxGeometry x="336" y="310" width="167" height="60" as="geometry" />
        </mxCell>
        <mxCell id="HrDg2ldPsYnNkcz7_RY6-10" value="" style="endArrow=classic;html=1;rounded=0;fontSize=12;startSize=8;endSize=8;curved=1;exitX=1;exitY=0.5;exitDx=0;exitDy=0;entryX=0;entryY=0.5;entryDx=0;entryDy=0;" edge="1" parent="1" source="HrDg2ldPsYnNkcz7_RY6-8" target="HrDg2ldPsYnNkcz7_RY6-9">
          <mxGeometry width="50" height="50" relative="1" as="geometry">
            <mxPoint x="437" y="225" as="sourcePoint" />
            <mxPoint x="487" y="175" as="targetPoint" />
          </mxGeometry>
        </mxCell>
        <mxCell id="HrDg2ldPsYnNkcz7_RY6-11" value="" style="endArrow=classic;html=1;rounded=0;fontSize=12;startSize=8;endSize=8;curved=1;exitX=1;exitY=0.5;exitDx=0;exitDy=0;entryX=0;entryY=0.5;entryDx=0;entryDy=0;" edge="1" parent="1">
          <mxGeometry width="50" height="50" relative="1" as="geometry">
            <mxPoint x="293" y="256.5" as="sourcePoint" />
            <mxPoint x="336" y="256.5" as="targetPoint" />
          </mxGeometry>
        </mxCell>
        <mxCell id="HrDg2ldPsYnNkcz7_RY6-12" value="" style="endArrow=classic;html=1;rounded=0;fontSize=12;startSize=8;endSize=8;curved=1;exitX=1;exitY=0.5;exitDx=0;exitDy=0;entryX=0;entryY=0.5;entryDx=0;entryDy=0;" edge="1" parent="1">
          <mxGeometry width="50" height="50" relative="1" as="geometry">
            <mxPoint x="293" y="173.5" as="sourcePoint" />
            <mxPoint x="336" y="173.5" as="targetPoint" />
          </mxGeometry>
        </mxCell>
        <mxCell id="HrDg2ldPsYnNkcz7_RY6-13" value="" style="endArrow=classic;html=1;rounded=0;fontSize=12;startSize=8;endSize=8;curved=1;exitX=1;exitY=0.5;exitDx=0;exitDy=0;entryX=0;entryY=0.5;entryDx=0;entryDy=0;" edge="1" parent="1">
          <mxGeometry width="50" height="50" relative="1" as="geometry">
            <mxPoint x="293" y="90.5" as="sourcePoint" />
            <mxPoint x="336" y="90.5" as="targetPoint" />
          </mxGeometry>
        </mxCell>
        <mxCell id="HrDg2ldPsYnNkcz7_RY6-14" value="" style="endArrow=classic;html=1;rounded=0;fontSize=12;startSize=8;endSize=8;curved=1;exitX=1;exitY=0.5;exitDx=0;exitDy=0;entryX=0;entryY=0.5;entryDx=0;entryDy=0;" edge="1" parent="1">
          <mxGeometry width="50" height="50" relative="1" as="geometry">
            <mxPoint x="293" y="11" as="sourcePoint" />
            <mxPoint x="336" y="11" as="targetPoint" />
          </mxGeometry>
        </mxCell>
        <mxCell id="HrDg2ldPsYnNkcz7_RY6-15" value="" style="endArrow=classic;html=1;rounded=0;fontSize=12;startSize=8;endSize=8;curved=1;exitX=1;exitY=0.5;exitDx=0;exitDy=0;entryX=0;entryY=0.5;entryDx=0;entryDy=0;" edge="1" parent="1">
          <mxGeometry width="50" height="50" relative="1" as="geometry">
            <mxPoint x="503" y="11" as="sourcePoint" />
            <mxPoint x="546" y="11" as="targetPoint" />
          </mxGeometry>
        </mxCell>
        <mxCell id="HrDg2ldPsYnNkcz7_RY6-16" value="" style="endArrow=classic;html=1;rounded=0;fontSize=12;startSize=8;endSize=8;curved=1;exitX=1;exitY=0.5;exitDx=0;exitDy=0;entryX=0;entryY=0.5;entryDx=0;entryDy=0;" edge="1" parent="1">
          <mxGeometry width="50" height="50" relative="1" as="geometry">
            <mxPoint x="503" y="90.5" as="sourcePoint" />
            <mxPoint x="546" y="90.5" as="targetPoint" />
          </mxGeometry>
        </mxCell>
        <mxCell id="HrDg2ldPsYnNkcz7_RY6-17" value="" style="endArrow=classic;html=1;rounded=0;fontSize=12;startSize=8;endSize=8;curved=1;exitX=1;exitY=0.5;exitDx=0;exitDy=0;entryX=0;entryY=0.5;entryDx=0;entryDy=0;" edge="1" parent="1">
          <mxGeometry width="50" height="50" relative="1" as="geometry">
            <mxPoint x="503" y="173.5" as="sourcePoint" />
            <mxPoint x="546" y="173.5" as="targetPoint" />
          </mxGeometry>
        </mxCell>
        <mxCell id="HrDg2ldPsYnNkcz7_RY6-18" value="" style="endArrow=classic;html=1;rounded=0;fontSize=12;startSize=8;endSize=8;curved=1;exitX=1;exitY=0.5;exitDx=0;exitDy=0;entryX=0;entryY=0.5;entryDx=0;entryDy=0;" edge="1" parent="1">
          <mxGeometry width="50" height="50" relative="1" as="geometry">
            <mxPoint x="503" y="256.5" as="sourcePoint" />
            <mxPoint x="546" y="256.5" as="targetPoint" />
          </mxGeometry>
        </mxCell>
        <mxCell id="HrDg2ldPsYnNkcz7_RY6-19" value="" style="endArrow=classic;html=1;rounded=0;fontSize=12;startSize=8;endSize=8;curved=1;exitX=1;exitY=0.5;exitDx=0;exitDy=0;entryX=0;entryY=0.5;entryDx=0;entryDy=0;" edge="1" parent="1">
          <mxGeometry width="50" height="50" relative="1" as="geometry">
            <mxPoint x="504" y="339.5" as="sourcePoint" />
            <mxPoint x="547" y="339.5" as="targetPoint" />
          </mxGeometry>
        </mxCell>
        <mxCell id="HrDg2ldPsYnNkcz7_RY6-20" value="Defines whether you should optimize for easy writing" style="whiteSpace=wrap;align=center;verticalAlign=middle;fontStyle=1;strokeWidth=3;fillColor=#FFA500" vertex="1" parent="1">
          <mxGeometry x="546" y="310" width="166" height="60" as="geometry" />
        </mxCell>
      </root>
    </mxGraphModel>
  </diagram>
  <diagram id="e2lBMe6d2RKnN5-UP06W" name="42-MongoDB-Embedding-vs-Referencing">
    <mxGraphModel dx="1087" dy="1171" grid="0" gridSize="10" guides="1" tooltips="1" connect="1" arrows="1" fold="1" page="0" pageScale="1" pageWidth="827" pageHeight="1169" math="0" shadow="0">
      <root>
        <mxCell id="0" />
        <mxCell id="1" parent="0" />
        <mxCell id="sh2d_7MgAgwCgpJm2SAb-1" value="Relations - Options" style="text;strokeColor=none;fillColor=none;html=1;fontSize=24;fontStyle=1;verticalAlign=middle;align=center;" parent="1" vertex="1">
          <mxGeometry x="118" y="-87" width="100" height="40" as="geometry" />
        </mxCell>
        <mxCell id="PCMBZFbpsLT8a_1AZT4e-1" value="Embedded Documents" style="whiteSpace=wrap;align=center;verticalAlign=middle;fontStyle=1;strokeWidth=3;fillColor=#3d3de0;fontColor=#ffffff;" parent="1" vertex="1">
          <mxGeometry x="-49" y="-40" width="198" height="60" as="geometry" />
        </mxCell>
        <mxCell id="YZHYVFmwZ0m4hZI9CERu-1" value="References" style="whiteSpace=wrap;align=center;verticalAlign=middle;fontStyle=1;strokeWidth=3;fillColor=#FFA500;fontColor=#ffffff;" parent="1" vertex="1">
          <mxGeometry x="218" y="-40" width="198" height="60" as="geometry" />
        </mxCell>
        <mxCell id="YZHYVFmwZ0m4hZI9CERu-2" value="customers: {&#xa;    username: &#39;user1&#39;,&#xa;    age: 50,&#xa;    address: {&#xa;        street: &#39;Second Street&#39;,&#xa;        city: &#39;city1&#39;&#xa;    }&#xa;}" style="whiteSpace=wrap;align=center;verticalAlign=middle;fontStyle=1;strokeWidth=3;fillColor=#8b8bfc;align=left;fontColor=#ffffff;" parent="1" vertex="1">
          <mxGeometry x="-49" y="43" width="198" height="245" as="geometry" />
        </mxCell>
        <mxCell id="YZHYVFmwZ0m4hZI9CERu-3" value="Embedded Documents" style="whiteSpace=wrap;align=center;verticalAlign=middle;fontStyle=1;strokeWidth=3;fillColor=#FFA500;fontColor=#ffffff;" parent="1" vertex="1">
          <mxGeometry x="218" y="43" width="198" height="245" as="geometry" />
        </mxCell>
      </root>
    </mxGraphModel>
  </diagram>
  <diagram id="7pDIHnsnaR_O4G8kFbaz" name="50-REST-vs-Websockets">
    <mxGraphModel dx="1208" dy="1307" grid="0" gridSize="10" guides="1" tooltips="1" connect="1" arrows="1" fold="1" page="0" pageScale="1" pageWidth="827" pageHeight="1169" math="0" shadow="0">
      <root>
        <mxCell id="0" />
        <mxCell id="1" parent="0" />
        <mxCell id="B0IzhWL2Mpu5-q4pMpAH-1" value="REST APIs" style="text;strokeColor=none;fillColor=none;html=1;fontSize=24;fontStyle=1;verticalAlign=middle;align=center;" vertex="1" parent="1">
          <mxGeometry x="-33" y="17" width="100" height="40" as="geometry" />
        </mxCell>
        <mxCell id="_rWCCmURWsYHcNOSR4yN-1" value="Client (browser)" style="whiteSpace=wrap;align=center;verticalAlign=middle;fontStyle=1;strokeWidth=3;fillColor=#7575fa" vertex="1" parent="1">
          <mxGeometry x="-82" y="76" width="198" height="60" as="geometry" />
        </mxCell>
        <mxCell id="vJI9Zb5tqYU7X8rzrcb3-1" value="" style="edgeStyle=elbowEdgeStyle;elbow=vertical;strokeColor=#990000;strokeWidth=2;" edge="1" parent="1">
          <mxGeometry width="100" height="100" relative="1" as="geometry">
            <mxPoint x="-33" y="136" as="sourcePoint" />
            <mxPoint x="-33" y="249" as="targetPoint" />
            <Array as="points">
              <mxPoint x="7.5" y="159" />
            </Array>
          </mxGeometry>
        </mxCell>
        <mxCell id="qm-Ru26aufAe7DDH5ylo-1" value="Server" style="whiteSpace=wrap;align=center;verticalAlign=middle;fontStyle=1;strokeWidth=3;fillColor=#FFA500" vertex="1" parent="1">
          <mxGeometry x="-82" y="249" width="198" height="60" as="geometry" />
        </mxCell>
        <mxCell id="qm-Ru26aufAe7DDH5ylo-2" value="" style="edgeStyle=elbowEdgeStyle;elbow=vertical;strokeColor=#990000;strokeWidth=2;entryX=0.75;entryY=1;entryDx=0;entryDy=0;" edge="1" parent="1" target="_rWCCmURWsYHcNOSR4yN-1">
          <mxGeometry width="100" height="100" relative="1" as="geometry">
            <mxPoint x="67" y="142" as="sourcePoint" />
            <mxPoint x="67" y="139" as="targetPoint" />
            <Array as="points">
              <mxPoint x="69" y="253" />
            </Array>
          </mxGeometry>
        </mxCell>
        <mxCell id="5U3j_wf0rN0-7dSrd7K7-1" value="1. HTTP Requests" style="text;html=1;align=center;verticalAlign=middle;whiteSpace=wrap;rounded=0;fontSize=16;" vertex="1" parent="1">
          <mxGeometry x="-145" y="178" width="132" height="30" as="geometry" />
        </mxCell>
        <mxCell id="5U3j_wf0rN0-7dSrd7K7-2" value="2. HTTP Response" style="text;html=1;align=center;verticalAlign=middle;whiteSpace=wrap;rounded=0;fontSize=16;" vertex="1" parent="1">
          <mxGeometry x="44" y="178" width="132" height="30" as="geometry" />
        </mxCell>
        <mxCell id="jLpQQGvRosnyA11Zk2L--1" value="" style="edgeStyle=elbowEdgeStyle;elbow=vertical;strokeColor=#990000;strokeWidth=2;" edge="1" parent="1">
          <mxGeometry width="100" height="100" relative="1" as="geometry">
            <mxPoint x="116" y="278.5" as="sourcePoint" />
            <mxPoint x="176" y="279" as="targetPoint" />
            <Array as="points">
              <mxPoint x="240" y="278.5" />
            </Array>
          </mxGeometry>
        </mxCell>
        <mxCell id="jLpQQGvRosnyA11Zk2L--2" value="If real-time changes on Web Server &amp; we wanna inform Clients" style="whiteSpace=wrap;align=center;verticalAlign=middle;fontStyle=1;strokeWidth=3;fillColor=#FFFF00" vertex="1" parent="1">
          <mxGeometry x="178" y="231" width="198" height="118" as="geometry" />
        </mxCell>
        <mxCell id="jLpQQGvRosnyA11Zk2L--3" value="HTTP" style="whiteSpace=wrap;align=center;verticalAlign=middle;fontStyle=1;strokeWidth=3;fillColor=#3d3de0;fontColor=#ffffff;" vertex="1" parent="1">
          <mxGeometry x="-82" y="-84" width="198" height="60" as="geometry" />
        </mxCell>
        <mxCell id="jLpQQGvRosnyA11Zk2L--4" value="WebSockets" style="whiteSpace=wrap;align=center;verticalAlign=middle;fontStyle=1;strokeWidth=3;fillColor=#FFA500" vertex="1" parent="1">
          <mxGeometry x="509" y="-84" width="198" height="60" as="geometry" />
        </mxCell>
        <mxCell id="jLpQQGvRosnyA11Zk2L--14" value="" style="edgeStyle=elbowEdgeStyle;elbow=vertical;strokeColor=#990000;strokeWidth=2;" edge="1" parent="1">
          <mxGeometry width="100" height="100" relative="1" as="geometry">
            <mxPoint x="128" y="-54.56" as="sourcePoint" />
            <mxPoint x="496" y="-54" as="targetPoint" />
            <Array as="points">
              <mxPoint x="496" y="-54" />
            </Array>
          </mxGeometry>
        </mxCell>
        <mxCell id="jLpQQGvRosnyA11Zk2L--15" value="Established via HTTP" style="text;html=1;align=center;verticalAlign=middle;whiteSpace=wrap;rounded=0;fontSize=16;" vertex="1" parent="1">
          <mxGeometry x="223" y="-45" width="179" height="30" as="geometry" />
        </mxCell>
        <mxCell id="jLpQQGvRosnyA11Zk2L--16" value="Client (browser)" style="whiteSpace=wrap;align=center;verticalAlign=middle;fontStyle=1;strokeWidth=3;fillColor=#7575fa" vertex="1" parent="1">
          <mxGeometry x="509" y="76" width="198" height="60" as="geometry" />
        </mxCell>
        <mxCell id="jLpQQGvRosnyA11Zk2L--17" value="Server" style="whiteSpace=wrap;align=center;verticalAlign=middle;fontStyle=1;strokeWidth=3;fillColor=#FFA500" vertex="1" parent="1">
          <mxGeometry x="509" y="249" width="198" height="60" as="geometry" />
        </mxCell>
        <mxCell id="jLpQQGvRosnyA11Zk2L--18" value="" style="edgeStyle=elbowEdgeStyle;elbow=vertical;strokeColor=#990000;strokeWidth=2;entryX=0.75;entryY=1;entryDx=0;entryDy=0;" edge="1" parent="1">
          <mxGeometry width="100" height="100" relative="1" as="geometry">
            <mxPoint x="607.44" y="140.5" as="sourcePoint" />
            <mxPoint x="607.44" y="134.5" as="targetPoint" />
            <Array as="points">
              <mxPoint x="609.44" y="251.5" />
            </Array>
          </mxGeometry>
        </mxCell>
        <mxCell id="jLpQQGvRosnyA11Zk2L--19" value="Push Data" style="text;html=1;align=center;verticalAlign=middle;whiteSpace=wrap;rounded=0;fontSize=16;" vertex="1" parent="1">
          <mxGeometry x="495" y="178" width="132" height="30" as="geometry" />
        </mxCell>
        <mxCell id="jLpQQGvRosnyA11Zk2L--20" value="We can use both REST APIs &amp; WebSockets in the same Node app" style="whiteSpace=wrap;align=center;verticalAlign=middle;fontStyle=1;strokeWidth=3;fillColor=#FFFF00" vertex="1" parent="1">
          <mxGeometry x="-109" y="373" width="821" height="118" as="geometry" />
        </mxCell>
      </root>
    </mxGraphModel>
  </diagram>
  <diagram id="XE5X8VD8kpfxpasiFhDn" name="43-Cookies">
    <mxGraphModel dx="687" dy="1171" grid="0" gridSize="10" guides="1" tooltips="1" connect="1" arrows="1" fold="1" page="0" pageScale="1" pageWidth="827" pageHeight="1169" math="0" shadow="0">
      <root>
        <mxCell id="0" />
        <mxCell id="1" parent="0" />
        <mxCell id="Vud1Kxi9nJQf2sU_0nfk-1" value="Cookies" style="text;strokeColor=none;fillColor=none;html=1;fontSize=24;fontStyle=1;verticalAlign=middle;align=center;" vertex="1" parent="1">
          <mxGeometry x="239" y="-197" width="100" height="40" as="geometry" />
        </mxCell>
        <mxCell id="55-aPNomUhYZ8G4yjk3r-2" value="" style="edgeStyle=none;curved=1;rounded=0;orthogonalLoop=1;jettySize=auto;html=1;fontSize=12;startSize=8;endSize=8;" edge="1" parent="1" source="gIFw6t1DQkF-kh--CrEj-1" target="NsqxopXimtHG7NgHprZg-1">
          <mxGeometry relative="1" as="geometry" />
        </mxCell>
        <mxCell id="gIFw6t1DQkF-kh--CrEj-1" value="Client (User on browser)" style="whiteSpace=wrap;align=center;verticalAlign=middle;fontStyle=1;strokeWidth=3;fillColor=#3d3de0;fontColor=#ffffff;" vertex="1" parent="1">
          <mxGeometry x="69" y="-14" width="198" height="60" as="geometry" />
        </mxCell>
        <mxCell id="NsqxopXimtHG7NgHprZg-1" value="Frontend (Views) EJS or React" style="whiteSpace=wrap;align=center;verticalAlign=middle;fontStyle=1;strokeWidth=3;fillColor=#8b8bfc;align=center;" vertex="1" parent="1">
          <mxGeometry x="69" y="105" width="198" height="60" as="geometry" />
        </mxCell>
        <mxCell id="55-aPNomUhYZ8G4yjk3r-3" value="Web Server (Node.js)" style="whiteSpace=wrap;align=center;verticalAlign=middle;fontStyle=1;strokeWidth=3;fillColor=#56b84b;fontColor=#ffffff;" vertex="1" parent="1">
          <mxGeometry x="69" y="273" width="198" height="60" as="geometry" />
        </mxCell>
        <mxCell id="55-aPNomUhYZ8G4yjk3r-4" value="" style="edgeStyle=none;curved=1;rounded=0;orthogonalLoop=1;jettySize=auto;html=1;fontSize=12;startSize=8;endSize=8;entryX=0.5;entryY=0;entryDx=0;entryDy=0;" edge="1" parent="1" target="55-aPNomUhYZ8G4yjk3r-3">
          <mxGeometry relative="1" as="geometry">
            <mxPoint x="167.5" y="165" as="sourcePoint" />
            <mxPoint x="167.5" y="224" as="targetPoint" />
          </mxGeometry>
        </mxCell>
        <mxCell id="yg3rRQM38uzqvlZKniS0-1" value="HTT Request" style="text;html=1;align=center;verticalAlign=middle;whiteSpace=wrap;rounded=0;fontSize=16;" vertex="1" parent="1">
          <mxGeometry x="49" y="204" width="132" height="30" as="geometry" />
        </mxCell>
        <mxCell id="GxpfkPIe2f0EoWSO1Xcm-1" value="" style="edgeStyle=elbowEdgeStyle;elbow=vertical;strokeColor=#FFA500;strokeWidth=2;" edge="1" parent="1">
          <mxGeometry width="100" height="100" relative="1" as="geometry">
            <mxPoint x="435" y="301" as="sourcePoint" />
            <mxPoint x="435" y="169" as="targetPoint" />
            <Array as="points">
              <mxPoint x="416" y="217" />
            </Array>
          </mxGeometry>
        </mxCell>
        <mxCell id="GxpfkPIe2f0EoWSO1Xcm-2" value="" style="endArrow=none;html=1;rounded=0;fontSize=12;startSize=8;strokeColor=#FFA500;endSize=8;curved=1;entryX=1;entryY=0.5;entryDx=0;entryDy=0;" edge="1" parent="1">
          <mxGeometry width="50" height="50" relative="1" as="geometry">
            <mxPoint x="435" y="301" as="sourcePoint" />
            <mxPoint x="267" y="301" as="targetPoint" />
          </mxGeometry>
        </mxCell>
        <mxCell id="3X-a3T7P2duEBrBGrkCg-1" value="Cookies" style="whiteSpace=wrap;align=center;verticalAlign=middle;fontStyle=1;strokeWidth=3;fillColor=#FFA500;fontColor=#ffffff;" vertex="1" parent="1">
          <mxGeometry x="339" y="105" width="198" height="60" as="geometry" />
        </mxCell>
        <mxCell id="3X-a3T7P2duEBrBGrkCg-2" value="Set via Response Header" style="text;html=1;align=center;verticalAlign=middle;whiteSpace=wrap;rounded=0;fontSize=16;fontColor=#FFA500;" vertex="1" parent="1">
          <mxGeometry x="445" y="204" width="132" height="30" as="geometry" />
        </mxCell>
        <mxCell id="gcO5l4UifJshfSvuP9eo-1" value="" style="endArrow=classic;html=1;rounded=0;fontSize=12;startSize=8;endSize=8;curved=1;exitX=1;exitY=0.5;exitDx=0;exitDy=0;entryX=0;entryY=0.5;entryDx=0;entryDy=0;" edge="1" parent="1" target="3X-a3T7P2duEBrBGrkCg-1">
          <mxGeometry width="50" height="50" relative="1" as="geometry">
            <mxPoint x="267.5" y="134.5" as="sourcePoint" />
            <mxPoint x="310.5" y="134.5" as="targetPoint" />
          </mxGeometry>
        </mxCell>
        <mxCell id="gcO5l4UifJshfSvuP9eo-2" value="Include Cookies" style="text;html=1;align=center;verticalAlign=middle;whiteSpace=wrap;rounded=0;fontSize=16;fontColor=#FFA500;" vertex="1" parent="1">
          <mxGeometry x="207" y="204" width="132" height="30" as="geometry" />
        </mxCell>
        <mxCell id="fMvAY1rug594Ju0AjvzH-1" value="" style="dashed=0;outlineConnect=0;html=1;align=center;labelPosition=center;verticalLabelPosition=bottom;verticalAlign=top;shape=mxgraph.weblogos.json_2" vertex="1" parent="1">
          <mxGeometry x="284" y="-95.6" width="80.4" height="25.200000000000003" as="geometry" />
        </mxCell>
        <mxCell id="HPoHl_TwHRgxWO-g4vmc-1" value="Stored on Client-side&#xa;sessionStorage&#xa;&#xa;JSON.stringify(cookie);&#xa;{ &quot;user&quot;: &quot;user1&quot;, &quot;hash&quot;: &quot;String&quot;, &quot;items&quot;: [] }" style="whiteSpace=wrap;align=center;verticalAlign=middle;fontStyle=1;strokeWidth=3;fillColor=#FFFF00" vertex="1" parent="1">
          <mxGeometry x="69" y="-131" width="198" height="96" as="geometry" />
        </mxCell>
      </root>
    </mxGraphModel>
  </diagram>
</mxfile>
